Kablammov0.9-SemichaoticBold.ufo
<glyph name="exclam" format="2">
  <advance width="346"/>
  <unicode hex="0021"/>
  <outline>
    <contour>
      <point x="133" y="276" type="line" smooth="yes"/>
      <point x="138" y="233"/>
      <point x="186" y="233"/>
      <point x="196" y="273" type="curve" smooth="yes"/>
      <point x="270" y="636" type="line" smooth="yes"/>
      <point x="303" y="769"/>
      <point x="69" y="770"/>
      <point x="93" y="643" type="curve" smooth="yes"/>
    </contour>
    <contour>
      <point x="169" y="-16" type="curve" smooth="yes"/>
      <point x="219" y="-16"/>
      <point x="261" y="26"/>
      <point x="261" y="79" type="curve" smooth="yes"/>
      <point x="261" y="129"/>
      <point x="219" y="171"/>
      <point x="169" y="171" type="curve" smooth="yes"/>
      <point x="117" y="171"/>
      <point x="75" y="129"/>
      <point x="75" y="79" type="curve" smooth="yes"/>
      <point x="75" y="26"/>
      <point x="117" y="-16"/>
    </contour>
    <contour>
      <point x="78" y="601" type="line" smooth="yes"/>
      <point x="40" y="605"/>
      <point x="36" y="544"/>
      <point x="70" y="541" type="curve" smooth="yes"/>
      <point x="249" y="528" type="line" smooth="yes"/>
      <point x="277" y="526"/>
      <point x="286" y="579"/>
      <point x="253" y="582" type="curve" smooth="yes"/>
    </contour>
    <contour>
      <point x="131" y="470" type="line" smooth="yes"/>
      <point x="97" y="468"/>
      <point x="96" y="415"/>
      <point x="128" y="415" type="curve" smooth="yes"/>
      <point x="244" y="415" type="line" smooth="yes"/>
      <point x="278" y="415"/>
      <point x="278" y="478"/>
      <point x="242" y="476" type="curve" smooth="yes"/>
    </contour>
    <contour>
      <point x="158" y="529" type="line" smooth="yes"/>
      <point x="134" y="526"/>
      <point x="135" y="484"/>
      <point x="157" y="484" type="curve" smooth="yes"/>
      <point x="177" y="484" type="line"/>
      <point x="172" y="531" type="line"/>
    </contour>
    <contour>
      <point x="168" y="388" type="curve" smooth="yes"/>
      <point x="149" y="390" type="line"/>
      <point x="144" y="346" type="line"/>
      <point x="167" y="339" type="line" smooth="yes"/>
      <point x="187" y="333"/>
      <point x="189" y="386"/>
    </contour>
  </outline>
</glyph>
<glyph name="quotedbl" format="2">
  <advance width="392"/>
  <unicode hex="0022"/>
  <outline>
    <contour>
      <point x="65" y="419" type="line" smooth="yes"/>
      <point x="70" y="366"/>
      <point x="146" y="369.991"/>
      <point x="150" y="423" type="curve" smooth="yes"/>
      <point x="170" y="663" type="line" smooth="yes"/>
      <point x="177" y="748"/>
      <point x="34" y="751"/>
      <point x="42.003" y="661.995" type="curve" smooth="yes"/>
    </contour>
    <contour>
      <point x="240" y="409" type="line" smooth="yes"/>
      <point x="243" y="356"/>
      <point x="322.005" y="359.002"/>
      <point x="328" y="409" type="curve" smooth="yes"/>
      <point x="357" y="649" type="line" smooth="yes"/>
      <point x="370" y="741"/>
      <point x="222" y="746"/>
      <point x="226" y="660" type="curve" smooth="yes"/>
    </contour>
    <contour>
      <point x="44.002" y="646" type="line"/>
      <point x="67" y="648" type="line" smooth="yes"/>
      <point x="90" y="650"/>
      <point x="96" y="587"/>
      <point x="71" y="583" type="curve" smooth="yes"/>
      <point x="50" y="579" type="line"/>
    </contour>
    <contour>
      <point x="227" y="646.999" type="line"/>
      <point x="256" y="645" type="line" smooth="yes"/>
      <point x="276" y="644"/>
      <point x="281" y="585"/>
      <point x="257" y="585" type="curve" smooth="yes"/>
      <point x="230" y="585.999" type="line"/>
    </contour>
    <contour>
      <point x="232" y="550" type="line"/>
      <point x="255" y="550" type="line" smooth="yes"/>
      <point x="277" y="550"/>
      <point x="283" y="493"/>
      <point x="259" y="486" type="curve" smooth="yes"/>
      <point x="236" y="480" type="line"/>
    </contour>
  </outline>
</glyph>
<glyph name="numbersign" format="2">
  <advance width="743"/>
  <unicode hex="0023"/>
  <outline>
    <contour>
      <point x="284" y="695" type="curve" smooth="yes"/>
      <point x="117" y="20.005" type="line" smooth="yes"/>
      <point x="104.998" y="-28.996"/>
      <point x="171" y="-47"/>
      <point x="184" y="0" type="curve" smooth="yes"/>
      <point x="368" y="682" type="line" smooth="yes"/>
      <point x="380" y="724"/>
      <point x="298" y="754"/>
    </contour>
    <contour>
      <point x="549" y="667" type="curve" smooth="yes"/>
      <point x="387" y="25" type="line" smooth="yes"/>
      <point x="374" y="-25"/>
      <point x="453" y="-42"/>
      <point x="464" y="5" type="curve" smooth="yes"/>
      <point x="617" y="648" type="line" smooth="yes"/>
      <point x="628" y="695"/>
      <point x="560" y="710"/>
    </contour>
    <contour>
      <point x="121" y="496" type="line" smooth="yes"/>
      <point x="67" y="493"/>
      <point x="67" y="421"/>
      <point x="121" y="423" type="curve" smooth="yes"/>
      <point x="691.004" y="439.992" type="line" smooth="yes"/>
      <point x="748" y="442"/>
      <point x="749" y="526"/>
      <point x="691" y="523" type="curve" smooth="yes"/>
    </contour>
    <contour>
      <point x="54" y="269" type="line" smooth="yes"/>
      <point x="0" y="272"/>
      <point x="0" y="188"/>
      <point x="54" y="186" type="curve" smooth="yes"/>
      <point x="633" y="160" type="line" smooth="yes"/>
      <point x="690" y="158"/>
      <point x="691" y="230"/>
      <point x="633" y="233" type="curve" smooth="yes"/>
    </contour>
  </outline>
</glyph>
<glyph name="dollar" format="2">
  <advance width="464"/>
  <unicode hex="0024"/>
  <outline>
    <contour>
      <point x="223" y="26" type="curve" smooth="yes"/>
      <point x="349" y="26"/>
      <point x="438" y="76"/>
      <point x="438" y="210" type="curve" smooth="yes"/>
      <point x="438" y="307"/>
      <point x="386" y="350"/>
      <point x="298" y="378" type="curve" smooth="yes"/>
      <point x="231" y="402" type="line" smooth="yes"/>
      <point x="164" y="425"/>
      <point x="146" y="447"/>
      <point x="146" y="480" type="curve" smooth="yes"/>
      <point x="146" y="521"/>
      <point x="175" y="545"/>
      <point x="231" y="545" type="curve" smooth="yes"/>
      <point x="297" y="545"/>
      <point x="321" y="515"/>
      <point x="367" y="515" type="curve" smooth="yes"/>
      <point x="405" y="515"/>
      <point x="423" y="539"/>
      <point x="423" y="576" type="curve" smooth="yes"/>
      <point x="422.995" y="636.995"/>
      <point x="341" y="677"/>
      <point x="263" y="677" type="curve" smooth="yes"/>
      <point x="142" y="677"/>
      <point x="36" y="611"/>
      <point x="36" y="484" type="curve" smooth="yes"/>
      <point x="36" y="384"/>
      <point x="102.002" y="343.009"/>
      <point x="186" y="322" type="curve" smooth="yes"/>
      <point x="290" y="292" type="line" smooth="yes"/>
      <point x="345" y="278"/>
      <point x="369" y="255"/>
      <point x="369" y="221" type="curve" smooth="yes"/>
      <point x="369" y="169"/>
      <point x="315" y="146"/>
      <point x="252" y="146" type="curve" smooth="yes"/>
      <point x="172" y="146"/>
      <point x="123" y="193"/>
      <point x="82" y="193" type="curve" smooth="yes"/>
      <point x="54" y="193"/>
      <point x="33" y="172"/>
      <point x="33" y="139" type="curve" smooth="yes"/>
      <point x="33" y="74"/>
      <point x="131" y="26"/>
    </contour>
    <contour>
      <point x="302" y="490" type="curve" smooth="yes"/>
      <point x="338" y="730" type="line" smooth="yes"/>
      <point x="344" y="771"/>
      <point x="282" y="781"/>
      <point x="277" y="739" type="curve" smooth="yes"/>
      <point x="242" y="500" type="line" smooth="yes"/>
      <point x="235" y="454"/>
      <point x="296" y="445"/>
    </contour>
    <contour>
      <point x="202" y="198" type="curve" smooth="yes"/>
      <point x="163" y="-55" type="line" smooth="yes"/>
      <point x="155" y="-102"/>
      <point x="223" y="-110"/>
      <point x="229" y="-63" type="curve" smooth="yes"/>
      <point x="266" y="190" type="line" smooth="yes"/>
      <point x="272" y="236"/>
      <point x="208" y="244"/>
    </contour>
    <contour>
      <point x="125" y="539" type="curve" smooth="yes"/>
      <point x="116" y="539"/>
      <point x="108" y="547"/>
      <point x="108" y="556" type="curve" smooth="yes"/>
      <point x="108" y="565"/>
      <point x="116" y="573"/>
      <point x="125" y="573" type="curve" smooth="yes"/>
      <point x="134.008" y="572.996"/>
      <point x="142" y="565.004"/>
      <point x="142" y="556" type="curve" smooth="yes"/>
      <point x="142" y="547"/>
      <point x="134" y="539"/>
    </contour>
    <contour>
      <point x="106" y="455" type="curve" smooth="yes"/>
      <point x="97" y="455"/>
      <point x="89" y="463"/>
      <point x="89" y="472" type="curve" smooth="yes"/>
      <point x="89" y="481"/>
      <point x="97" y="489"/>
      <point x="106" y="489" type="curve" smooth="yes"/>
      <point x="115" y="489"/>
      <point x="123" y="481"/>
      <point x="123" y="472" type="curve" smooth="yes"/>
      <point x="123" y="463"/>
      <point x="115" y="455"/>
    </contour>
    <contour>
      <point x="247" y="147" type="line" smooth="yes"/>
      <point x="261" y="115"/>
      <point x="309" y="136"/>
      <point x="296" y="170" type="curve" smooth="yes"/>
      <point x="271" y="233" type="line" smooth="yes"/>
      <point x="260" y="262"/>
      <point x="211" y="238"/>
      <point x="223" y="210" type="curve" smooth="yes"/>
    </contour>
    <contour>
      <point x="70" y="57" type="line" smooth="yes"/>
      <point x="51" y="14"/>
      <point x="97" y="-9"/>
      <point x="118" y="33" type="curve" smooth="yes"/>
      <point x="146" y="93" type="line"/>
      <point x="98" y="123" type="line"/>
    </contour>
  </outline>
</glyph>
<glyph name="percent" format="2">
  <advance width="674"/>
  <unicode hex="0025"/>
  <outline>
    <contour>
      <point x="156.005" y="386" type="curve" smooth="yes"/>
      <point x="245.001" y="386"/>
      <point x="292.999" y="439.001"/>
      <point x="293" y="546" type="curve" smooth="yes"/>
      <point x="292.999" y="652.004"/>
      <point x="249" y="706"/>
      <point x="167" y="706" type="curve" smooth="yes"/>
      <point x="78" y="706"/>
      <point x="30" y="651.005"/>
      <point x="30" y="542.006" type="curve" smooth="yes"/>
      <point x="30" y="438"/>
      <point x="72" y="386"/>
    </contour>
    <contour>
      <point x="163" y="467" type="curve" smooth="yes"/>
      <point x="117" y="467"/>
      <point x="96" y="495"/>
      <point x="96" y="544" type="curve" smooth="yes"/>
      <point x="96" y="599"/>
      <point x="118" y="630"/>
      <point x="163" y="630" type="curve" smooth="yes"/>
      <point x="210" y="630"/>
      <point x="232" y="600"/>
      <point x="232" y="548" type="curve" smooth="yes"/>
      <point x="232" y="496"/>
      <point x="210" y="467"/>
    </contour>
    <contour>
      <point x="590" y="652" type="curve" smooth="yes"/>
      <point x="52" y="111" type="line" smooth="yes"/>
      <point x="16" y="75"/>
      <point x="60" y="25"/>
      <point x="97" y="60" type="curve" smooth="yes"/>
      <point x="637" y="595" type="line" smooth="yes"/>
      <point x="681" y="638"/>
      <point x="631" y="691"/>
    </contour>
    <contour>
      <point x="490" y="-14" type="curve" smooth="yes"/>
      <point x="581" y="-14"/>
      <point x="630" y="37"/>
      <point x="630" y="138" type="curve" smooth="yes"/>
      <point x="630" y="252"/>
      <point x="585" y="309"/>
      <point x="506" y="309" type="curve" smooth="yes"/>
      <point x="419" y="309"/>
      <point x="366" y="253"/>
      <point x="366" y="141" type="curve" smooth="yes"/>
      <point x="366" y="38"/>
      <point x="412" y="-14"/>
    </contour>
    <contour>
      <point x="493" y="65" type="curve" smooth="yes"/>
      <point x="446" y="65"/>
      <point x="423" y="93"/>
      <point x="423" y="144" type="curve" smooth="yes"/>
      <point x="423" y="193"/>
      <point x="445" y="220"/>
      <point x="490" y="220" type="curve" smooth="yes"/>
      <point x="546" y="220"/>
      <point x="572" y="189"/>
      <point x="572" y="134" type="curve" smooth="yes"/>
      <point x="572" y="90"/>
      <point x="547" y="65"/>
    </contour>
    <contour>
      <point x="537" y="-33" type="line" smooth="yes"/>
      <point x="556" y="-71"/>
      <point x="608" y="-56"/>
      <point x="591" y="-12" type="curve" smooth="yes"/>
      <point x="566" y="61" type="line"/>
      <point x="510" y="34" type="line"/>
    </contour>
    <contour>
      <point x="376" y="39" type="line" smooth="yes"/>
      <point x="357" y="13"/>
      <point x="403" y="-29"/>
      <point x="426" y="-1" type="curve" smooth="yes"/>
      <point x="454" y="35" type="line"/>
      <point x="404" y="77" type="line"/>
    </contour>
    <contour>
      <point x="151" y="713" type="line" smooth="yes"/>
      <point x="142" y="753"/>
      <point x="63" y="734"/>
      <point x="82" y="691" type="curve" smooth="yes"/>
      <point x="105" y="632" type="line"/>
      <point x="163" y="656" type="line"/>
    </contour>
    <contour>
      <point x="334" y="608" type="line" smooth="yes"/>
      <point x="364" y="625"/>
      <point x="338" y="683"/>
      <point x="305" y="667" type="curve" smooth="yes"/>
      <point x="228" y="633" type="line"/>
      <point x="262" y="570" type="line"/>
    </contour>
    <contour>
      <point x="60" y="405" type="line" smooth="yes"/>
      <point x="41" y="375"/>
      <point x="99" y="336"/>
      <point x="121" y="370" type="curve" smooth="yes"/>
      <point x="155.004" y="423.994" type="line"/>
      <point x="90.004" y="463.994" type="line"/>
    </contour>
  </outline>
</glyph>
<glyph name="ampersand" format="2">
  <advance width="560"/>
  <unicode hex="0026"/>
  <outline>
    <contour>
      <point x="245.003" y="-18.995" type="curve" smooth="yes"/>
      <point x="387.009" y="-18.995"/>
      <point x="496" y="35"/>
      <point x="478" y="182" type="curve" smooth="yes"/>
      <point x="470" y="268" type="line" smooth="yes"/>
      <point x="467" y="295"/>
      <point x="474" y="308"/>
      <point x="493" y="309" type="curve" smooth="yes"/>
      <point x="509" y="310" type="line" smooth="yes"/>
      <point x="582" y="315"/>
      <point x="570" y="457"/>
      <point x="487" y="440" type="curve" smooth="yes"/>
      <point x="234" y="414" type="line" smooth="yes"/>
      <point x="168" y="403"/>
      <point x="148" y="434"/>
      <point x="148" y="482" type="curve" smooth="yes"/>
      <point x="148" y="532"/>
      <point x="178" y="562"/>
      <point x="262" y="562" type="curve" smooth="yes"/>
      <point x="330" y="562"/>
      <point x="365" y="555"/>
      <point x="396" y="563" type="curve" smooth="yes"/>
      <point x="433" y="571"/>
      <point x="450" y="606"/>
      <point x="445" y="640" type="curve" smooth="yes"/>
      <point x="438" y="693"/>
      <point x="377" y="712"/>
      <point x="299" y="712" type="curve" smooth="yes"/>
      <point x="177" y="712"/>
      <point x="78" y="642"/>
      <point x="78" y="503" type="curve" smooth="yes"/>
      <point x="78" y="434"/>
      <point x="102" y="391"/>
      <point x="145" y="369" type="curve" smooth="yes"/>
      <point x="161" y="362"/>
      <point x="162" y="346"/>
      <point x="144" y="341" type="curve" smooth="yes"/>
      <point x="77" y="319"/>
      <point x="33" y="261"/>
      <point x="33" y="170" type="curve" smooth="yes"/>
      <point x="33" y="48"/>
      <point x="100" y="-19"/>
    </contour>
    <contour>
      <point x="273" y="61" type="curve" smooth="yes"/>
      <point x="196" y="61"/>
      <point x="140" y="132"/>
      <point x="140" y="214" type="curve" smooth="yes"/>
      <point x="140" y="270"/>
      <point x="172" y="309"/>
      <point x="226" y="309" type="curve" smooth="yes"/>
      <point x="282" y="309" type="line" smooth="yes"/>
      <point x="318" y="309"/>
      <point x="335" y="295"/>
      <point x="339" y="266" type="curve" smooth="yes"/>
      <point x="350" y="167" type="line" smooth="yes"/>
      <point x="357" y="94"/>
      <point x="338" y="61"/>
    </contour>
    <contour>
      <point x="90" y="202" type="curve" smooth="yes"/>
      <point x="81" y="202"/>
      <point x="74" y="209"/>
      <point x="74" y="217" type="curve" smooth="yes"/>
      <point x="74" y="226"/>
      <point x="81" y="233"/>
      <point x="90" y="233" type="curve" smooth="yes"/>
      <point x="98" y="233"/>
      <point x="105" y="226"/>
      <point x="105" y="217" type="curve" smooth="yes"/>
      <point x="105" y="209"/>
      <point x="98" y="202"/>
    </contour>
    <contour>
      <point x="94" y="123" type="curve" smooth="yes"/>
      <point x="84" y="123"/>
      <point x="75" y="132"/>
      <point x="75" y="142" type="curve" smooth="yes"/>
      <point x="75" y="152"/>
      <point x="84" y="160"/>
      <point x="94" y="160" type="curve" smooth="yes"/>
      <point x="104" y="160"/>
      <point x="112" y="152"/>
      <point x="112" y="142" type="curve" smooth="yes"/>
      <point x="112" y="132"/>
      <point x="104" y="123"/>
    </contour>
    <contour>
      <point x="152" y="33" type="curve" smooth="yes"/>
      <point x="143" y="33"/>
      <point x="136" y="40"/>
      <point x="136" y="48" type="curve" smooth="yes"/>
      <point x="136" y="57"/>
      <point x="143" y="64"/>
      <point x="152" y="64" type="curve" smooth="yes"/>
      <point x="161" y="64"/>
      <point x="168" y="57"/>
      <point x="168" y="48" type="curve" smooth="yes"/>
      <point x="168" y="40"/>
      <point x="161" y="33"/>
    </contour>
    <contour>
      <point x="289" y="391" type="curve" smooth="yes"/>
      <point x="288" y="418" type="line"/>
      <point x="336" y="424" type="line"/>
      <point x="339" y="394" type="line" smooth="yes"/>
      <point x="341.997" y="372.997"/>
      <point x="290" y="370"/>
    </contour>
    <contour>
      <point x="391" y="388" type="curve" smooth="yes"/>
      <point x="377" y="429" type="line"/>
      <point x="427" y="436" type="line"/>
      <point x="437" y="393" type="line" smooth="yes"/>
      <point x="441.995" y="375.994"/>
      <point x="397" y="371"/>
    </contour>
  </outline>
</glyph>
<glyph name="quotesingle" format="2">
  <advance width="205"/>
  <unicode hex="0027"/>
  <outline>
    <contour>
      <point x="59.999" y="414" type="line" smooth="yes"/>
      <point x="63.998" y="361"/>
      <point x="138" y="363"/>
      <point x="144" y="416" type="curve" smooth="yes"/>
      <point x="167.994" y="655.004" type="line" smooth="yes"/>
      <point x="178" y="749"/>
      <point x="33" y="751"/>
      <point x="41.004" y="653.004" type="curve" smooth="yes"/>
    </contour>
    <contour>
      <point x="44" y="621" type="line"/>
      <point x="68" y="624" type="line" smooth="yes"/>
      <point x="91" y="616"/>
      <point x="97" y="567"/>
      <point x="70" y="557" type="curve" smooth="yes"/>
      <point x="49" y="558" type="line"/>
    </contour>
  </outline>
</glyph>
<glyph name="parenleft" format="2">
  <advance width="350"/>
  <unicode hex="0028"/>
  <outline>
    <contour>
      <point x="50" y="341" type="curve" smooth="yes"/>
      <point x="50" y="69"/>
      <point x="162" y="-101"/>
      <point x="281" y="-155" type="curve" smooth="yes"/>
      <point x="325" y="-176"/>
      <point x="359" y="-117"/>
      <point x="322" y="-87" type="curve" smooth="yes"/>
      <point x="224" y="6"/>
      <point x="167" y="123"/>
      <point x="167" y="340" type="curve" smooth="yes"/>
      <point x="167" y="545"/>
      <point x="245" y="651"/>
      <point x="333" y="737" type="curve" smooth="yes"/>
      <point x="384" y="776"/>
      <point x="327" y="873"/>
      <point x="266" y="829" type="curve" smooth="yes"/>
      <point x="158" y="768"/>
      <point x="50" y="609"/>
    </contour>
    <contour>
      <point x="83" y="80" type="line" smooth="yes"/>
      <point x="46" y="61"/>
      <point x="78" y="-4"/>
      <point x="117" y="15" type="curve" smooth="yes"/>
      <point x="238" y="75" type="line" smooth="yes"/>
      <point x="273" y="92"/>
      <point x="242" y="164"/>
      <point x="201" y="143" type="curve" smooth="yes"/>
    </contour>
  </outline>
</glyph>
<glyph name="parenright" format="2">
  <advance width="354"/>
  <unicode hex="0029"/>
  <outline>
    <contour>
      <point x="300" y="344" type="curve" smooth="yes"/>
      <point x="300" y="617"/>
      <point x="184" y="776"/>
      <point x="63" y="841" type="curve" smooth="yes"/>
      <point x="19.994" y="867.997"/>
      <point x="-17" y="812"/>
      <point x="18" y="780" type="curve" smooth="yes"/>
      <point x="127" y="671"/>
      <point x="176" y="554"/>
      <point x="176" y="335" type="curve" smooth="yes"/>
      <point x="176" y="131"/>
      <point x="114" y="25"/>
      <point x="25" y="-63" type="curve" smooth="yes"/>
      <point x="-25" y="-102"/>
      <point x="28" y="-190"/>
      <point x="86" y="-150" type="curve" smooth="yes"/>
      <point x="194" y="-88"/>
      <point x="300" y="72"/>
    </contour>
    <contour>
      <point x="130" y="546" type="line" smooth="yes"/>
      <point x="89" y="532"/>
      <point x="112" y="454"/>
      <point x="154" y="470" type="curve" smooth="yes"/>
      <point x="280" y="516" type="line" smooth="yes"/>
      <point x="316" y="530"/>
      <point x="297" y="601"/>
      <point x="261" y="588" type="curve" smooth="yes"/>
    </contour>
    <contour>
      <point x="153" y="334" type="line" smooth="yes"/>
      <point x="110" y="338"/>
      <point x="101" y="266"/>
      <point x="147" y="259" type="curve" smooth="yes"/>
      <point x="251" y="245" type="line"/>
      <point x="261" y="324" type="line"/>
    </contour>
  </outline>
</glyph>
<glyph name="asterisk" format="2">
  <advance width="512"/>
  <unicode hex="002A"/>
  <outline>
    <contour>
      <point x="131" y="595" type="curve" smooth="yes"/>
      <point x="220" y="521" type="line" smooth="yes"/>
      <point x="226" y="513"/>
      <point x="222" y="505"/>
      <point x="212" y="504" type="curve" smooth="yes"/>
      <point x="128" y="496" type="line" smooth="yes"/>
      <point x="78" y="484"/>
      <point x="111" y="410"/>
      <point x="149" y="429" type="curve" smooth="yes"/>
      <point x="226" y="456" type="line" smooth="yes"/>
      <point x="234" y="459"/>
      <point x="240" y="451"/>
      <point x="238" y="442" type="curve" smooth="yes"/>
      <point x="230" y="325" type="line" smooth="yes"/>
      <point x="226" y="274"/>
      <point x="319" y="280"/>
      <point x="310" y="328" type="curve" smooth="yes"/>
      <point x="288" y="437" type="line" smooth="yes"/>
      <point x="289" y="447"/>
      <point x="298" y="452"/>
      <point x="307" y="447" type="curve" smooth="yes"/>
      <point x="398" y="406" type="line" smooth="yes"/>
      <point x="437" y="388"/>
      <point x="464" y="462"/>
      <point x="420" y="472" type="curve" smooth="yes"/>
      <point x="326" y="494" type="line" smooth="yes"/>
      <point x="319" y="498"/>
      <point x="318" y="508"/>
      <point x="325" y="514" type="curve" smooth="yes"/>
      <point x="389" y="607" type="line" smooth="yes"/>
      <point x="417" y="638"/>
      <point x="346" y="681"/>
      <point x="328" y="636" type="curve" smooth="yes"/>
      <point x="286" y="544" type="line" smooth="yes"/>
      <point x="280" y="538"/>
      <point x="272" y="539"/>
      <point x="269" y="546" type="curve" smooth="yes"/>
      <point x="181" y="639" type="line" smooth="yes"/>
      <point x="155" y="675"/>
      <point x="98" y="626"/>
    </contour>
  </outline>
</glyph>
<glyph name="plus" format="2">
  <advance width="413"/>
  <unicode hex="002B"/>
  <outline>
    <contour>
      <point x="155" y="157" type="line" smooth="yes"/>
      <point x="153" y="110"/>
      <point x="228" y="109"/>
      <point x="230" y="157" type="curve" smooth="yes"/>
      <point x="233" y="258" type="line" smooth="yes"/>
      <point x="233" y="274"/>
      <point x="240" y="281"/>
      <point x="255" y="282" type="curve" smooth="yes"/>
      <point x="358" y="286" type="line" smooth="yes"/>
      <point x="405" y="287"/>
      <point x="404" y="365"/>
      <point x="356" y="362" type="curve" smooth="yes"/>
      <point x="257" y="355" type="line" smooth="yes"/>
      <point x="242" y="354"/>
      <point x="236" y="362"/>
      <point x="236" y="378" type="curve" smooth="yes"/>
      <point x="240" y="486" type="line" smooth="yes"/>
      <point x="241" y="530.001"/>
      <point x="179" y="531"/>
      <point x="176" y="487" type="curve" smooth="yes"/>
      <point x="167" y="372" type="line" smooth="yes"/>
      <point x="166" y="355"/>
      <point x="161" y="347"/>
      <point x="145" y="346" type="curve" smooth="yes"/>
      <point x="52" y="338" type="line" smooth="yes"/>
      <point x="8" y="334"/>
      <point x="10" y="275"/>
      <point x="54" y="277" type="curve" smooth="yes"/>
      <point x="141" y="280" type="line" smooth="yes"/>
      <point x="157" y="280"/>
      <point x="162" y="272"/>
      <point x="161" y="255" type="curve" smooth="yes"/>
    </contour>
  </outline>
</glyph>
<glyph name="comma" format="2">
  <advance width="261"/>
  <unicode hex="002C"/>
  <outline>
    <contour>
      <point x="24" y="-162" type="curve" smooth="yes"/>
      <point x="-5" y="-194"/>
      <point x="41" y="-236"/>
      <point x="75" y="-202" type="curve" smooth="yes"/>
      <point x="139" y="-136"/>
      <point x="216" y="-28"/>
      <point x="216" y="55" type="curve" smooth="yes"/>
      <point x="216" y="111.998"/>
      <point x="179" y="149.997"/>
      <point x="131" y="150" type="curve" smooth="yes"/>
      <point x="84" y="150"/>
      <point x="50" y="120"/>
      <point x="50" y="76" type="curve" smooth="yes"/>
      <point x="50" y="46"/>
      <point x="64" y="24"/>
      <point x="91" y="14" type="curve" smooth="yes"/>
      <point x="113" y="6"/>
      <point x="121" y="-10"/>
      <point x="113" y="-31" type="curve" smooth="yes"/>
      <point x="100" y="-69"/>
      <point x="61.996" y="-119.996"/>
    </contour>
    <contour>
      <point x="146" y="-24" type="line"/>
      <point x="123" y="-77" type="line"/>
      <point x="171" y="-90" type="line" smooth="yes"/>
      <point x="207" y="-100"/>
      <point x="223" y="-50"/>
      <point x="188" y="-38" type="curve" smooth="yes"/>
    </contour>
    <contour>
      <point x="73" y="-79" type="line" smooth="yes"/>
      <point x="41" y="-60"/>
      <point x="12" y="-108"/>
      <point x="44" y="-129" type="curve" smooth="yes"/>
      <point x="124" y="-178" type="line" smooth="yes"/>
      <point x="154" y="-198"/>
      <point x="186" y="-140"/>
      <point x="154" y="-121" type="curve" smooth="yes"/>
    </contour>
    <contour>
      <point x="115" y="-121" type="line" smooth="yes"/>
      <point x="133" y="-129"/>
      <point x="148" y="-96"/>
      <point x="132" y="-88" type="curve" smooth="yes"/>
      <point x="115" y="-80" type="line" smooth="yes"/>
      <point x="99" y="-72"/>
      <point x="80" y="-105"/>
      <point x="100" y="-114" type="curve" smooth="yes"/>
    </contour>
  </outline>
</glyph>
<glyph name="hyphen" format="2">
  <advance width="333"/>
  <unicode hex="002D"/>
  <outline>
    <contour>
      <point x="68" y="368" type="line" smooth="yes"/>
      <point x="16" y="365"/>
      <point x="19" y="293"/>
      <point x="70" y="289" type="curve" smooth="yes"/>
      <point x="254" y="277" type="line" smooth="yes"/>
      <point x="317" y="272"/>
      <point x="318" y="379"/>
      <point x="258.002" y="376" type="curve" smooth="yes"/>
    </contour>
  </outline>
</glyph>
<glyph name="period" format="2">
  <advance width="271"/>
  <unicode hex="002E"/>
  <outline>
    <contour>
      <point x="134" y="-19" type="curve" smooth="yes"/>
      <point x="184.994" y="-19"/>
      <point x="226" y="22"/>
      <point x="226" y="74" type="curve" smooth="yes"/>
      <point x="226" y="127"/>
      <point x="189" y="170"/>
      <point x="137" y="170" type="curve" smooth="yes"/>
      <point x="86" y="170"/>
      <point x="45" y="129"/>
      <point x="45" y="79" type="curve" smooth="yes"/>
      <point x="45" y="21"/>
      <point x="83" y="-19"/>
    </contour>
    <contour>
      <point x="142" y="49" type="curve" smooth="yes"/>
      <point x="131" y="49"/>
      <point x="122" y="58"/>
      <point x="122" y="69" type="curve" smooth="yes"/>
      <point x="122" y="80"/>
      <point x="131" y="89"/>
      <point x="142" y="89" type="curve" smooth="yes"/>
      <point x="153" y="89"/>
      <point x="163" y="80"/>
      <point x="163" y="69" type="curve" smooth="yes"/>
      <point x="163" y="58"/>
      <point x="153" y="49"/>
    </contour>
  </outline>
</glyph>
<glyph name="slash" format="2">
  <advance width="400"/>
  <unicode hex="002F"/>
  <outline>
    <contour>
      <point x="323.007" y="821.001" type="curve" smooth="yes"/>
      <point x="8" y="-80" type="line" smooth="yes"/>
      <point x="-12" y="-138"/>
      <point x="68" y="-163"/>
      <point x="86" y="-111" type="curve" smooth="yes"/>
      <point x="393.008" y="800" type="line" smooth="yes"/>
      <point x="408" y="842"/>
      <point x="338" y="864"/>
    </contour>
  </outline>
</glyph>
<glyph name="zero" format="2">
  <advance width="619"/>
  <unicode hex="0030"/>
  <outline>
    <contour>
      <point x="297.996" y="-14" type="curve" smooth="yes"/>
      <point x="475" y="-14"/>
      <point x="580" y="113"/>
      <point x="580" y="343" type="curve" smooth="yes"/>
      <point x="580" y="598"/>
      <point x="476" y="714"/>
      <point x="312" y="714" type="curve" smooth="yes"/>
      <point x="143" y="714"/>
      <point x="38" y="586"/>
      <point x="38" y="316" type="curve" smooth="yes"/>
      <point x="37.997" y="104.995"/>
      <point x="127" y="-14"/>
    </contour>
    <contour>
      <point x="306" y="572" type="curve" smooth="yes"/>
      <point x="395" y="572"/>
      <point x="461" y="512"/>
      <point x="461" y="403" type="curve" smooth="yes"/>
      <point x="461" y="246"/>
      <point x="392" y="80"/>
      <point x="261" y="80" type="curve" smooth="yes"/>
      <point x="161" y="80"/>
      <point x="111" y="166"/>
      <point x="111" y="316" type="curve" smooth="yes"/>
      <point x="111" y="444"/>
      <point x="178" y="572"/>
    </contour>
    <contour>
      <point x="291" y="431" type="curve" smooth="yes"/>
      <point x="319" y="431"/>
      <point x="341" y="453"/>
      <point x="341" y="481" type="curve" smooth="yes"/>
      <point x="341" y="508"/>
      <point x="319" y="531"/>
      <point x="291" y="531" type="curve" smooth="yes"/>
      <point x="264" y="531"/>
      <point x="241" y="508"/>
      <point x="241" y="481" type="curve" smooth="yes"/>
      <point x="241" y="453"/>
      <point x="264" y="431"/>
    </contour>
    <contour>
      <point x="424" y="210" type="curve"/>
      <point x="463.003" y="176.009" type="line" smooth="yes"/>
      <point x="478" y="150"/>
      <point x="451" y="118"/>
      <point x="427" y="120" type="curve" smooth="yes"/>
      <point x="389" y="146" type="line"/>
      <point x="406" y="169"/>
      <point x="415" y="188"/>
    </contour>
    <contour>
      <point x="449" y="311" type="curve"/>
      <point x="493" y="295" type="line" smooth="yes"/>
      <point x="515" y="277"/>
      <point x="499" y="232"/>
      <point x="479" y="231" type="curve" smooth="yes"/>
      <point x="438" y="254" type="line"/>
      <point x="443" y="274"/>
      <point x="446" y="291"/>
    </contour>
    <contour>
      <point x="304" y="502" type="line" smooth="yes"/>
      <point x="266" y="530"/>
      <point x="235" y="467"/>
      <point x="261" y="450" type="curve" smooth="yes"/>
      <point x="354" y="391" type="line" smooth="yes"/>
      <point x="384" y="370"/>
      <point x="414" y="424"/>
      <point x="384" y="446" type="curve" smooth="yes"/>
    </contour>
    <contour>
      <point x="232" y="306" type="line" smooth="yes"/>
      <point x="191" y="268"/>
      <point x="249" y="218"/>
      <point x="276" y="246" type="curve" smooth="yes"/>
      <point x="361" y="330" type="line" smooth="yes"/>
      <point x="393" y="364"/>
      <point x="350" y="415"/>
      <point x="318" y="386" type="curve" smooth="yes"/>
    </contour>
    <contour>
      <point x="99.001" y="484" type="line" smooth="yes"/>
      <point x="73" y="495"/>
      <point x="56" y="441"/>
      <point x="79.002" y="434.009" type="curve" smooth="yes"/>
      <point x="99" y="428" type="line" smooth="yes"/>
      <point x="124" y="420"/>
      <point x="138" y="468"/>
      <point x="116.005" y="476.997" type="curve" smooth="yes"/>
    </contour>
    <contour>
      <point x="464" y="564" type="line" smooth="yes"/>
      <point x="482" y="582"/>
      <point x="452" y="615"/>
      <point x="434" y="595" type="curve" smooth="yes"/>
      <point x="424" y="584" type="line" smooth="yes"/>
      <point x="408" y="566"/>
      <point x="436" y="537"/>
      <point x="450" y="551" type="curve" smooth="yes"/>
    </contour>
    <contour>
      <point x="293" y="479" type="curve" smooth="yes"/>
      <point x="293" y="479"/>
      <point x="293" y="479"/>
      <point x="293" y="479" type="curve" smooth="yes"/>
      <point x="293" y="479"/>
      <point x="293" y="479"/>
      <point x="293" y="479" type="curve" smooth="yes"/>
      <point x="293" y="479"/>
      <point x="293" y="479"/>
      <point x="293" y="479" type="curve" smooth="yes"/>
      <point x="293" y="479"/>
      <point x="293" y="479"/>
    </contour>
    <contour>
      <point x="376" y="130" type="curve"/>
      <point x="376" y="130" type="line"/>
      <point x="365" y="118"/>
      <point x="355" y="111"/>
      <point x="343" y="103" type="curve"/>
      <point x="343" y="103" type="line"/>
      <point x="355" y="111"/>
      <point x="365" y="118"/>
    </contour>
  </outline>
</glyph>
<glyph name="one" format="2">
  <advance width="399"/>
  <unicode hex="0031"/>
  <outline>
    <contour>
      <point x="78" y="511" type="curve" smooth="yes"/>
      <point x="119" y="541" type="line" smooth="yes"/>
      <point x="156" y="568"/>
      <point x="181" y="560"/>
      <point x="176" y="511" type="curve" smooth="yes"/>
      <point x="130" y="81" type="line" smooth="yes"/>
      <point x="113" y="-60"/>
      <point x="352" y="-62"/>
      <point x="347" y="58" type="curve" smooth="yes"/>
      <point x="322" y="610" type="line" smooth="yes"/>
      <point x="318" y="722"/>
      <point x="262" y="735"/>
      <point x="183" y="679" type="curve" smooth="yes"/>
      <point x="44" y="570" type="line" smooth="yes"/>
      <point x="-7" y="534"/>
      <point x="41" y="482"/>
    </contour>
    <contour>
      <point x="342" y="154" type="line"/>
      <point x="344" y="95" type="line"/>
      <point x="307" y="77" type="line" smooth="yes"/>
      <point x="287" y="77"/>
      <point x="272" y="126"/>
      <point x="295" y="142" type="curve" smooth="yes"/>
    </contour>
    <contour>
      <point x="337" y="258" type="line"/>
      <point x="340" y="204" type="line"/>
      <point x="295" y="202" type="line" smooth="yes"/>
      <point x="276" y="210"/>
      <point x="275" y="246"/>
      <point x="295" y="256" type="curve" smooth="yes"/>
    </contour>
    <contour>
      <point x="333" y="351" type="line"/>
      <point x="335" y="302" type="line"/>
      <point x="335" y="302" type="line"/>
      <point x="335" y="302"/>
      <point x="333" y="351"/>
      <point x="333" y="351" type="curve"/>
    </contour>
  </outline>
</glyph>
<glyph name="two" format="2">
  <advance width="482"/>
  <unicode hex="0032"/>
  <outline>
    <contour>
      <point x="440" y="533" type="curve" smooth="yes"/>
      <point x="440" y="650"/>
      <point x="381.994" y="715"/>
      <point x="247" y="715" type="curve" smooth="yes"/>
      <point x="137.001" y="715"/>
      <point x="36" y="668"/>
      <point x="36" y="595" type="curve" smooth="yes"/>
      <point x="36" y="558"/>
      <point x="55" y="529"/>
      <point x="88" y="529" type="curve" smooth="yes"/>
      <point x="121" y="529"/>
      <point x="149" y="550"/>
      <point x="217" y="550" type="curve" smooth="yes"/>
      <point x="262" y="550"/>
      <point x="289" y="530"/>
      <point x="289" y="496" type="curve" smooth="yes"/>
      <point x="289" y="452"/>
      <point x="265" y="406"/>
      <point x="226" y="362" type="curve" smooth="yes"/>
      <point x="67" y="176" type="line" smooth="yes"/>
      <point x="-2" y="97"/>
      <point x="24" y="-16"/>
      <point x="129" y="-8" type="curve" smooth="yes"/>
      <point x="409" y="10" type="line" smooth="yes"/>
      <point x="488" y="13"/>
      <point x="483" y="166"/>
      <point x="400" y="160" type="curve" smooth="yes"/>
      <point x="198" y="130" type="line" smooth="yes"/>
      <point x="158" y="124"/>
      <point x="153" y="160"/>
      <point x="185" y="189" type="curve" smooth="yes"/>
      <point x="301" y="295" type="line" smooth="yes"/>
      <point x="391.009" y="376.996"/>
      <point x="440" y="442"/>
    </contour>
    <contour>
      <point x="297" y="636" type="curve" smooth="yes"/>
      <point x="288" y="636"/>
      <point x="280" y="644"/>
      <point x="280" y="653" type="curve" smooth="yes"/>
      <point x="280" y="662"/>
      <point x="288" y="669"/>
      <point x="297" y="669" type="curve" smooth="yes"/>
      <point x="306" y="669"/>
      <point x="314" y="662"/>
      <point x="314" y="653" type="curve" smooth="yes"/>
      <point x="314" y="644"/>
      <point x="306" y="636"/>
    </contour>
    <contour>
      <point x="247" y="565" type="curve" smooth="yes"/>
      <point x="235" y="565"/>
      <point x="226" y="574"/>
      <point x="226" y="585" type="curve" smooth="yes"/>
      <point x="226" y="596"/>
      <point x="235" y="605"/>
      <point x="247" y="605" type="curve" smooth="yes"/>
      <point x="258" y="605"/>
      <point x="267" y="596"/>
      <point x="267" y="585" type="curve" smooth="yes"/>
      <point x="267" y="574"/>
      <point x="258" y="565"/>
    </contour>
    <contour>
      <point x="353" y="476" type="curve" smooth="yes"/>
      <point x="343" y="476"/>
      <point x="335" y="484"/>
      <point x="335" y="494" type="curve" smooth="yes"/>
      <point x="335" y="504"/>
      <point x="343" y="512"/>
      <point x="353" y="512" type="curve" smooth="yes"/>
      <point x="363" y="512"/>
      <point x="371" y="504"/>
      <point x="371" y="494" type="curve" smooth="yes"/>
      <point x="371" y="484"/>
      <point x="363" y="476"/>
    </contour>
    <contour>
      <point x="244" y="371" type="line" smooth="yes"/>
      <point x="221" y="424"/>
      <point x="169" y="392"/>
      <point x="185" y="355" type="curve" smooth="yes"/>
      <point x="213" y="249" type="line" smooth="yes"/>
      <point x="230" y="211"/>
      <point x="281" y="232"/>
      <point x="262" y="278" type="curve" smooth="yes"/>
    </contour>
    <contour>
      <point x="254" y="106" type="line" smooth="yes"/>
      <point x="254" y="136"/>
      <point x="188" y="130"/>
      <point x="189" y="103" type="curve" smooth="yes"/>
      <point x="189" y="46" type="line" smooth="yes"/>
      <point x="190" y="13"/>
      <point x="252" y="16"/>
      <point x="253" y="59" type="curve" smooth="yes"/>
    </contour>
    <contour>
      <point x="311" y="92" type="line" smooth="yes"/>
      <point x="308" y="118"/>
      <point x="260" y="113"/>
      <point x="263" y="86" type="curve" smooth="yes"/>
      <point x="268" y="52" type="line" smooth="yes"/>
      <point x="270" y="25"/>
      <point x="319" y="29"/>
      <point x="316" y="59" type="curve" smooth="yes"/>
    </contour>
    <contour>
      <point x="248" y="344" type="line" smooth="yes"/>
      <point x="223" y="355"/>
      <point x="196" y="309"/>
      <point x="223" y="297" type="curve" smooth="yes"/>
      <point x="243" y="287" type="line" smooth="yes"/>
      <point x="265" y="277"/>
      <point x="293" y="324"/>
      <point x="265" y="336" type="curve" smooth="yes"/>
    </contour>
    <contour>
      <point x="302" y="523" type="curve" smooth="yes"/>
      <point x="313" y="523"/>
      <point x="321" y="531"/>
      <point x="321" y="542" type="curve" smooth="yes"/>
      <point x="321" y="553"/>
      <point x="313" y="561"/>
      <point x="302" y="561" type="curve" smooth="yes"/>
      <point x="292" y="561"/>
      <point x="283" y="553"/>
      <point x="283" y="542" type="curve" smooth="yes"/>
      <point x="283" y="531"/>
      <point x="292" y="523"/>
    </contour>
  </outline>
</glyph>
<glyph name="three" format="2">
  <advance width="489"/>
  <unicode hex="0033"/>
  <outline>
    <contour>
      <point x="202" y="-5" type="curve" smooth="yes"/>
      <point x="370" y="-5"/>
      <point x="451" y="85"/>
      <point x="451.002" y="226.997" type="curve" smooth="yes"/>
      <point x="451.002" y="320.003"/>
      <point x="390" y="376"/>
      <point x="281" y="391" type="curve" smooth="yes"/>
      <point x="262" y="393"/>
      <point x="251" y="402"/>
      <point x="270" y="419" type="curve" smooth="yes"/>
      <point x="421" y="563" type="line" smooth="yes"/>
      <point x="467" y="607"/>
      <point x="455" y="671"/>
      <point x="400" y="678" type="curve" smooth="yes"/>
      <point x="104" y="713" type="line" smooth="yes"/>
      <point x="21" y="728"/>
      <point x="4" y="594"/>
      <point x="82" y="590" type="curve" smooth="yes"/>
      <point x="233" y="584" type="line" smooth="yes"/>
      <point x="258" y="583"/>
      <point x="265" y="559"/>
      <point x="243" y="538" type="curve" smooth="yes"/>
      <point x="147" y="432" type="line" smooth="yes"/>
      <point x="110" y="394"/>
      <point x="123" y="348"/>
      <point x="171" y="344" type="curve" smooth="yes"/>
      <point x="247" y="342" type="line" smooth="yes"/>
      <point x="348" y="330"/>
      <point x="370" y="295"/>
      <point x="370" y="257" type="curve" smooth="yes"/>
      <point x="370" y="191"/>
      <point x="319" y="167"/>
      <point x="257" y="167" type="curve" smooth="yes"/>
      <point x="192" y="167"/>
      <point x="165" y="197"/>
      <point x="107" y="197" type="curve" smooth="yes"/>
      <point x="70" y="197"/>
      <point x="32" y="168"/>
      <point x="32" y="108" type="curve" smooth="yes"/>
      <point x="32.002" y="28.996"/>
      <point x="109" y="-5"/>
    </contour>
    <contour>
      <point x="223" y="87" type="curve" smooth="yes"/>
      <point x="212" y="87"/>
      <point x="203" y="96"/>
      <point x="203" y="108" type="curve" smooth="yes"/>
      <point x="203" y="119"/>
      <point x="212" y="128"/>
      <point x="223" y="128" type="curve" smooth="yes"/>
      <point x="235" y="128"/>
      <point x="244" y="119"/>
      <point x="244" y="108" type="curve" smooth="yes"/>
      <point x="244" y="96"/>
      <point x="235" y="87"/>
    </contour>
    <contour>
      <point x="287" y="58" type="curve" smooth="yes"/>
      <point x="276" y="58"/>
      <point x="268" y="66"/>
      <point x="268" y="77" type="curve" smooth="yes"/>
      <point x="268" y="87"/>
      <point x="276" y="95"/>
      <point x="287" y="95" type="curve" smooth="yes"/>
      <point x="297" y="95"/>
      <point x="305" y="87"/>
      <point x="305" y="77" type="curve" smooth="yes"/>
      <point x="305" y="66"/>
      <point x="297" y="58"/>
    </contour>
    <contour>
      <point x="156" y="709" type="line"/>
      <point x="210" y="702" type="line"/>
      <point x="196" y="660" type="line" smooth="yes"/>
      <point x="190" y="641"/>
      <point x="138" y="650"/>
      <point x="144" y="669" type="curve" smooth="yes"/>
    </contour>
    <contour>
      <point x="249" y="697" type="line"/>
      <point x="302" y="690" type="line"/>
      <point x="293" y="654" type="line" smooth="yes"/>
      <point x="289" y="635"/>
      <point x="237" y="642"/>
      <point x="241" y="661" type="curve" smooth="yes"/>
    </contour>
    <contour>
      <point x="393" y="140" type="curve" smooth="yes"/>
      <point x="403" y="140"/>
      <point x="413" y="150"/>
      <point x="413" y="161" type="curve" smooth="yes"/>
      <point x="413" y="171"/>
      <point x="403" y="181"/>
      <point x="393" y="181" type="curve" smooth="yes"/>
      <point x="382" y="181"/>
      <point x="372" y="171"/>
      <point x="372" y="161" type="curve" smooth="yes"/>
      <point x="372" y="150"/>
      <point x="382" y="140"/>
    </contour>
    <contour>
      <point x="188.999" y="158.997" type="line" smooth="yes"/>
      <point x="182" y="147"/>
      <point x="212" y="131.996"/>
      <point x="218" y="145" type="curve" smooth="yes"/>
      <point x="221" y="151" type="line" smooth="yes"/>
      <point x="226" y="163"/>
      <point x="199" y="177"/>
      <point x="192" y="164" type="curve" smooth="yes"/>
    </contour>
    <contour>
      <point x="90" y="644" type="line" smooth="yes"/>
      <point x="71" y="655"/>
      <point x="51" y="626"/>
      <point x="71" y="613" type="curve" smooth="yes"/>
      <point x="87" y="603" type="line" smooth="yes"/>
      <point x="103" y="593"/>
      <point x="124" y="623"/>
      <point x="105" y="635" type="curve" smooth="yes"/>
    </contour>
    <contour>
      <point x="365" y="317" type="line" smooth="yes"/>
      <point x="357" y="309"/>
      <point x="377" y="287"/>
      <point x="388" y="295" type="curve" smooth="yes"/>
      <point x="403" y="308" type="line" smooth="yes"/>
      <point x="415" y="317"/>
      <point x="390" y="343"/>
      <point x="377" y="330" type="curve" smooth="yes"/>
    </contour>
    <contour>
      <point x="331" y="575" type="line" smooth="yes"/>
      <point x="314" y="594"/>
      <point x="285" y="568"/>
      <point x="303" y="551" type="curve" smooth="yes"/>
      <point x="317" y="538" type="line" smooth="yes"/>
      <point x="332" y="523"/>
      <point x="356" y="548"/>
      <point x="343" y="563" type="curve" smooth="yes"/>
    </contour>
  </outline>
</glyph>
<glyph name="four" format="2">
  <advance width="569"/>
  <unicode hex="0034"/>
  <outline>
    <contour>
      <point x="129" y="150" type="curve" smooth="yes"/>
      <point x="528" y="171" type="line" smooth="yes"/>
      <point x="570" y="174"/>
      <point x="568" y="240"/>
      <point x="526" y="238" type="curve" smooth="yes"/>
      <point x="215" y="215" type="line" smooth="yes"/>
      <point x="185" y="213"/>
      <point x="175" y="239"/>
      <point x="197" y="266" type="curve" smooth="yes"/>
      <point x="359" y="449" type="line" smooth="yes"/>
      <point x="382" y="477"/>
      <point x="408" y="465"/>
      <point x="407" y="432" type="curve" smooth="yes"/>
      <point x="391" y="-11" type="line" smooth="yes"/>
      <point x="389" y="-56"/>
      <point x="458" y="-57"/>
      <point x="459" y="-10" type="curve" smooth="yes"/>
      <point x="479" y="610" type="line" smooth="yes"/>
      <point x="483" y="746"/>
      <point x="295" y="769"/>
      <point x="239" y="661" type="curve" smooth="yes"/>
      <point x="52" y="301" type="line" smooth="yes"/>
      <point x="11" y="223"/>
      <point x="44" y="145"/>
    </contour>
    <contour>
      <point x="470" y="106" type="line" smooth="yes"/>
      <point x="518" y="105"/>
      <point x="512" y="172"/>
      <point x="470" y="169" type="curve" smooth="yes"/>
      <point x="373" y="162" type="line" smooth="yes"/>
      <point x="336" y="158"/>
      <point x="337" y="101"/>
      <point x="378" y="101" type="curve" smooth="yes"/>
    </contour>
    <contour>
      <point x="194" y="575" type="line"/>
      <point x="226" y="636" type="line"/>
      <point x="271" y="609" type="line" smooth="yes"/>
      <point x="287" y="598"/>
      <point x="258" y="540"/>
      <point x="239" y="550" type="curve" smooth="yes"/>
    </contour>
    <contour>
      <point x="127" y="447" type="line"/>
      <point x="161" y="512" type="line"/>
      <point x="196" y="497" type="line" smooth="yes"/>
      <point x="220" y="487"/>
      <point x="187" y="424"/>
      <point x="167" y="432" type="curve" smooth="yes"/>
    </contour>
    <contour>
      <point x="173" y="276" type="line" smooth="yes"/>
      <point x="198" y="273"/>
      <point x="200" y="309"/>
      <point x="177" y="311" type="curve" smooth="yes"/>
      <point x="166" y="312" type="line" smooth="yes"/>
      <point x="149" y="314"/>
      <point x="144" y="280"/>
      <point x="165" y="277" type="curve" smooth="yes"/>
    </contour>
    <contour>
      <point x="445" y="301" type="line" smooth="yes"/>
      <point x="469" y="301"/>
      <point x="468" y="352"/>
      <point x="445" y="349" type="curve" smooth="yes"/>
      <point x="429" y="347" type="line" smooth="yes"/>
      <point x="409" y="345"/>
      <point x="412" y="301"/>
      <point x="432" y="301" type="curve" smooth="yes"/>
    </contour>
    <contour>
      <point x="445" y="394" type="line" smooth="yes"/>
      <point x="471" y="392"/>
      <point x="475" y="442"/>
      <point x="452" y="442" type="curve" smooth="yes"/>
      <point x="429" y="442" type="line"/>
      <point x="424" y="396" type="line"/>
    </contour>
    <contour>
      <point x="308" y="387" type="line"/>
      <point x="273" y="341" type="line"/>
      <point x="273" y="341" type="line"/>
      <point x="273" y="341"/>
      <point x="308" y="387"/>
      <point x="308" y="387" type="curve"/>
    </contour>
  </outline>
</glyph>
<glyph name="five" format="2">
  <advance width="469"/>
  <unicode hex="0035"/>
  <outline>
    <contour>
      <point x="46" y="399" type="line" smooth="yes"/>
      <point x="51" y="339"/>
      <point x="83" y="315"/>
      <point x="131" y="319" type="curve" smooth="yes"/>
      <point x="255" y="324" type="line" smooth="yes"/>
      <point x="343" y="330"/>
      <point x="371" y="293"/>
      <point x="371" y="239.006" type="curve" smooth="yes"/>
      <point x="371" y="169"/>
      <point x="321" y="124"/>
      <point x="239" y="124" type="curve" smooth="yes"/>
      <point x="160" y="124"/>
      <point x="118" y="155"/>
      <point x="83" y="155" type="curve" smooth="yes"/>
      <point x="54" y="155"/>
      <point x="33" y="134"/>
      <point x="33" y="91" type="curve" smooth="yes"/>
      <point x="33" y="21"/>
      <point x="129" y="-10"/>
      <point x="219" y="-10" type="curve" smooth="yes"/>
      <point x="369" y="-10"/>
      <point x="448" y="69"/>
      <point x="448" y="215" type="curve" smooth="yes"/>
      <point x="448" y="336"/>
      <point x="390" y="402"/>
      <point x="269" y="395" type="curve" smooth="yes"/>
      <point x="185" y="393" type="line" smooth="yes"/>
      <point x="167" y="391"/>
      <point x="160" y="404"/>
      <point x="165" y="427" type="curve" smooth="yes"/>
      <point x="185" y="523" type="line" smooth="yes"/>
      <point x="190" y="548"/>
      <point x="205" y="559"/>
      <point x="232" y="561" type="curve" smooth="yes"/>
      <point x="357" y="567" type="line" smooth="yes"/>
      <point x="440" y="571"/>
      <point x="437" y="705"/>
      <point x="355" y="702" type="curve" smooth="yes"/>
      <point x="137" y="683" type="line" smooth="yes"/>
      <point x="82" y="679"/>
      <point x="51" y="654"/>
      <point x="54" y="588" type="curve" smooth="yes"/>
    </contour>
    <contour>
      <point x="154" y="560" type="curve" smooth="yes"/>
      <point x="143" y="560"/>
      <point x="134" y="569"/>
      <point x="134" y="580" type="curve" smooth="yes"/>
      <point x="134" y="591"/>
      <point x="143" y="599"/>
      <point x="154" y="599" type="curve" smooth="yes"/>
      <point x="165" y="599"/>
      <point x="174" y="591"/>
      <point x="174" y="580" type="curve" smooth="yes"/>
      <point x="174" y="569"/>
      <point x="165" y="560"/>
    </contour>
    <contour>
      <point x="108" y="388" type="curve" smooth="yes"/>
      <point x="99" y="388"/>
      <point x="91" y="396"/>
      <point x="91" y="405" type="curve" smooth="yes"/>
      <point x="91" y="415"/>
      <point x="99" y="423"/>
      <point x="108" y="423" type="curve" smooth="yes"/>
      <point x="118" y="423"/>
      <point x="126" y="415"/>
      <point x="126" y="405" type="curve" smooth="yes"/>
      <point x="126" y="396"/>
      <point x="118" y="388"/>
    </contour>
    <contour>
      <point x="259" y="177" type="line" smooth="yes"/>
      <point x="296" y="147"/>
      <point x="329" y="192"/>
      <point x="302" y="218" type="curve" smooth="yes"/>
      <point x="235" y="276" type="line" smooth="yes"/>
      <point x="207" y="304"/>
      <point x="160" y="254"/>
      <point x="195" y="226" type="curve" smooth="yes"/>
    </contour>
    <contour>
      <point x="178" y="263" type="line" smooth="yes"/>
      <point x="165" y="208"/>
      <point x="237" y="206"/>
      <point x="244" y="247" type="curve" smooth="yes"/>
      <point x="262" y="364" type="line" smooth="yes"/>
      <point x="269" y="407"/>
      <point x="212" y="420"/>
      <point x="201" y="371" type="curve" smooth="yes"/>
    </contour>
    <contour>
      <point x="210" y="147" type="line" smooth="yes"/>
      <point x="223" y="101"/>
      <point x="294" y="127"/>
      <point x="282" y="166" type="curve" smooth="yes"/>
      <point x="271" y="204" type="line" smooth="yes"/>
      <point x="258" y="248"/>
      <point x="189" y="222"/>
      <point x="201" y="180" type="curve" smooth="yes"/>
    </contour>
    <contour>
      <point x="298" y="658" type="line" smooth="yes"/>
      <point x="302" y="641"/>
      <point x="328" y="649"/>
      <point x="327" y="667" type="curve" smooth="yes"/>
      <point x="326" y="679" type="line" smooth="yes"/>
      <point x="324" y="697"/>
      <point x="292" y="687"/>
      <point x="295" y="672" type="curve" smooth="yes"/>
    </contour>
    <contour>
      <point x="222" y="657" type="line" smooth="yes"/>
      <point x="222" y="639"/>
      <point x="257" y="641"/>
      <point x="257" y="659" type="curve" smooth="yes"/>
      <point x="257" y="669" type="line" smooth="yes"/>
      <point x="257" y="687"/>
      <point x="222" y="685"/>
      <point x="222" y="670" type="curve" smooth="yes"/>
    </contour>
    <contour>
      <point x="299" y="348" type="line"/>
      <point x="328" y="338" type="line"/>
      <point x="335" y="357" type="line" smooth="yes"/>
      <point x="341" y="373"/>
      <point x="315" y="380"/>
      <point x="308" y="366" type="curve" smooth="yes"/>
    </contour>
    <contour>
      <point x="350" y="338" type="line"/>
      <point x="375" y="314" type="line"/>
      <point x="387" y="326" type="line" smooth="yes"/>
      <point x="400" y="339"/>
      <point x="371" y="363"/>
      <point x="360" y="350" type="curve" smooth="yes"/>
    </contour>
    <contour>
      <point x="159" y="646" type="line"/>
      <point x="190" y="649" type="line"/>
      <point x="192" y="664" type="line" smooth="yes"/>
      <point x="194" y="682"/>
      <point x="155" y="677"/>
      <point x="157" y="662" type="curve" smooth="yes"/>
    </contour>
  </outline>
</glyph>
<glyph name="six" format="2">
  <advance width="505"/>
  <unicode hex="0036"/>
  <outline>
    <contour>
      <point x="181" y="123" type="curve" smooth="yes"/>
      <point x="128" y="123"/>
      <point x="89" y="165"/>
      <point x="89" y="249" type="curve" smooth="yes"/>
      <point x="89" y="330"/>
      <point x="148" y="363"/>
      <point x="227" y="363" type="curve" smooth="yes"/>
      <point x="321" y="363"/>
      <point x="354" y="333"/>
      <point x="354" y="254" type="curve" smooth="yes"/>
      <point x="354" y="169"/>
      <point x="261" y="123"/>
    </contour>
    <contour>
      <point x="234" y="-14" type="curve" smooth="yes"/>
      <point x="410" y="-14"/>
      <point x="491" y="55"/>
      <point x="491" y="229" type="curve" smooth="yes"/>
      <point x="491" y="363"/>
      <point x="401" y="425"/>
      <point x="267" y="425" type="curve" smooth="yes"/>
      <point x="251" y="425"/>
      <point x="230" y="423"/>
      <point x="218" y="420" type="curve" smooth="yes"/>
      <point x="196" y="416"/>
      <point x="185" y="428"/>
      <point x="206" y="450" type="curve" smooth="yes"/>
      <point x="396" y="657" type="line" smooth="yes"/>
      <point x="434" y="698"/>
      <point x="372" y="757"/>
      <point x="331" y="709" type="curve" smooth="yes"/>
      <point x="111" y="441" type="line" smooth="yes"/>
      <point x="50" y="373"/>
      <point x="20" y="310"/>
      <point x="20" y="229" type="curve" smooth="yes"/>
      <point x="20" y="77"/>
      <point x="90" y="-14"/>
    </contour>
    <contour>
      <point x="322" y="93" type="curve" smooth="yes"/>
      <point x="310" y="93"/>
      <point x="299" y="104"/>
      <point x="299" y="116" type="curve" smooth="yes"/>
      <point x="299" y="128"/>
      <point x="310" y="138"/>
      <point x="322" y="138" type="curve" smooth="yes"/>
      <point x="334" y="138"/>
      <point x="345" y="128"/>
      <point x="345" y="116" type="curve" smooth="yes"/>
      <point x="345" y="104"/>
      <point x="334" y="93"/>
    </contour>
    <contour>
      <point x="105" y="99" type="curve" smooth="yes"/>
      <point x="94" y="99"/>
      <point x="86" y="107"/>
      <point x="86" y="118" type="curve" smooth="yes"/>
      <point x="86" y="128"/>
      <point x="94" y="137"/>
      <point x="105" y="137" type="curve" smooth="yes"/>
      <point x="115" y="137"/>
      <point x="124" y="128"/>
      <point x="124" y="118" type="curve" smooth="yes"/>
      <point x="124" y="107"/>
      <point x="115" y="99"/>
    </contour>
    <contour>
      <point x="379" y="81" type="curve" smooth="yes"/>
      <point x="369" y="81"/>
      <point x="361" y="90"/>
      <point x="361" y="100" type="curve" smooth="yes"/>
      <point x="361" y="110"/>
      <point x="369" y="119"/>
      <point x="379" y="119" type="curve" smooth="yes"/>
      <point x="389" y="119"/>
      <point x="398" y="110"/>
      <point x="398" y="100" type="curve" smooth="yes"/>
      <point x="398" y="90"/>
      <point x="389" y="81"/>
    </contour>
    <contour>
      <point x="368" y="585" type="line" smooth="yes"/>
      <point x="404" y="556"/>
      <point x="437" y="605"/>
      <point x="408" y="630" type="curve" smooth="yes"/>
      <point x="319" y="710" type="line" smooth="yes"/>
      <point x="293" y="732"/>
      <point x="246" y="686"/>
      <point x="277" y="662" type="curve" smooth="yes"/>
    </contour>
    <contour>
      <point x="274" y="516" type="line" smooth="yes"/>
      <point x="308" y="491"/>
      <point x="344" y="537"/>
      <point x="311" y="562" type="curve" smooth="yes"/>
      <point x="222" y="627" type="line" smooth="yes"/>
      <point x="190" y="651"/>
      <point x="153" y="597"/>
      <point x="186" y="573" type="curve" smooth="yes"/>
    </contour>
    <contour>
      <point x="121" y="362" type="curve" smooth="yes"/>
      <point x="133" y="362"/>
      <point x="144" y="373"/>
      <point x="144" y="386" type="curve" smooth="yes"/>
      <point x="144" y="398"/>
      <point x="133" y="409"/>
      <point x="121" y="409" type="curve" smooth="yes"/>
      <point x="108" y="409"/>
      <point x="97" y="398"/>
      <point x="97" y="386" type="curve" smooth="yes"/>
      <point x="97" y="373"/>
      <point x="108" y="362"/>
    </contour>
    <contour>
      <point x="170.005" y="461" type="line"/>
      <point x="192.005" y="482" type="line"/>
      <point x="185.005" y="491" type="line" smooth="yes"/>
      <point x="174.005" y="506"/>
      <point x="148.005" y="483"/>
      <point x="160.005" y="471" type="curve" smooth="yes"/>
    </contour>
    <contour>
      <point x="289" y="586" type="line"/>
      <point x="312" y="607" type="line"/>
      <point x="299" y="622" type="line" smooth="yes"/>
      <point x="285" y="638"/>
      <point x="258" y="617"/>
      <point x="273" y="602" type="curve" smooth="yes"/>
    </contour>
    <contour>
      <point x="314" y="389" type="line"/>
      <point x="308" y="379" type="line" smooth="yes"/>
      <point x="299" y="364"/>
      <point x="328" y="349"/>
      <point x="335" y="365" type="curve" smooth="yes"/>
      <point x="340" y="376" type="line"/>
    </contour>
    <contour>
      <point x="381" y="322" type="line"/>
      <point x="369" y="319" type="line" smooth="yes"/>
      <point x="355" y="315"/>
      <point x="363" y="282"/>
      <point x="375" y="285" type="curve" smooth="yes"/>
      <point x="388" y="288" type="line"/>
    </contour>
    <contour>
      <point x="78" y="168" type="line"/>
      <point x="90" y="179" type="line" smooth="yes"/>
      <point x="106" y="193"/>
      <point x="76" y="220"/>
      <point x="64" y="207" type="curve" smooth="yes"/>
      <point x="51" y="192" type="line"/>
    </contour>
  </outline>
</glyph>
<glyph name="seven" format="2">
  <advance width="462"/>
  <unicode hex="0037"/>
  <outline>
    <contour>
      <point x="237" y="36" type="curve" smooth="yes"/>
      <point x="426" y="487" type="line" smooth="yes"/>
      <point x="467" y="584"/>
      <point x="430" y="683"/>
      <point x="345" y="690" type="curve" smooth="yes"/>
      <point x="121" y="709" type="line" smooth="yes"/>
      <point x="-16" y="723"/>
      <point x="-22" y="493"/>
      <point x="112" y="501" type="curve" smooth="yes"/>
      <point x="303" y="511" type="line" smooth="yes"/>
      <point x="340" y="513"/>
      <point x="349" y="489"/>
      <point x="338" y="462" type="curve" smooth="yes"/>
      <point x="163" y="67" type="line" smooth="yes"/>
      <point x="137" y="8"/>
      <point x="216" y="-14"/>
    </contour>
    <contour>
      <point x="300" y="136" type="line" smooth="yes"/>
      <point x="344" y="108"/>
      <point x="372" y="177"/>
      <point x="342" y="196" type="curve" smooth="yes"/>
      <point x="242" y="259" type="line" smooth="yes"/>
      <point x="214" y="278"/>
      <point x="178" y="218"/>
      <point x="213" y="196" type="curve" smooth="yes"/>
    </contour>
    <contour>
      <point x="356" y="290" type="line" smooth="yes"/>
      <point x="400" y="271"/>
      <point x="418" y="351"/>
      <point x="384" y="363" type="curve" smooth="yes"/>
      <point x="265" y="397" type="line" smooth="yes"/>
      <point x="233" y="408"/>
      <point x="206" y="346"/>
      <point x="243" y="329" type="curve" smooth="yes"/>
    </contour>
    <contour>
      <point x="242" y="697" type="line"/>
      <point x="302" y="691" type="line"/>
      <point x="292" y="647" type="line" smooth="yes"/>
      <point x="288" y="627"/>
      <point x="227" y="632"/>
      <point x="232" y="653" type="curve" smooth="yes"/>
    </contour>
    <contour>
      <point x="134" y="708" type="line"/>
      <point x="199" y="702" type="line"/>
      <point x="192" y="656" type="line" smooth="yes"/>
      <point x="189" y="636"/>
      <point x="129" y="637"/>
      <point x="130" y="656" type="curve" smooth="yes"/>
    </contour>
    <contour>
      <point x="225" y="88" type="line"/>
      <point x="250" y="138" type="line"/>
      <point x="233" y="142" type="line" smooth="yes"/>
      <point x="204" y="149"/>
      <point x="189" y="104"/>
      <point x="214" y="93" type="curve" smooth="yes"/>
    </contour>
    <contour>
      <point x="360" y="406" type="line" smooth="yes"/>
      <point x="386" y="393"/>
      <point x="409" y="444"/>
      <point x="380" y="452" type="curve" smooth="yes"/>
      <point x="366" y="456" type="line" smooth="yes"/>
      <point x="337" y="464"/>
      <point x="321" y="425"/>
      <point x="350" y="411" type="curve" smooth="yes"/>
    </contour>
    <contour>
      <point x="318" y="690" type="line"/>
      <point x="358" y="685" type="line"/>
      <point x="358" y="685" type="line"/>
      <point x="358" y="685"/>
      <point x="318" y="690"/>
      <point x="318" y="690" type="curve"/>
    </contour>
  </outline>
</glyph>
<glyph name="eight" format="2">
  <advance width="539"/>
  <unicode hex="0038"/>
  <outline>
    <contour>
      <point x="275" y="321" type="curve" smooth="yes"/>
      <point x="392" y="321"/>
      <point x="512" y="366"/>
      <point x="512" y="518" type="curve" smooth="yes"/>
      <point x="512" y="651"/>
      <point x="427" y="719"/>
      <point x="275" y="719" type="curve" smooth="yes"/>
      <point x="119" y="719"/>
      <point x="31" y="653"/>
      <point x="31" y="524" type="curve" smooth="yes"/>
      <point x="31" y="372"/>
      <point x="136" y="321"/>
    </contour>
    <contour>
      <point x="272" y="-4" type="curve" smooth="yes"/>
      <point x="427" y="-4"/>
      <point x="503.002" y="61.994"/>
      <point x="503" y="186" type="curve" smooth="yes"/>
      <point x="503" y="320"/>
      <point x="399" y="366"/>
      <point x="280" y="366" type="curve" smooth="yes"/>
      <point x="149" y="366"/>
      <point x="40" y="317"/>
      <point x="40" y="178" type="curve" smooth="yes"/>
      <point x="40" y="55"/>
      <point x="116" y="-4"/>
    </contour>
    <contour>
      <point x="226" y="432" type="curve" smooth="yes"/>
      <point x="153" y="432"/>
      <point x="103" y="459"/>
      <point x="103" y="511" type="curve" smooth="yes"/>
      <point x="103" y="579"/>
      <point x="183" y="602"/>
      <point x="271" y="602" type="curve" smooth="yes"/>
      <point x="366" y="602"/>
      <point x="422" y="583"/>
      <point x="422" y="532" type="curve" smooth="yes"/>
      <point x="422" y="475"/>
      <point x="342" y="432"/>
    </contour>
    <contour>
      <point x="275" y="119" type="curve" smooth="yes"/>
      <point x="162" y="119"/>
      <point x="113" y="154"/>
      <point x="113" y="205" type="curve" smooth="yes"/>
      <point x="113" y="269"/>
      <point x="181" y="302"/>
      <point x="284" y="302" type="curve" smooth="yes"/>
      <point x="366" y="302"/>
      <point x="427" y="273"/>
      <point x="427" y="202" type="curve" smooth="yes"/>
      <point x="427" y="147"/>
      <point x="379" y="119"/>
    </contour>
    <contour>
      <point x="285" y="181" type="line" smooth="yes"/>
      <point x="305" y="217"/>
      <point x="244" y="245"/>
      <point x="225" y="214" type="curve" smooth="yes"/>
      <point x="200" y="182" type="line" smooth="yes"/>
      <point x="180" y="150"/>
      <point x="244" y="108"/>
      <point x="264" y="145" type="curve" smooth="yes"/>
    </contour>
    <contour>
      <point x="251" y="335" type="line" smooth="yes"/>
      <point x="245" y="378"/>
      <point x="184" y="377"/>
      <point x="186" y="335" type="curve" smooth="yes"/>
      <point x="191" y="260" type="line" smooth="yes"/>
      <point x="194" y="213"/>
      <point x="267" y="219"/>
      <point x="260" y="267" type="curve" smooth="yes"/>
    </contour>
    <contour>
      <point x="396" y="91" type="line" smooth="yes"/>
      <point x="379" y="132"/>
      <point x="321" y="110"/>
      <point x="334" y="69" type="curve" smooth="yes"/>
      <point x="350" y="19" type="line" smooth="yes"/>
      <point x="364" y="-24"/>
      <point x="436" y="-3"/>
      <point x="417" y="43" type="curve" smooth="yes"/>
    </contour>
    <contour>
      <point x="311" y="405" type="curve" smooth="yes"/>
      <point x="321" y="405"/>
      <point x="330" y="397"/>
      <point x="330" y="386" type="curve" smooth="yes"/>
      <point x="330" y="377"/>
      <point x="321" y="368"/>
      <point x="311" y="368" type="curve" smooth="yes"/>
      <point x="301" y="368"/>
      <point x="292" y="377"/>
      <point x="292" y="386" type="curve" smooth="yes"/>
      <point x="292" y="397"/>
      <point x="301" y="405"/>
    </contour>
    <contour>
      <point x="385" y="434" type="curve" smooth="yes"/>
      <point x="397" y="434"/>
      <point x="406" y="425"/>
      <point x="406" y="414" type="curve" smooth="yes"/>
      <point x="406" y="402"/>
      <point x="397" y="393"/>
      <point x="385" y="393" type="curve" smooth="yes"/>
      <point x="374" y="393"/>
      <point x="364" y="402"/>
      <point x="364" y="414" type="curve" smooth="yes"/>
      <point x="364" y="425"/>
      <point x="374" y="434"/>
    </contour>
    <contour>
      <point x="434" y="444" type="curve" smooth="yes"/>
      <point x="444" y="444"/>
      <point x="452" y="436"/>
      <point x="452" y="426" type="curve" smooth="yes"/>
      <point x="452" y="417"/>
      <point x="444" y="409"/>
      <point x="434" y="409" type="curve" smooth="yes"/>
      <point x="425" y="409"/>
      <point x="417" y="417"/>
      <point x="417" y="426" type="curve" smooth="yes"/>
      <point x="417" y="436"/>
      <point x="425" y="444"/>
    </contour>
    <contour>
      <point x="75" y="490" type="curve" smooth="yes"/>
      <point x="85" y="490"/>
      <point x="92" y="498"/>
      <point x="92" y="508" type="curve" smooth="yes"/>
      <point x="92" y="518"/>
      <point x="85" y="525"/>
      <point x="75" y="525" type="curve" smooth="yes"/>
      <point x="65" y="525"/>
      <point x="57" y="518"/>
      <point x="57" y="508" type="curve" smooth="yes"/>
      <point x="57" y="498"/>
      <point x="65" y="490"/>
    </contour>
    <contour>
      <point x="451" y="192" type="line" smooth="yes"/>
      <point x="434" y="198"/>
      <point x="428" y="167"/>
      <point x="444" y="161" type="curve" smooth="yes"/>
      <point x="455" y="157" type="line" smooth="yes"/>
      <point x="473" y="151"/>
      <point x="480" y="182"/>
      <point x="463" y="188" type="curve" smooth="yes"/>
    </contour>
    <contour>
      <point x="79" y="169" type="line"/>
      <point x="86" y="140" type="line"/>
      <point x="101" y="143" type="line" smooth="yes"/>
      <point x="119" y="147"/>
      <point x="110" y="181"/>
      <point x="95" y="175" type="curve" smooth="yes"/>
    </contour>
    <contour>
      <point x="129" y="312" type="line"/>
      <point x="102" y="287" type="line"/>
      <point x="113" y="276" type="line" smooth="yes"/>
      <point x="126" y="263"/>
      <point x="154" y="289"/>
      <point x="141" y="301" type="curve" smooth="yes"/>
    </contour>
    <contour>
      <point x="124" y="617" type="line" smooth="yes"/>
      <point x="111" y="628"/>
      <point x="86" y="605"/>
      <point x="96" y="593" type="curve" smooth="yes"/>
      <point x="104" y="584" type="line" smooth="yes"/>
      <point x="116" y="571"/>
      <point x="146" y="597"/>
      <point x="135" y="607" type="curve" smooth="yes"/>
    </contour>
    <contour>
      <point x="370" y="643" type="line" smooth="yes"/>
      <point x="378" y="657"/>
      <point x="347" y="671"/>
      <point x="341" y="658" type="curve" smooth="yes"/>
      <point x="335" y="645" type="line" smooth="yes"/>
      <point x="328" y="629"/>
      <point x="355" y="617"/>
      <point x="363" y="631" type="curve" smooth="yes"/>
    </contour>
    <contour>
      <point x="425" y="616" type="line" smooth="yes"/>
      <point x="434" y="633"/>
      <point x="408" y="652"/>
      <point x="399" y="636" type="curve" smooth="yes"/>
      <point x="392" y="624" type="line" smooth="yes"/>
      <point x="382" y="607"/>
      <point x="411" y="590"/>
      <point x="419" y="605" type="curve" smooth="yes"/>
    </contour>
    <contour>
      <point x="75" y="436" type="line"/>
      <point x="100" y="409" type="line"/>
      <point x="115" y="425" type="line" smooth="yes"/>
      <point x="126" y="436"/>
      <point x="100" y="459"/>
      <point x="91" y="451" type="curve" smooth="yes"/>
    </contour>
    <contour>
      <point x="459" y="524" type="line"/>
      <point x="445" y="528" type="line" smooth="yes"/>
      <point x="433" y="531"/>
      <point x="423" y="504"/>
      <point x="436" y="498" type="curve" smooth="yes"/>
      <point x="449" y="492" type="line"/>
    </contour>
  </outline>
</glyph>
<glyph name="nine" format="2">
  <advance width="535"/>
  <unicode hex="0039"/>
  <outline>
    <contour>
      <point x="28" y="491" type="curve" smooth="yes"/>
      <point x="28" y="355"/>
      <point x="124" y="304"/>
      <point x="211" y="304" type="curve" smooth="yes"/>
      <point x="220" y="304"/>
      <point x="227" y="303"/>
      <point x="232" y="300" type="curve" smooth="yes"/>
      <point x="237" y="298"/>
      <point x="241" y="293"/>
      <point x="241" y="289" type="curve" smooth="yes"/>
      <point x="241" y="284"/>
      <point x="239" y="279"/>
      <point x="234" y="272" type="curve" smooth="yes"/>
      <point x="146" y="158" type="line" smooth="yes"/>
      <point x="40" y="24"/>
      <point x="268" y="-87"/>
      <point x="333" y="40" type="curve" smooth="yes"/>
      <point x="467" y="300" type="line" smooth="yes"/>
      <point x="499.003" y="362.996"/>
      <point x="519" y="433"/>
      <point x="519" y="500" type="curve" smooth="yes"/>
      <point x="519" y="628.002"/>
      <point x="425.996" y="711"/>
      <point x="260.995" y="711" type="curve" smooth="yes"/>
      <point x="119" y="711"/>
      <point x="28" y="628"/>
    </contour>
    <contour>
      <point x="102" y="495" type="curve" smooth="yes"/>
      <point x="102" y="588"/>
      <point x="161" y="639"/>
      <point x="236" y="639" type="curve" smooth="yes"/>
      <point x="314" y="639"/>
      <point x="372" y="590"/>
      <point x="372" y="499" type="curve" smooth="yes"/>
      <point x="372" y="417"/>
      <point x="319" y="367"/>
      <point x="237" y="367" type="curve" smooth="yes"/>
      <point x="137" y="367"/>
      <point x="102" y="415"/>
    </contour>
    <contour>
      <point x="388" y="146" type="line"/>
      <point x="354.999" y="82.001" type="line"/>
      <point x="325" y="96" type="line" smooth="yes"/>
      <point x="312" y="115"/>
      <point x="333" y="160"/>
      <point x="358" y="161" type="curve" smooth="yes"/>
    </contour>
    <contour>
      <point x="448" y="262" type="line"/>
      <point x="418" y="204" type="line"/>
      <point x="384" y="228" type="line" smooth="yes"/>
      <point x="372" y="249"/>
      <point x="389" y="284"/>
      <point x="414" y="282" type="curve" smooth="yes"/>
    </contour>
    <contour>
      <point x="301" y="382" type="curve" smooth="yes"/>
      <point x="327" y="382"/>
      <point x="347" y="402"/>
      <point x="347" y="427" type="curve" smooth="yes"/>
      <point x="347" y="453"/>
      <point x="327" y="473"/>
      <point x="301" y="473" type="curve" smooth="yes"/>
      <point x="276" y="473"/>
      <point x="256" y="453"/>
      <point x="256" y="427" type="curve" smooth="yes"/>
      <point x="256" y="402"/>
      <point x="276" y="382"/>
    </contour>
    <contour>
      <point x="178" y="199" type="line"/>
      <point x="202" y="230" type="line"/>
      <point x="202" y="230" type="line"/>
      <point x="202" y="230"/>
      <point x="178" y="199"/>
      <point x="178" y="199" type="curve"/>
    </contour>
    <contour>
      <point x="172" y="670" type="line" smooth="yes"/>
      <point x="164" y="683"/>
      <point x="138" y="672"/>
      <point x="144" y="659" type="curve" smooth="yes"/>
      <point x="149" y="648" type="line" smooth="yes"/>
      <point x="155" y="636"/>
      <point x="185" y="648"/>
      <point x="178" y="660" type="curve" smooth="yes"/>
    </contour>
    <contour>
      <point x="264" y="674" type="line" smooth="yes"/>
      <point x="266" y="691"/>
      <point x="233" y="692"/>
      <point x="233" y="675" type="curve" smooth="yes"/>
      <point x="233" y="667" type="line" smooth="yes"/>
      <point x="233" y="653"/>
      <point x="262" y="654"/>
      <point x="263" y="666" type="curve" smooth="yes"/>
    </contour>
    <contour>
      <point x="73" y="422" type="line" smooth="yes"/>
      <point x="59" y="415"/>
      <point x="72" y="390"/>
      <point x="86" y="396" type="curve" smooth="yes"/>
      <point x="101" y="403" type="line" smooth="yes"/>
      <point x="115" y="409"/>
      <point x="101" y="436"/>
      <point x="89" y="430" type="curve" smooth="yes"/>
    </contour>
    <contour>
      <point x="342" y="630" type="line" smooth="yes"/>
      <point x="333" y="619"/>
      <point x="352" y="599"/>
      <point x="361" y="610" type="curve" smooth="yes"/>
      <point x="375" y="626" type="line" smooth="yes"/>
      <point x="385" y="638"/>
      <point x="365" y="658"/>
      <point x="356" y="647" type="curve" smooth="yes"/>
    </contour>
    <contour>
      <point x="401" y="523" type="line" smooth="yes"/>
      <point x="388" y="525"/>
      <point x="382" y="497"/>
      <point x="395" y="495" type="curve" smooth="yes"/>
      <point x="412" y="492" type="line"/>
      <point x="417" y="521" type="line"/>
    </contour>
    <contour>
      <point x="87" y="370" type="line" smooth="yes"/>
      <point x="80" y="358"/>
      <point x="109" y="345"/>
      <point x="116" y="355" type="curve" smooth="yes"/>
      <point x="121" y="362" type="line"/>
      <point x="91" y="377" type="line"/>
    </contour>
    <contour>
      <point x="140" y="347" type="line" smooth="yes"/>
      <point x="129" y="335"/>
      <point x="157" y="322"/>
      <point x="164" y="335" type="curve" smooth="yes"/>
      <point x="170" y="346" type="line"/>
      <point x="148" y="356" type="line"/>
    </contour>
    <contour>
      <point x="182" y="328" type="line" smooth="yes"/>
      <point x="180" y="312"/>
      <point x="210" y="313"/>
      <point x="208" y="328" type="curve" smooth="yes"/>
      <point x="206" y="340" type="line"/>
      <point x="183" y="338" type="line"/>
    </contour>
  </outline>
</glyph>
<glyph name="colon" format="2">
  <advance width="271"/>
  <unicode hex="003A"/>
  <outline>
    <contour>
      <point x="133.001" y="-16.003" type="curve" smooth="yes"/>
      <point x="181.997" y="-16.003"/>
      <point x="220.995" y="23.994"/>
      <point x="220.995" y="73.991" type="curve" smooth="yes"/>
      <point x="221" y="124"/>
      <point x="186" y="166"/>
      <point x="136" y="166" type="curve" smooth="yes"/>
      <point x="87" y="166"/>
      <point x="48" y="126"/>
      <point x="48" y="78" type="curve" smooth="yes"/>
      <point x="48" y="22"/>
      <point x="84" y="-16"/>
    </contour>
    <contour>
      <point x="138" y="354" type="curve" smooth="yes"/>
      <point x="191" y="354"/>
      <point x="234" y="397"/>
      <point x="234" y="450" type="curve" smooth="yes"/>
      <point x="234" y="505"/>
      <point x="196" y="549"/>
      <point x="141" y="549" type="curve" smooth="yes"/>
      <point x="88" y="549"/>
      <point x="45" y="507"/>
      <point x="45" y="455" type="curve" smooth="yes"/>
      <point x="45" y="396"/>
      <point x="84" y="354"/>
    </contour>
    <contour>
      <point x="139" y="434" type="curve" smooth="yes"/>
      <point x="127" y="434"/>
      <point x="118" y="444"/>
      <point x="118" y="456" type="curve" smooth="yes"/>
      <point x="118" y="467"/>
      <point x="127" y="476"/>
      <point x="139" y="476" type="curve" smooth="yes"/>
      <point x="151" y="476"/>
      <point x="162" y="467"/>
      <point x="162" y="456" type="curve" smooth="yes"/>
      <point x="162" y="444"/>
      <point x="151" y="434"/>
    </contour>
  </outline>
</glyph>
<glyph name="semicolon" format="2">
  <advance width="266"/>
  <unicode hex="003B"/>
  <outline>
    <contour>
      <point x="136" y="367" type="curve" smooth="yes"/>
      <point x="185" y="367"/>
      <point x="225" y="407"/>
      <point x="225" y="457" type="curve" smooth="yes"/>
      <point x="225" y="508"/>
      <point x="189" y="550"/>
      <point x="139" y="550" type="curve" smooth="yes"/>
      <point x="89" y="550"/>
      <point x="50" y="510"/>
      <point x="50" y="461" type="curve" smooth="yes"/>
      <point x="50" y="406"/>
      <point x="87" y="367"/>
    </contour>
    <contour>
      <point x="36" y="-159" type="curve" smooth="yes"/>
      <point x="-0.004" y="-183.001"/>
      <point x="37.007" y="-231.996"/>
      <point x="75" y="-208" type="curve" smooth="yes"/>
      <point x="150" y="-161"/>
      <point x="222" y="-70"/>
      <point x="221.994" y="48.007" type="curve" smooth="yes"/>
      <point x="222" y="112"/>
      <point x="188" y="151"/>
      <point x="131" y="151" type="curve" smooth="yes"/>
      <point x="81" y="151"/>
      <point x="44.006" y="115.994"/>
      <point x="44.006" y="65.995" type="curve" smooth="yes"/>
      <point x="44" y="28"/>
      <point x="64" y="2"/>
      <point x="95" y="-9" type="curve" smooth="yes"/>
      <point x="116" y="-16"/>
      <point x="123" y="-35"/>
      <point x="120" y="-59" type="curve" smooth="yes"/>
      <point x="114" y="-90"/>
      <point x="83" y="-130"/>
    </contour>
    <contour>
      <point x="132" y="47" type="curve" smooth="yes"/>
      <point x="122" y="47"/>
      <point x="113" y="56"/>
      <point x="113" y="66" type="curve" smooth="yes"/>
      <point x="113" y="76"/>
      <point x="122" y="85"/>
      <point x="132" y="85" type="curve" smooth="yes"/>
      <point x="142" y="85"/>
      <point x="151" y="76"/>
      <point x="151" y="66" type="curve" smooth="yes"/>
      <point x="151" y="56"/>
      <point x="142" y="47"/>
    </contour>
  </outline>
</glyph>
<glyph name="less" format="2">
  <advance width="394"/>
  <unicode hex="003C"/>
  <outline>
    <contour>
      <point x="291" y="92" type="line" smooth="yes"/>
      <point x="342" y="50"/>
      <point x="399" y="133"/>
      <point x="346" y="167" type="curve" smooth="yes"/>
      <point x="131" y="306" type="line" smooth="yes"/>
      <point x="110" y="320"/>
      <point x="110" y="341"/>
      <point x="131" y="355" type="curve" smooth="yes"/>
      <point x="340" y="499" type="line" smooth="yes"/>
      <point x="383" y="528"/>
      <point x="347" y="589"/>
      <point x="300" y="558" type="curve" smooth="yes"/>
      <point x="64" y="402" type="line" smooth="yes"/>
      <point x="18" y="372"/>
      <point x="15" y="316"/>
      <point x="57" y="281" type="curve" smooth="yes"/>
    </contour>
  </outline>
</glyph>
<glyph name="equal" format="2">
  <advance width="410"/>
  <unicode hex="003D"/>
  <outline>
    <contour>
      <point x="53" y="431" type="line" smooth="yes"/>
      <point x="9" y="430"/>
      <point x="9" y="362"/>
      <point x="53" y="362" type="curve" smooth="yes"/>
      <point x="336" y="358" type="line" smooth="yes"/>
      <point x="388" y="357"/>
      <point x="389" y="440"/>
      <point x="337" y="438" type="curve" smooth="yes"/>
    </contour>
    <contour>
      <point x="73" y="280" type="line" smooth="yes"/>
      <point x="23" y="279"/>
      <point x="26" y="195"/>
      <point x="75" y="199" type="curve" smooth="yes"/>
      <point x="355" y="217" type="line" smooth="yes"/>
      <point x="402" y="220"/>
      <point x="402" y="287"/>
      <point x="354" y="286" type="curve" smooth="yes"/>
    </contour>
  </outline>
</glyph>
<glyph name="greater" format="2">
  <advance width="377"/>
  <unicode hex="003E"/>
  <outline>
    <contour>
      <point x="99" y="66" type="curve" smooth="yes"/>
      <point x="317" y="267" type="line" smooth="yes"/>
      <point x="356" y="302"/>
      <point x="358" y="355"/>
      <point x="321" y="383" type="curve" smooth="yes"/>
      <point x="99" y="551" type="line" smooth="yes"/>
      <point x="51" y="589"/>
      <point x="4" y="517"/>
      <point x="52" y="486" type="curve" smooth="yes"/>
      <point x="251" y="355" type="line" smooth="yes"/>
      <point x="273" y="340"/>
      <point x="271" y="320"/>
      <point x="251" y="304" type="curve" smooth="yes"/>
      <point x="43" y="130" type="line" smooth="yes"/>
      <point x="-3" y="92"/>
      <point x="54" y="23"/>
    </contour>
  </outline>
</glyph>
<glyph name="question" format="2">
  <advance width="433"/>
  <unicode hex="003F"/>
  <outline>
    <contour>
      <point x="182" y="-21" type="curve" smooth="yes"/>
      <point x="228" y="-21"/>
      <point x="267" y="18"/>
      <point x="267" y="66" type="curve" smooth="yes"/>
      <point x="267" y="113"/>
      <point x="228" y="151"/>
      <point x="182" y="151" type="curve" smooth="yes"/>
      <point x="133" y="151"/>
      <point x="94" y="113"/>
      <point x="94" y="66" type="curve" smooth="yes"/>
      <point x="94" y="18"/>
      <point x="133" y="-21"/>
    </contour>
    <contour>
      <point x="188" y="225" type="curve" smooth="yes"/>
      <point x="317" y="297"/>
      <point x="394" y="393"/>
      <point x="394" y="502" type="curve" smooth="yes"/>
      <point x="394" y="632"/>
      <point x="307" y="687"/>
      <point x="207" y="687" type="curve" smooth="yes"/>
      <point x="105" y="687"/>
      <point x="16" y="642"/>
      <point x="16" y="577" type="curve" smooth="yes"/>
      <point x="16" y="544"/>
      <point x="36" y="523"/>
      <point x="65" y="523" type="curve" smooth="yes"/>
      <point x="98" y="523"/>
      <point x="135" y="558"/>
      <point x="212" y="558" type="curve" smooth="yes"/>
      <point x="277" y="558"/>
      <point x="310" y="532"/>
      <point x="310" y="484" type="curve" smooth="yes"/>
      <point x="310" y="438"/>
      <point x="257" y="389"/>
      <point x="145" y="335" type="curve" smooth="yes"/>
      <point x="107" y="324"/>
      <point x="92" y="300"/>
      <point x="92" y="277" type="curve" smooth="yes"/>
      <point x="92" y="245"/>
      <point x="116" y="217"/>
      <point x="156" y="217" type="curve" smooth="yes"/>
      <point x="166" y="217"/>
      <point x="177" y="220"/>
    </contour>
    <contour>
      <point x="111" y="653" type="line" smooth="yes"/>
      <point x="96" y="683"/>
      <point x="49" y="660"/>
      <point x="60" y="628" type="curve" smooth="yes"/>
      <point x="85" y="560" type="line"/>
      <point x="143" y="592" type="line"/>
    </contour>
    <contour>
      <point x="256" y="688" type="line" smooth="yes"/>
      <point x="270" y="732"/>
      <point x="186" y="743"/>
      <point x="187" y="698" type="curve" smooth="yes"/>
      <point x="187" y="640" type="line"/>
      <point x="238" y="635" type="line"/>
    </contour>
    <contour>
      <point x="385" y="602" type="line" smooth="yes"/>
      <point x="417" y="629"/>
      <point x="368" y="689"/>
      <point x="335" y="645" type="curve" smooth="yes"/>
      <point x="306" y="609" type="line"/>
      <point x="347" y="567" type="line"/>
    </contour>
    <contour>
      <point x="328" y="504" type="line"/>
      <point x="332" y="443" type="line"/>
      <point x="381" y="443" type="line" smooth="yes"/>
      <point x="416" y="442"/>
      <point x="414" y="507"/>
      <point x="380" y="506" type="curve" smooth="yes"/>
    </contour>
    <contour>
      <point x="308" y="390" type="line"/>
      <point x="273" y="340" type="line"/>
      <point x="309" y="308" type="line" smooth="yes"/>
      <point x="334" y="285"/>
      <point x="374" y="332"/>
      <point x="350" y="354" type="curve" smooth="yes"/>
    </contour>
    <contour>
      <point x="170" y="260" type="curve" smooth="yes"/>
      <point x="159" y="260"/>
      <point x="150" y="270"/>
      <point x="150" y="281" type="curve" smooth="yes"/>
      <point x="150" y="292"/>
      <point x="159" y="301"/>
      <point x="170" y="301" type="curve" smooth="yes"/>
      <point x="181" y="301"/>
      <point x="190" y="292"/>
      <point x="190" y="281" type="curve" smooth="yes"/>
      <point x="190" y="270"/>
      <point x="181" y="260"/>
    </contour>
    <contour>
      <point x="247" y="322" type="curve" smooth="yes"/>
      <point x="238" y="322"/>
      <point x="230" y="329"/>
      <point x="230" y="339" type="curve" smooth="yes"/>
      <point x="230" y="348"/>
      <point x="238" y="355"/>
      <point x="247" y="355" type="curve" smooth="yes"/>
      <point x="257" y="355"/>
      <point x="264" y="348"/>
      <point x="264" y="339" type="curve" smooth="yes"/>
      <point x="264" y="329"/>
      <point x="257" y="322"/>
    </contour>
    <contour>
      <point x="174" y="633" type="line" smooth="yes"/>
      <point x="171" y="649"/>
      <point x="130" y="639"/>
      <point x="135" y="621" type="curve" smooth="yes"/>
      <point x="139" y="607" type="line" smooth="yes"/>
      <point x="144" y="589"/>
      <point x="180" y="600"/>
      <point x="177" y="617" type="curve" smooth="yes"/>
    </contour>
    <contour>
      <point x="358" y="514" type="line" smooth="yes"/>
      <point x="376" y="522"/>
      <point x="357" y="563"/>
      <point x="339" y="553" type="curve" smooth="yes"/>
      <point x="328" y="547" type="line" smooth="yes"/>
      <point x="310" y="537"/>
      <point x="328" y="501"/>
      <point x="344" y="508" type="curve" smooth="yes"/>
    </contour>
  </outline>
</glyph>
<glyph name="at" format="2">
  <advance width="725"/>
  <unicode hex="0040"/>
  <outline>
    <contour>
      <point x="347" y="-38" type="curve" smooth="yes"/>
      <point x="422" y="-38"/>
      <point x="526" y="-5"/>
      <point x="567" y="15" type="curve" smooth="yes"/>
      <point x="601" y="32"/>
      <point x="577" y="90"/>
      <point x="546" y="74" type="curve" smooth="yes"/>
      <point x="496" y="48"/>
      <point x="422" y="25"/>
      <point x="347" y="25" type="curve" smooth="yes"/>
      <point x="191" y="25"/>
      <point x="103" y="153"/>
      <point x="101" y="367" type="curve" smooth="yes"/>
      <point x="101" y="614"/>
      <point x="218" y="690"/>
      <point x="354" y="690" type="curve" smooth="yes"/>
      <point x="532" y="690"/>
      <point x="625" y="609"/>
      <point x="625" y="419" type="curve" smooth="yes"/>
      <point x="625" y="268"/>
      <point x="607" y="205"/>
      <point x="563" y="205" type="curve" smooth="yes"/>
      <point x="534" y="205"/>
      <point x="509" y="225"/>
      <point x="513" y="283" type="curve" smooth="yes"/>
      <point x="524" y="438" type="line" smooth="yes"/>
      <point x="532.004" y="522.995"/>
      <point x="486" y="597"/>
      <point x="372" y="597" type="curve" smooth="yes"/>
      <point x="272" y="597"/>
      <point x="199" y="527"/>
      <point x="199" y="351" type="curve" smooth="yes"/>
      <point x="198.997" y="200.994"/>
      <point x="268" y="141"/>
      <point x="355" y="141" type="curve" smooth="yes"/>
      <point x="401" y="141"/>
      <point x="439" y="156"/>
      <point x="462" y="192" type="curve" smooth="yes"/>
      <point x="465" y="197"/>
      <point x="472" y="197"/>
      <point x="475" y="192" type="curve" smooth="yes"/>
      <point x="493" y="161"/>
      <point x="526" y="146"/>
      <point x="559" y="146" type="curve" smooth="yes"/>
      <point x="642" y="146"/>
      <point x="690" y="214"/>
      <point x="690" y="423" type="curve" smooth="yes"/>
      <point x="690" y="649"/>
      <point x="562" y="753"/>
      <point x="354" y="753" type="curve" smooth="yes"/>
      <point x="187" y="753"/>
      <point x="35" y="660"/>
      <point x="35" y="371" type="curve" smooth="yes"/>
      <point x="35" y="115"/>
      <point x="144" y="-38"/>
    </contour>
    <contour>
      <point x="331" y="324" type="curve" smooth="yes"/>
      <point x="331" y="420"/>
      <point x="369" y="467"/>
      <point x="413" y="467" type="curve" smooth="yes"/>
      <point x="443" y="467"/>
      <point x="460" y="452"/>
      <point x="457" y="412" type="curve" smooth="yes"/>
      <point x="447" y="264" type="line" smooth="yes"/>
      <point x="443" y="222"/>
      <point x="426" y="206"/>
      <point x="398" y="206" type="curve" smooth="yes"/>
      <point x="359" y="206"/>
      <point x="331" y="233"/>
    </contour>
    <contour>
      <point x="478" y="53" type="line" smooth="yes"/>
      <point x="469" y="94"/>
      <point x="418" y="78"/>
      <point x="424" y="41" type="curve" smooth="yes"/>
      <point x="440" y="-52" type="line" smooth="yes"/>
      <point x="446" y="-84"/>
      <point x="507" y="-81"/>
      <point x="497" y="-37" type="curve" smooth="yes"/>
    </contour>
    <contour>
      <point x="373" y="114" type="line" smooth="yes"/>
      <point x="381" y="154"/>
      <point x="316" y="154"/>
      <point x="311" y="119" type="curve" smooth="yes"/>
      <point x="300" y="39" type="line" smooth="yes"/>
      <point x="296" y="4"/>
      <point x="352" y="-10"/>
      <point x="360" y="36" type="curve" smooth="yes"/>
    </contour>
    <contour>
      <point x="376" y="499" type="curve" smooth="yes"/>
      <point x="367" y="499"/>
      <point x="361.002" y="504.995"/>
      <point x="361" y="513" type="curve" smooth="yes"/>
      <point x="361" y="522"/>
      <point x="367" y="528"/>
      <point x="376" y="528" type="curve" smooth="yes"/>
      <point x="384" y="528"/>
      <point x="390" y="522"/>
      <point x="390" y="513" type="curve" smooth="yes"/>
      <point x="390" y="505"/>
      <point x="384" y="499"/>
    </contour>
    <contour>
      <point x="315" y="424" type="curve" smooth="yes"/>
      <point x="307" y="424"/>
      <point x="300" y="431"/>
      <point x="300" y="439" type="curve" smooth="yes"/>
      <point x="300" y="448"/>
      <point x="307" y="454"/>
      <point x="315" y="454" type="curve" smooth="yes"/>
      <point x="323" y="454"/>
      <point x="329" y="448"/>
      <point x="329" y="439" type="curve" smooth="yes"/>
      <point x="329" y="431"/>
      <point x="323" y="424"/>
    </contour>
    <contour>
      <point x="543" y="680" type="line" smooth="yes"/>
      <point x="556" y="699"/>
      <point x="514" y="729"/>
      <point x="504" y="707" type="curve" smooth="yes"/>
      <point x="498" y="694" type="line" smooth="yes"/>
      <point x="489" y="674"/>
      <point x="522" y="650"/>
      <point x="534" y="667" type="curve" smooth="yes"/>
    </contour>
    <contour>
      <point x="613" y="621" type="line" smooth="yes"/>
      <point x="634" y="642"/>
      <point x="594" y="680"/>
      <point x="573" y="659" type="curve" smooth="yes"/>
      <point x="564" y="650" type="line" smooth="yes"/>
      <point x="545" y="631"/>
      <point x="587" y="595"/>
      <point x="607" y="615" type="curve" smooth="yes"/>
    </contour>
    <contour>
      <point x="169" y="680" type="line" smooth="yes"/>
      <point x="155" y="693"/>
      <point x="124" y="660"/>
      <point x="137" y="647" type="curve" smooth="yes"/>
      <point x="155" y="628" type="line" smooth="yes"/>
      <point x="167" y="616"/>
      <point x="200" y="651"/>
      <point x="186" y="664" type="curve" smooth="yes"/>
    </contour>
  </outline>
</glyph>
<glyph name="A" format="2">
  <advance width="546"/>
  <unicode hex="0041"/>
  <anchor x="524" y="-34" name="ogonek"/>
  <anchor x="294" y="686" name="top"/>
  <outline>
    <contour>
      <point x="465" y="-9" type="line" smooth="yes"/>
      <point x="480" y="-59"/>
      <point x="548" y="-43"/>
      <point x="538" y="1" type="curve" smooth="yes"/>
      <point x="410" y="613" type="line" smooth="yes"/>
      <point x="398" y="672"/>
      <point x="345" y="701"/>
      <point x="296" y="702" type="curve" smooth="yes"/>
      <point x="246" y="703"/>
      <point x="199" y="675"/>
      <point x="181" y="621" type="curve" smooth="yes"/>
      <point x="15" y="112" type="line" smooth="yes"/>
      <point x="-23" y="-7"/>
      <point x="142" y="-43"/>
      <point x="167" y="58" type="curve" smooth="yes"/>
      <point x="257" y="422" type="line" smooth="yes"/>
      <point x="263" y="445"/>
      <point x="275" y="460"/>
      <point x="296" y="460" type="curve" smooth="yes"/>
      <point x="317" y="460"/>
      <point x="332" y="443"/>
      <point x="340" y="417" type="curve" smooth="yes"/>
    </contour>
    <contour>
      <point x="141" y="239" type="line"/>
      <point x="285" y="233" type="line" smooth="yes"/>
      <point x="325" y="233"/>
      <point x="322" y="293"/>
      <point x="283" y="292" type="curve" smooth="yes"/>
      <point x="160" y="291" type="line"/>
    </contour>
    <contour>
      <point x="459" y="208" type="line"/>
      <point x="453" y="243" type="line"/>
      <point x="425" y="244" type="line" smooth="yes"/>
      <point x="403" y="244"/>
      <point x="405" y="206"/>
      <point x="425" y="207" type="curve" smooth="yes"/>
    </contour>
    <contour>
      <point x="125" y="147" type="line"/>
      <point x="458" y="129" type="line"/>
      <point x="438" y="191" type="line"/>
      <point x="141" y="206" type="line"/>
    </contour>
    <contour>
      <point x="120" y="89" type="line"/>
      <point x="148" y="89" type="line" smooth="yes"/>
      <point x="174" y="89"/>
      <point x="174" y="126"/>
      <point x="147" y="125" type="curve" smooth="yes"/>
      <point x="122" y="124" type="line"/>
    </contour>
    <contour>
      <point x="178" y="485" type="line"/>
      <point x="205" y="562" type="line"/>
      <point x="147" y="586" type="line" smooth="yes"/>
      <point x="99" y="602"/>
      <point x="78" y="524"/>
      <point x="119" y="510" type="curve" smooth="yes"/>
    </contour>
    <contour>
      <point x="167" y="428" type="line"/>
      <point x="178" y="460" type="line"/>
      <point x="164" y="465" type="line" smooth="yes"/>
      <point x="144" y="472"/>
      <point x="134" y="437"/>
      <point x="156" y="431" type="curve" smooth="yes"/>
    </contour>
    <contour>
      <point x="125" y="310" type="line"/>
      <point x="145" y="378" type="line"/>
      <point x="97" y="393" type="line" smooth="yes"/>
      <point x="53" y="405"/>
      <point x="30" y="325"/>
      <point x="77" y="318" type="curve" smooth="yes"/>
    </contour>
    <contour>
      <point x="430" y="412" type="line" smooth="yes"/>
      <point x="409" y="408"/>
      <point x="392" y="464"/>
      <point x="417" y="466" type="curve" smooth="yes"/>
      <point x="440" y="467" type="line"/>
      <point x="450" y="417" type="line"/>
    </contour>
    <contour>
      <point x="395" y="499" type="line" smooth="yes"/>
      <point x="376" y="497"/>
      <point x="362" y="554"/>
      <point x="379" y="558" type="curve" smooth="yes"/>
      <point x="420" y="569" type="line"/>
      <point x="433" y="504" type="line"/>
    </contour>
  </outline>
</glyph>
<glyph name="B" format="2">
  <advance width="563"/>
  <unicode hex="0042"/>
  <anchor x="278" y="0" name="bottom"/>
  <anchor x="270" y="716" name="top"/>
  <outline>
    <contour>
      <point x="76" y="106" type="line" smooth="yes"/>
      <point x="81" y="27"/>
      <point x="108" y="-6"/>
      <point x="198" y="-6" type="curve" smooth="yes"/>
      <point x="279" y="-6" type="line" smooth="yes"/>
      <point x="430" y="-6"/>
      <point x="533.997" y="69.003"/>
      <point x="533.997" y="209.996" type="curve" smooth="yes"/>
      <point x="534" y="329"/>
      <point x="456.007" y="380.991"/>
      <point x="385" y="392" type="curve" smooth="yes"/>
      <point x="369" y="394"/>
      <point x="368" y="405"/>
      <point x="383" y="413" type="curve" smooth="yes"/>
      <point x="423" y="432"/>
      <point x="459" y="468"/>
      <point x="459" y="531" type="curve" smooth="yes"/>
      <point x="459" y="637"/>
      <point x="379" y="682"/>
      <point x="291" y="678" type="curve" smooth="yes"/>
      <point x="141" y="672" type="line" smooth="yes"/>
      <point x="86" y="670"/>
      <point x="51" y="645"/>
      <point x="55" y="579" type="curve" smooth="yes"/>
    </contour>
    <contour>
      <point x="293" y="614" type="line" smooth="yes"/>
      <point x="357" y="618"/>
      <point x="387" y="592"/>
      <point x="387" y="539" type="curve" smooth="yes"/>
      <point x="387" y="481"/>
      <point x="352" y="431"/>
      <point x="288" y="414" type="curve" smooth="yes"/>
      <point x="283" y="414" type="line" smooth="yes"/>
      <point x="251" y="404"/>
      <point x="231" y="417"/>
      <point x="234" y="445" type="curve" smooth="yes"/>
      <point x="241" y="568" type="line" smooth="yes"/>
      <point x="243" y="597"/>
      <point x="255" y="612"/>
      <point x="286" y="614" type="curve" smooth="yes"/>
    </contour>
    <contour>
      <point x="209" y="126" type="curve" smooth="yes"/>
      <point x="209" y="239" type="line" smooth="yes"/>
      <point x="209" y="319"/>
      <point x="252" y="350"/>
      <point x="295" y="351" type="curve" smooth="yes"/>
      <point x="301" y="350.994" type="line" smooth="yes"/>
      <point x="383" y="351"/>
      <point x="429" y="301"/>
      <point x="395" y="199" type="curve" smooth="yes"/>
      <point x="360" y="89"/>
      <point x="314" y="62"/>
      <point x="257" y="62" type="curve" smooth="yes"/>
      <point x="253" y="62" type="line" smooth="yes"/>
      <point x="227" y="62"/>
      <point x="209" y="73"/>
    </contour>
    <contour>
      <point x="470" y="225" type="curve" smooth="yes"/>
      <point x="461" y="225"/>
      <point x="454" y="232"/>
      <point x="454" y="241" type="curve" smooth="yes"/>
      <point x="454" y="249"/>
      <point x="461" y="256"/>
      <point x="470" y="256" type="curve" smooth="yes"/>
      <point x="478" y="256"/>
      <point x="486" y="249"/>
      <point x="486" y="241" type="curve" smooth="yes"/>
      <point x="486" y="232"/>
      <point x="478" y="225"/>
    </contour>
    <contour>
      <point x="456" y="132" type="curve" smooth="yes"/>
      <point x="445" y="132"/>
      <point x="437" y="140"/>
      <point x="437" y="151" type="curve" smooth="yes"/>
      <point x="437" y="160"/>
      <point x="445" y="168"/>
      <point x="456" y="168" type="curve" smooth="yes"/>
      <point x="467" y="168"/>
      <point x="475" y="160"/>
      <point x="475" y="151" type="curve" smooth="yes"/>
      <point x="475" y="140"/>
      <point x="467" y="132"/>
    </contour>
    <contour>
      <point x="412" y="89" type="curve" smooth="yes"/>
      <point x="404" y="89"/>
      <point x="396" y="97"/>
      <point x="396" y="105" type="curve" smooth="yes"/>
      <point x="396" y="114"/>
      <point x="404" y="121"/>
      <point x="412" y="121" type="curve" smooth="yes"/>
      <point x="421" y="121"/>
      <point x="428" y="114"/>
      <point x="428" y="105" type="curve" smooth="yes"/>
      <point x="428" y="97"/>
      <point x="421" y="89"/>
    </contour>
    <contour>
      <point x="192" y="692" type="line" smooth="yes"/>
      <point x="194" y="732"/>
      <point x="117" y="719"/>
      <point x="126" y="681" type="curve" smooth="yes"/>
      <point x="138" y="620" type="line"/>
      <point x="191" y="631" type="line"/>
    </contour>
    <contour>
      <point x="251" y="653" type="line" smooth="yes"/>
      <point x="250" y="675"/>
      <point x="205" y="673"/>
      <point x="206" y="652" type="curve" smooth="yes"/>
      <point x="207" y="629" type="line" smooth="yes"/>
      <point x="208" y="606"/>
      <point x="255" y="608"/>
      <point x="253" y="631" type="curve" smooth="yes"/>
    </contour>
    <contour>
      <point x="337" y="688" type="line" smooth="yes"/>
      <point x="347" y="725"/>
      <point x="273" y="733"/>
      <point x="274" y="697" type="curve" smooth="yes"/>
      <point x="272" y="644" type="line"/>
      <point x="326" y="640" type="line"/>
    </contour>
    <contour>
      <point x="384" y="629" type="line" smooth="yes"/>
      <point x="397" y="656"/>
      <point x="343" y="671"/>
      <point x="339" y="645" type="curve" smooth="yes"/>
      <point x="336" y="628" type="line"/>
      <point x="378" y="617" type="line"/>
    </contour>
    <contour>
      <point x="460" y="612" type="line" smooth="yes"/>
      <point x="493" y="631"/>
      <point x="449" y="691"/>
      <point x="420" y="660" type="curve" smooth="yes"/>
      <point x="383" y="623" type="line"/>
      <point x="414" y="581" type="line"/>
    </contour>
    <contour>
      <point x="437" y="539" type="line" smooth="yes"/>
      <point x="458" y="540"/>
      <point x="452" y="584"/>
      <point x="429" y="580" type="curve" smooth="yes"/>
      <point x="403" y="575" type="line" smooth="yes"/>
      <point x="383" y="571"/>
      <point x="389" y="536"/>
      <point x="407" y="537" type="curve" smooth="yes"/>
    </contour>
    <contour>
      <point x="454" y="455" type="line" smooth="yes"/>
      <point x="483" y="450"/>
      <point x="503" y="517"/>
      <point x="458" y="519" type="curve" smooth="yes"/>
      <point x="422" y="523" type="line"/>
      <point x="409" y="467" type="line"/>
    </contour>
    <contour>
      <point x="170" y="96" type="line" smooth="yes"/>
      <point x="186" y="104"/>
      <point x="173" y="131"/>
      <point x="156" y="125" type="curve" smooth="yes"/>
      <point x="124" y="113" type="line" smooth="yes"/>
      <point x="103" y="106"/>
      <point x="118" y="69"/>
      <point x="136" y="79" type="curve" smooth="yes"/>
    </contour>
    <contour>
      <point x="262" y="34" type="line" smooth="yes"/>
      <point x="272" y="51"/>
      <point x="236" y="65"/>
      <point x="229" y="49" type="curve" smooth="yes"/>
      <point x="219" y="28" type="line" smooth="yes"/>
      <point x="212" y="10"/>
      <point x="239" y="-4"/>
      <point x="248" y="12" type="curve" smooth="yes"/>
    </contour>
    <contour>
      <point x="176" y="28" type="curve" smooth="yes"/>
      <point x="189" y="28"/>
      <point x="199" y="38"/>
      <point x="199" y="52" type="curve" smooth="yes"/>
      <point x="199" y="65"/>
      <point x="189" y="76"/>
      <point x="176" y="76" type="curve" smooth="yes"/>
      <point x="162" y="76"/>
      <point x="151" y="65"/>
      <point x="151" y="52" type="curve" smooth="yes"/>
      <point x="151" y="38"/>
      <point x="162" y="28"/>
    </contour>
  </outline>
</glyph>
<glyph name="C" format="2">
  <advance width="511"/>
  <unicode hex="0043"/>
  <anchor x="238" y="0" name="cedilla"/>
  <anchor x="303" y="739" name="top"/>
  <outline>
    <contour>
      <point x="30" y="321" type="curve" smooth="yes"/>
      <point x="30" y="105"/>
      <point x="134" y="-12"/>
      <point x="285" y="-12" type="curve" smooth="yes"/>
      <point x="353" y="-12"/>
      <point x="402" y="10"/>
      <point x="440" y="47" type="curve" smooth="yes"/>
      <point x="498" y="104"/>
      <point x="478" y="239"/>
      <point x="391" y="239" type="curve" smooth="yes"/>
      <point x="352.007" y="239.002"/>
      <point x="309" y="204"/>
      <point x="234" y="204" type="curve" smooth="yes"/>
      <point x="145" y="203"/>
      <point x="91" y="241"/>
      <point x="91" y="344" type="curve" smooth="yes"/>
      <point x="91" y="467"/>
      <point x="160" y="545"/>
      <point x="280" y="545" type="curve" smooth="yes"/>
      <point x="343" y="545"/>
      <point x="395" y="510"/>
      <point x="427" y="510" type="curve" smooth="yes"/>
      <point x="502" y="510"/>
      <point x="511" y="608"/>
      <point x="469" y="653" type="curve" smooth="yes"/>
      <point x="435" y="691"/>
      <point x="381" y="712"/>
      <point x="322" y="712" type="curve" smooth="yes"/>
      <point x="153" y="712"/>
      <point x="30" y="566"/>
    </contour>
    <contour>
      <point x="177" y="261" type="curve" smooth="yes"/>
      <point x="198" y="261"/>
      <point x="216" y="279"/>
      <point x="216" y="302" type="curve" smooth="yes"/>
      <point x="216" y="324"/>
      <point x="198" y="341"/>
      <point x="177" y="341" type="curve" smooth="yes"/>
      <point x="153" y="341"/>
      <point x="136" y="324"/>
      <point x="136" y="302" type="curve" smooth="yes"/>
      <point x="136" y="279"/>
      <point x="153" y="261"/>
    </contour>
    <contour>
      <point x="178" y="299" type="curve" smooth="yes"/>
      <point x="178" y="299"/>
      <point x="178" y="299"/>
      <point x="178" y="299" type="curve" smooth="yes"/>
      <point x="178" y="299"/>
      <point x="178" y="299"/>
      <point x="178" y="299" type="curve" smooth="yes"/>
      <point x="178" y="299"/>
      <point x="178" y="299"/>
      <point x="178" y="299" type="curve" smooth="yes"/>
      <point x="178" y="299"/>
      <point x="178" y="299"/>
    </contour>
    <contour>
      <point x="217" y="157" type="line" smooth="yes"/>
      <point x="208" y="140"/>
      <point x="175" y="142"/>
      <point x="170" y="163" type="curve" smooth="yes"/>
      <point x="175" y="211" type="line"/>
      <point x="188" y="207"/>
      <point x="200" y="205"/>
      <point x="217" y="204" type="curve"/>
    </contour>
    <contour>
      <point x="257" y="205" type="line"/>
      <point x="247" y="204"/>
      <point x="233" y="203"/>
      <point x="225" y="204" type="curve"/>
      <point x="225" y="204" type="line"/>
      <point x="233" y="203"/>
      <point x="247" y="204"/>
      <point x="257" y="205" type="curve"/>
    </contour>
    <contour>
      <point x="320" y="146" type="line" smooth="yes"/>
      <point x="313" y="127"/>
      <point x="283" y="119"/>
      <point x="272" y="135" type="curve" smooth="yes"/>
      <point x="264" y="206" type="line"/>
      <point x="281" y="208"/>
      <point x="298" y="212"/>
      <point x="315" y="218" type="curve"/>
    </contour>
    <contour>
      <point x="266" y="453" type="line" smooth="yes"/>
      <point x="246" y="489"/>
      <point x="189" y="449"/>
      <point x="218" y="414" type="curve" smooth="yes"/>
      <point x="258" y="364" type="line" smooth="yes"/>
      <point x="278" y="340"/>
      <point x="312" y="368"/>
      <point x="298" y="393" type="curve" smooth="yes"/>
    </contour>
    <contour>
      <point x="203" y="624" type="line"/>
      <point x="246" y="647" type="line"/>
      <point x="238" y="664" type="line" smooth="yes"/>
      <point x="228" y="689"/>
      <point x="177" y="664"/>
      <point x="191" y="642" type="curve" smooth="yes"/>
    </contour>
    <contour>
      <point x="365" y="422" type="line" smooth="yes"/>
      <point x="359" y="461"/>
      <point x="316" y="448"/>
      <point x="322" y="415" type="curve" smooth="yes"/>
      <point x="347" y="293" type="line" smooth="yes"/>
      <point x="352" y="267"/>
      <point x="388" y="277"/>
      <point x="384" y="302" type="curve" smooth="yes"/>
    </contour>
  </outline>
</glyph>
<glyph name="D" format="2">
  <advance width="592"/>
  <unicode hex="0044"/>
  <anchor x="278" y="0" name="bottom"/>
  <anchor x="285" y="691" name="top"/>
  <outline>
    <contour>
      <point x="84" y="77" type="line" smooth="yes"/>
      <point x="86" y="21"/>
      <point x="111" y="-5"/>
      <point x="182" y="-5" type="curve" smooth="yes"/>
      <point x="244" y="-5" type="line" smooth="yes"/>
      <point x="417.998" y="-4.995"/>
      <point x="570" y="101"/>
      <point x="546" y="402" type="curve" smooth="yes"/>
      <point x="534" y="626"/>
      <point x="416" y="696"/>
      <point x="252" y="702" type="curve" smooth="yes"/>
      <point x="166" y="705" type="line" smooth="yes"/>
      <point x="100" y="707"/>
      <point x="67" y="676"/>
      <point x="69" y="617" type="curve" smooth="yes"/>
    </contour>
    <contour>
      <point x="153" y="139" type="curve" smooth="yes"/>
      <point x="148" y="580" type="line" smooth="yes"/>
      <point x="147" y="632"/>
      <point x="181" y="636"/>
      <point x="232" y="632" type="curve" smooth="yes"/>
      <point x="255" y="630" type="line" smooth="yes"/>
      <point x="350" y="622"/>
      <point x="383" y="557"/>
      <point x="348" y="311" type="curve" smooth="yes"/>
      <point x="324" y="143"/>
      <point x="280" y="109"/>
      <point x="206" y="109" type="curve"/>
      <point x="185" y="109" type="line"/>
      <point x="165" y="109"/>
      <point x="153" y="117"/>
    </contour>
    <contour>
      <point x="404" y="185" type="curve" smooth="yes"/>
      <point x="393" y="185"/>
      <point x="382" y="196"/>
      <point x="382" y="208" type="curve" smooth="yes"/>
      <point x="382" y="220"/>
      <point x="393" y="229"/>
      <point x="404" y="229" type="curve" smooth="yes"/>
      <point x="416" y="229"/>
      <point x="426" y="220"/>
      <point x="426" y="208" type="curve" smooth="yes"/>
      <point x="426" y="196"/>
      <point x="416" y="185"/>
    </contour>
    <contour>
      <point x="396" y="98" type="curve" smooth="yes"/>
      <point x="387" y="98"/>
      <point x="378" y="107"/>
      <point x="378" y="116" type="curve" smooth="yes"/>
      <point x="378" y="126"/>
      <point x="387" y="134"/>
      <point x="396" y="134" type="curve" smooth="yes"/>
      <point x="406" y="134"/>
      <point x="414" y="126"/>
      <point x="414" y="116" type="curve" smooth="yes"/>
      <point x="414" y="107"/>
      <point x="406" y="98"/>
    </contour>
    <contour>
      <point x="474" y="309" type="curve" smooth="yes"/>
      <point x="464" y="309"/>
      <point x="456" y="318"/>
      <point x="456" y="327" type="curve" smooth="yes"/>
      <point x="456" y="337"/>
      <point x="464" y="345"/>
      <point x="474" y="345" type="curve" smooth="yes"/>
      <point x="484" y="345"/>
      <point x="491" y="337"/>
      <point x="491" y="327" type="curve" smooth="yes"/>
      <point x="491" y="318"/>
      <point x="484" y="309"/>
    </contour>
    <contour>
      <point x="254" y="531" type="line" smooth="yes"/>
      <point x="221" y="533"/>
      <point x="220" y="472"/>
      <point x="249" y="471" type="curve" smooth="yes"/>
      <point x="356" y="469" type="line" smooth="yes"/>
      <point x="384" y="468"/>
      <point x="385" y="523"/>
      <point x="357" y="525" type="curve" smooth="yes"/>
    </contour>
    <contour>
      <point x="228" y="424" type="line" smooth="yes"/>
      <point x="198" y="420"/>
      <point x="200" y="366"/>
      <point x="230" y="369" type="curve" smooth="yes"/>
      <point x="336" y="379" type="line" smooth="yes"/>
      <point x="362" y="381"/>
      <point x="362" y="441"/>
      <point x="333" y="437" type="curve" smooth="yes"/>
    </contour>
    <contour>
      <point x="123" y="222" type="line" smooth="yes"/>
      <point x="159" y="222"/>
      <point x="157" y="279"/>
      <point x="121" y="279" type="curve" smooth="yes"/>
      <point x="109" y="279" type="line" smooth="yes"/>
      <point x="79" y="279"/>
      <point x="74" y="222"/>
      <point x="109" y="222" type="curve" smooth="yes"/>
    </contour>
    <contour>
      <point x="403" y="563" type="line" smooth="yes"/>
      <point x="375" y="547"/>
      <point x="399" y="502"/>
      <point x="423" y="514" type="curve" smooth="yes"/>
      <point x="463" y="534" type="line" smooth="yes"/>
      <point x="486" y="545"/>
      <point x="465" y="598"/>
      <point x="439" y="583" type="curve" smooth="yes"/>
    </contour>
    <contour>
      <point x="381" y="613" type="line"/>
      <point x="422" y="586" type="line"/>
      <point x="437" y="607" type="line" smooth="yes"/>
      <point x="453" y="629"/>
      <point x="421" y="657"/>
      <point x="403" y="637" type="curve" smooth="yes"/>
    </contour>
  </outline>
</glyph>
<glyph name="E" format="2">
  <advance width="478"/>
  <unicode hex="0045"/>
  <anchor x="245" y="15" name="cedilla"/>
  <anchor x="409" y="28" name="ogonek"/>
  <anchor x="268" y="697" name="top"/>
  <outline>
    <contour>
      <point x="43" y="72" type="line" smooth="yes"/>
      <point x="40" y="35"/>
      <point x="68" y="6"/>
      <point x="115" y="9" type="curve" smooth="yes"/>
      <point x="380" y="22" type="line" smooth="yes"/>
      <point x="466" y="24"/>
      <point x="460" y="174"/>
      <point x="368" y="165" type="curve" smooth="yes"/>
      <point x="202" y="142" type="line" smooth="yes"/>
      <point x="177" y="138"/>
      <point x="167" y="148"/>
      <point x="164" y="176" type="curve" smooth="yes"/>
      <point x="160" y="226" type="line" smooth="yes"/>
      <point x="158" y="243"/>
      <point x="165" y="253"/>
      <point x="180" y="255" type="curve" smooth="yes"/>
      <point x="335" y="270" type="line" smooth="yes"/>
      <point x="377" y="276"/>
      <point x="369" y="342"/>
      <point x="327" y="336" type="curve" smooth="yes"/>
      <point x="156" y="314" type="line" smooth="yes"/>
      <point x="141" y="312"/>
      <point x="133" y="320"/>
      <point x="133" y="336" type="curve" smooth="yes"/>
      <point x="133.998" y="478.995" type="line" smooth="yes"/>
      <point x="134" y="504"/>
      <point x="148" y="517"/>
      <point x="171" y="514" type="curve" smooth="yes"/>
      <point x="355" y="484" type="line" smooth="yes"/>
      <point x="476" y="466"/>
      <point x="493" y="730"/>
      <point x="345" y="707" type="curve" smooth="yes"/>
      <point x="139" y="682" type="line" smooth="yes"/>
      <point x="100" y="676"/>
      <point x="75" y="647"/>
      <point x="73" y="607" type="curve" smooth="yes"/>
    </contour>
    <contour>
      <point x="262" y="174" type="curve" smooth="yes"/>
      <point x="282" y="174"/>
      <point x="297" y="189"/>
      <point x="297" y="210" type="curve" smooth="yes"/>
      <point x="297" y="229"/>
      <point x="282" y="245"/>
      <point x="262" y="245" type="curve" smooth="yes"/>
      <point x="242" y="245"/>
      <point x="226" y="229"/>
      <point x="226" y="210" type="curve" smooth="yes"/>
      <point x="226" y="189"/>
      <point x="242" y="174"/>
    </contour>
    <contour>
      <point x="286" y="496" type="line"/>
      <point x="295" y="546" type="line" smooth="yes"/>
      <point x="307" y="567"/>
      <point x="347" y="562"/>
      <point x="348" y="541" type="curve" smooth="yes"/>
      <point x="333" y="489" type="line"/>
    </contour>
    <contour>
      <point x="200.992" y="509.002" type="line"/>
      <point x="201" y="541" type="line" smooth="yes"/>
      <point x="209" y="562"/>
      <point x="245" y="561"/>
      <point x="252" y="543" type="curve" smooth="yes"/>
      <point x="249" y="502" type="line"/>
    </contour>
    <contour>
      <point x="334" y="86" type="line" smooth="yes"/>
      <point x="331.994" y="61.004"/>
      <point x="368" y="58"/>
      <point x="372" y="82" type="curve" smooth="yes"/>
      <point x="379" y="125" type="line" smooth="yes"/>
      <point x="382" y="148"/>
      <point x="343" y="150"/>
      <point x="341" y="130" type="curve" smooth="yes"/>
    </contour>
    <contour>
      <point x="223" y="47" type="line" smooth="yes"/>
      <point x="225" y="19"/>
      <point x="271" y="29"/>
      <point x="267" y="56" type="curve" smooth="yes"/>
      <point x="260" y="95" type="line" smooth="yes"/>
      <point x="257" y="118"/>
      <point x="218" y="110"/>
      <point x="219" y="90" type="curve" smooth="yes"/>
    </contour>
    <contour>
      <point x="90.999" y="487.006" type="line" smooth="yes"/>
      <point x="73" y="493"/>
      <point x="61" y="458"/>
      <point x="81.996" y="449.005" type="curve" smooth="yes"/>
      <point x="105" y="440" type="line" smooth="yes"/>
      <point x="127" y="430"/>
      <point x="140" y="473"/>
      <point x="115" y="480" type="curve" smooth="yes"/>
    </contour>
    <contour>
      <point x="95" y="422" type="line" smooth="yes"/>
      <point x="75" y="430"/>
      <point x="61" y="385"/>
      <point x="83" y="379" type="curve" smooth="yes"/>
      <point x="101" y="375" type="line" smooth="yes"/>
      <point x="118" y="371"/>
      <point x="130.001" y="407.004"/>
      <point x="111" y="415" type="curve" smooth="yes"/>
    </contour>
    <contour>
      <point x="246" y="314" type="line"/>
      <point x="205" y="301" type="line"/>
      <point x="212" y="286" type="line" smooth="yes"/>
      <point x="219" y="269"/>
      <point x="255" y="277"/>
      <point x="250" y="298" type="curve" smooth="yes"/>
    </contour>
    <contour>
      <point x="314" y="315" type="line" smooth="yes"/>
      <point x="309" y="337"/>
      <point x="271" y="328"/>
      <point x="275" y="308" type="curve" smooth="yes"/>
      <point x="279" y="291" type="line" smooth="yes"/>
      <point x="283" y="273"/>
      <point x="323" y="280"/>
      <point x="318" y="302" type="curve" smooth="yes"/>
    </contour>
  </outline>
</glyph>
<glyph name="F" format="2">
  <advance width="449"/>
  <unicode hex="0046"/>
  <anchor x="209" y="0" name="bottom"/>
  <anchor x="260" y="700" name="top"/>
  <outline>
    <contour>
      <point x="49" y="38" type="line" smooth="yes"/>
      <point x="44" y="-50"/>
      <point x="234" y="-22"/>
      <point x="197" y="65" type="curve" smooth="yes"/>
      <point x="151" y="233" type="line" smooth="yes"/>
      <point x="145" y="256"/>
      <point x="157" y="269"/>
      <point x="180" y="266" type="curve" smooth="yes"/>
      <point x="312" y="248" type="line" smooth="yes"/>
      <point x="364" y="242"/>
      <point x="391" y="310"/>
      <point x="368" y="338" type="curve" smooth="yes"/>
      <point x="317" y="344" type="line" smooth="yes"/>
      <point x="305" y="345"/>
      <point x="300" y="365"/>
      <point x="319" y="365" type="curve" smooth="yes"/>
      <point x="389" y="367" type="line" smooth="yes"/>
      <point x="412" y="394"/>
      <point x="390" y="462"/>
      <point x="336" y="458" type="curve" smooth="yes"/>
      <point x="168" y="437" type="line" smooth="yes"/>
      <point x="144.001" y="433.997"/>
      <point x="130" y="445"/>
      <point x="134" y="470" type="curve" smooth="yes"/>
      <point x="147" y="578" type="line" smooth="yes"/>
      <point x="152" y="604"/>
      <point x="170" y="620"/>
      <point x="196" y="619" type="curve" smooth="yes"/>
      <point x="398" y="612" type="line" smooth="yes"/>
      <point x="463" y="609"/>
      <point x="461" y="718"/>
      <point x="402" y="712" type="curve" smooth="yes"/>
      <point x="136" y="691" type="line" smooth="yes"/>
      <point x="95" y="687"/>
      <point x="70" y="662"/>
      <point x="68" y="620" type="curve" smooth="yes"/>
    </contour>
    <contour>
      <point x="55" y="244" type="line"/>
      <point x="81" y="249" type="line" smooth="yes"/>
      <point x="101" y="253"/>
      <point x="110" y="180"/>
      <point x="84" y="178" type="curve" smooth="yes"/>
      <point x="53" y="175" type="line"/>
    </contour>
    <contour>
      <point x="51" y="140" type="line"/>
      <point x="100" y="144" type="line" smooth="yes"/>
      <point x="120" y="145"/>
      <point x="123" y="82"/>
      <point x="100" y="83" type="curve" smooth="yes"/>
      <point x="49" y="85" type="line"/>
    </contour>
    <contour>
      <point x="59.001" y="350.004" type="line"/>
      <point x="59.001" y="350.004" type="line" smooth="yes"/>
      <point x="59.001" y="350.004"/>
      <point x="57" y="279"/>
      <point x="57" y="279" type="curve" smooth="yes"/>
      <point x="57" y="279" type="line"/>
    </contour>
    <contour>
      <point x="284" y="676" type="curve" smooth="yes"/>
      <point x="280" y="652" type="line"/>
      <point x="323" y="648" type="line"/>
      <point x="326" y="673" type="line" smooth="yes"/>
      <point x="328" y="694"/>
      <point x="288" y="697"/>
    </contour>
    <contour>
      <point x="116" y="556" type="line" smooth="yes"/>
      <point x="143" y="554"/>
      <point x="148" y="600"/>
      <point x="120" y="600" type="curve" smooth="yes"/>
      <point x="101" y="600" type="line" smooth="yes"/>
      <point x="76" y="600"/>
      <point x="71" y="559"/>
      <point x="97" y="557" type="curve" smooth="yes"/>
    </contour>
    <contour>
      <point x="215" y="674" type="curve" smooth="yes"/>
      <point x="222" y="643" type="line" smooth="yes"/>
      <point x="226" y="622"/>
      <point x="267" y="629"/>
      <point x="262" y="649" type="curve" smooth="yes"/>
      <point x="253" y="680" type="line" smooth="yes"/>
      <point x="249" y="696"/>
      <point x="212" y="692"/>
    </contour>
  </outline>
</glyph>
<glyph name="G" format="2">
  <advance width="592"/>
  <unicode hex="0047"/>
  <anchor x="295.008" y="0" name="bottom"/>
  <anchor x="322" y="700" name="top"/>
  <outline>
    <contour>
      <point x="30" y="293" type="curve" smooth="yes"/>
      <point x="30" y="76"/>
      <point x="149" y="2"/>
      <point x="269" y="2" type="curve" smooth="yes"/>
      <point x="337" y="2"/>
      <point x="391" y="30"/>
      <point x="419.991" y="69.006" type="curve" smooth="yes"/>
      <point x="432" y="84"/>
      <point x="445" y="72"/>
      <point x="443" y="55" type="curve" smooth="yes"/>
      <point x="431" y="-12" type="line" smooth="yes"/>
      <point x="420" y="-95"/>
      <point x="582" y="-94"/>
      <point x="574" y="4" type="curve" smooth="yes"/>
      <point x="553.994" y="269.004" type="line" smooth="yes"/>
      <point x="551" y="312"/>
      <point x="529" y="331.003"/>
      <point x="490.991" y="334.002" type="curve" smooth="yes"/>
      <point x="332" y="347" type="line" smooth="yes"/>
      <point x="286" y="352"/>
      <point x="278" y="281"/>
      <point x="329" y="280" type="curve" smooth="yes"/>
      <point x="392" y="279" type="line" smooth="yes"/>
      <point x="424" y="279"/>
      <point x="436" y="258"/>
      <point x="436" y="219" type="curve" smooth="yes"/>
      <point x="436" y="129"/>
      <point x="363" y="72"/>
      <point x="275" y="72" type="curve" smooth="yes"/>
      <point x="178" y="72"/>
      <point x="116" y="135"/>
      <point x="116" y="261" type="curve" smooth="yes"/>
      <point x="116" y="386"/>
      <point x="201" y="439"/>
      <point x="273" y="466" type="curve" smooth="yes"/>
      <point x="343" y="494"/>
      <point x="396" y="488"/>
      <point x="444" y="499" type="curve" smooth="yes"/>
      <point x="502" y="513"/>
      <point x="521" y="548"/>
      <point x="521" y="597" type="curve" smooth="yes"/>
      <point x="521" y="657"/>
      <point x="469" y="712"/>
      <point x="354" y="712" type="curve" smooth="yes"/>
      <point x="213" y="712"/>
      <point x="30" y="650"/>
    </contour>
    <contour>
      <point x="267" y="603" type="curve" smooth="yes"/>
      <point x="257" y="603"/>
      <point x="249" y="611"/>
      <point x="249" y="621" type="curve" smooth="yes"/>
      <point x="249" y="630"/>
      <point x="257" y="638"/>
      <point x="267" y="638" type="curve" smooth="yes"/>
      <point x="276" y="638"/>
      <point x="285" y="630"/>
      <point x="285" y="621" type="curve" smooth="yes"/>
      <point x="285" y="611"/>
      <point x="276" y="603"/>
    </contour>
    <contour>
      <point x="251" y="523" type="curve" smooth="yes"/>
      <point x="238" y="523"/>
      <point x="228" y="534"/>
      <point x="228" y="546" type="curve" smooth="yes"/>
      <point x="228" y="558"/>
      <point x="238" y="568"/>
      <point x="251" y="568" type="curve" smooth="yes"/>
      <point x="263" y="568"/>
      <point x="273" y="558"/>
      <point x="272.993" y="545.991" type="curve" smooth="yes"/>
      <point x="273" y="534"/>
      <point x="263" y="523"/>
    </contour>
    <contour>
      <point x="119" y="409" type="curve" smooth="yes"/>
      <point x="109" y="409"/>
      <point x="101" y="417"/>
      <point x="101" y="427" type="curve" smooth="yes"/>
      <point x="101" y="436"/>
      <point x="109" y="445"/>
      <point x="119" y="445" type="curve" smooth="yes"/>
      <point x="128" y="445"/>
      <point x="137" y="436"/>
      <point x="137" y="427" type="curve" smooth="yes"/>
      <point x="137" y="417"/>
      <point x="128" y="409"/>
    </contour>
    <contour>
      <point x="448" y="222" type="line" smooth="yes"/>
      <point x="478" y="226"/>
      <point x="479" y="273"/>
      <point x="444" y="271" type="curve" smooth="yes"/>
      <point x="378" y="270" type="line" smooth="yes"/>
      <point x="342" y="268"/>
      <point x="344" y="206"/>
      <point x="384" y="212" type="curve" smooth="yes"/>
    </contour>
    <contour>
      <point x="375" y="287" type="line" smooth="yes"/>
      <point x="406" y="286"/>
      <point x="408" y="332"/>
      <point x="378" y="335" type="curve" smooth="yes"/>
      <point x="330" y="340" type="line" smooth="yes"/>
      <point x="297" y="344"/>
      <point x="293" y="290"/>
      <point x="330" y="288" type="curve" smooth="yes"/>
    </contour>
    <contour>
      <point x="438" y="227" type="curve" smooth="yes"/>
      <point x="448" y="227"/>
      <point x="456" y="235"/>
      <point x="456" y="247" type="curve" smooth="yes"/>
      <point x="456" y="257"/>
      <point x="448" y="265"/>
      <point x="438" y="265" type="curve" smooth="yes"/>
      <point x="426" y="265"/>
      <point x="419" y="257"/>
      <point x="419" y="247" type="curve" smooth="yes"/>
      <point x="419" y="235"/>
      <point x="426" y="227"/>
    </contour>
    <contour>
      <point x="152" y="96" type="line" smooth="yes"/>
      <point x="166" y="117"/>
      <point x="123" y="154"/>
      <point x="107" y="130" type="curve" smooth="yes"/>
      <point x="94" y="109" type="line" smooth="yes"/>
      <point x="78" y="85"/>
      <point x="123" y="55"/>
      <point x="139" y="78" type="curve" smooth="yes"/>
    </contour>
    <contour>
      <point x="240" y="46" type="line" smooth="yes"/>
      <point x="247" y="70"/>
      <point x="206" y="86"/>
      <point x="196" y="62" type="curve" smooth="yes"/>
      <point x="190" y="48" type="line" smooth="yes"/>
      <point x="178" y="18"/>
      <point x="228" y="2"/>
      <point x="237" y="33" type="curve" smooth="yes"/>
    </contour>
  </outline>
</glyph>
<glyph name="H" format="2">
  <advance width="557"/>
  <unicode hex="0048"/>
  <anchor x="265" y="-10" name="bottom"/>
  <anchor x="300" y="705" name="top"/>
  <outline>
    <contour>
      <point x="393" y="215" type="line" smooth="yes"/>
      <point x="410" y="214"/>
      <point x="419" y="208"/>
      <point x="417" y="191" type="curve" smooth="yes"/>
      <point x="404" y="11" type="line" smooth="yes"/>
      <point x="399" y="-39"/>
      <point x="490" y="-43"/>
      <point x="491" y="7" type="curve" smooth="yes"/>
      <point x="505" y="636" type="line" smooth="yes"/>
      <point x="507" y="700"/>
      <point x="415" y="698"/>
      <point x="410" y="631" type="curve" smooth="yes"/>
      <point x="404" y="463" type="line" smooth="yes"/>
      <point x="403" y="447"/>
      <point x="396" y="437"/>
      <point x="379" y="435" type="curve" smooth="yes"/>
      <point x="155" y="415" type="line" smooth="yes"/>
      <point x="138" y="413"/>
      <point x="130" y="427"/>
      <point x="130" y="443" type="curve" smooth="yes"/>
      <point x="144" y="684" type="line" smooth="yes"/>
      <point x="146" y="726"/>
      <point x="71" y="728"/>
      <point x="70" y="684" type="curve" smooth="yes"/>
      <point x="54" y="42" type="line" smooth="yes"/>
      <point x="53" y="-2"/>
      <point x="130" y="1"/>
      <point x="130" y="43" type="curve" smooth="yes"/>
      <point x="130.999" y="206.007" type="line" smooth="yes"/>
      <point x="130.999" y="223.007"/>
      <point x="138" y="231.006"/>
      <point x="155" y="230.007" type="curve" smooth="yes"/>
    </contour>
    <contour>
      <point x="301" y="221" type="line"/>
      <point x="306" y="262" type="line" smooth="yes"/>
      <point x="320" y="280"/>
      <point x="353" y="281"/>
      <point x="365" y="263" type="curve" smooth="yes"/>
      <point x="366" y="217" type="line"/>
    </contour>
    <contour>
      <point x="190" y="228" type="line"/>
      <point x="183" y="264" type="line" smooth="yes"/>
      <point x="189" y="288"/>
      <point x="234" y="291"/>
      <point x="246" y="270" type="curve" smooth="yes"/>
      <point x="250" y="224" type="line"/>
    </contour>
    <contour>
      <point x="255" y="390" type="curve" smooth="yes"/>
      <point x="283" y="390"/>
      <point x="306" y="413"/>
      <point x="306" y="440" type="curve" smooth="yes"/>
      <point x="306" y="468"/>
      <point x="283" y="491"/>
      <point x="255" y="491" type="curve" smooth="yes"/>
      <point x="228" y="491"/>
      <point x="205" y="468"/>
      <point x="205" y="440" type="curve" smooth="yes"/>
      <point x="205" y="413"/>
      <point x="228" y="390"/>
    </contour>
    <contour>
      <point x="256" y="412" type="curve" smooth="yes"/>
      <point x="270" y="412"/>
      <point x="285" y="426"/>
      <point x="285" y="441" type="curve" smooth="yes"/>
      <point x="285" y="457"/>
      <point x="270" y="471"/>
      <point x="256" y="471" type="curve" smooth="yes"/>
      <point x="239" y="471"/>
      <point x="226" y="457"/>
      <point x="226" y="441" type="curve" smooth="yes"/>
      <point x="226" y="426"/>
      <point x="239" y="412"/>
    </contour>
    <contour>
      <point x="256" y="423" type="curve" smooth="yes"/>
      <point x="265" y="423"/>
      <point x="273" y="431"/>
      <point x="273" y="440" type="curve" smooth="yes"/>
      <point x="273" y="450"/>
      <point x="265" y="458"/>
      <point x="256" y="458" type="curve" smooth="yes"/>
      <point x="247" y="458"/>
      <point x="239" y="450"/>
      <point x="239" y="440" type="curve" smooth="yes"/>
      <point x="239" y="431"/>
      <point x="247" y="423"/>
    </contour>
    <contour>
      <point x="440" y="166" type="line" smooth="yes"/>
      <point x="414" y="167"/>
      <point x="414" y="129"/>
      <point x="437" y="128" type="curve" smooth="yes"/>
      <point x="470" y="126" type="line" smooth="yes"/>
      <point x="488" y="125"/>
      <point x="493" y="164"/>
      <point x="468" y="165" type="curve" smooth="yes"/>
    </contour>
    <contour>
      <point x="430" y="83" type="line" smooth="yes"/>
      <point x="404" y="81"/>
      <point x="410" y="41"/>
      <point x="432" y="44" type="curve" smooth="yes"/>
      <point x="475" y="50" type="line" smooth="yes"/>
      <point x="492" y="52"/>
      <point x="493" y="88"/>
      <point x="469" y="86" type="curve" smooth="yes"/>
    </contour>
    <contour>
      <point x="84" y="175" type="line" smooth="yes"/>
      <point x="59" y="175"/>
      <point x="61" y="132"/>
      <point x="82" y="132" type="curve" smooth="yes"/>
      <point x="104" y="131" type="line" smooth="yes"/>
      <point x="127" y="131"/>
      <point x="130" y="174"/>
      <point x="102" y="174" type="curve" smooth="yes"/>
    </contour>
  </outline>
</glyph>
<glyph name="I" format="2">
  <advance width="441"/>
  <unicode hex="0049"/>
  <anchor x="310" y="5" name="ogonek"/>
  <anchor x="232" y="707" name="top"/>
  <outline>
    <contour>
      <point x="104" y="-13" type="curve" smooth="yes"/>
      <point x="353" y="-14" type="line" smooth="yes"/>
      <point x="449" y="-14"/>
      <point x="446" y="153"/>
      <point x="347" y="147" type="curve" smooth="yes"/>
      <point x="293" y="143" type="line" smooth="yes"/>
      <point x="274" y="141"/>
      <point x="268" y="151"/>
      <point x="268" y="169" type="curve" smooth="yes"/>
      <point x="263" y="475" type="line" smooth="yes"/>
      <point x="262" y="495"/>
      <point x="269" y="503"/>
      <point x="285" y="504" type="curve" smooth="yes"/>
      <point x="336" y="504" type="line" smooth="yes"/>
      <point x="444" y="506"/>
      <point x="449" y="692"/>
      <point x="336" y="699" type="curve" smooth="yes"/>
      <point x="117" y="715" type="line" smooth="yes"/>
      <point x="-15" y="725"/>
      <point x="-18" y="510"/>
      <point x="105" y="508" type="curve" smooth="yes"/>
      <point x="152.995" y="506.998" type="line" smooth="yes"/>
      <point x="173" y="506"/>
      <point x="181" y="498"/>
      <point x="183" y="474" type="curve" smooth="yes"/>
      <point x="207" y="162" type="line" smooth="yes"/>
      <point x="208" y="145"/>
      <point x="203" y="138"/>
      <point x="186" y="136" type="curve" smooth="yes"/>
      <point x="103" y="126" type="line" smooth="yes"/>
      <point x="10" y="122"/>
      <point x="15" y="-13"/>
    </contour>
    <contour>
      <point x="204" y="454" type="line"/>
      <point x="207" y="406" type="line"/>
      <point x="232" y="409" type="line" smooth="yes"/>
      <point x="258" y="412"/>
      <point x="256" y="458"/>
      <point x="227" y="456" type="curve" smooth="yes"/>
    </contour>
    <contour>
      <point x="170" y="274" type="line" smooth="yes"/>
      <point x="133" y="275"/>
      <point x="131" y="223"/>
      <point x="166" y="220" type="curve" smooth="yes"/>
      <point x="317" y="205" type="line" smooth="yes"/>
      <point x="352" y="202"/>
      <point x="354" y="266"/>
      <point x="319" y="267" type="curve" smooth="yes"/>
    </contour>
    <contour>
      <point x="230" y="330" type="line" smooth="yes"/>
      <point x="196" y="330"/>
      <point x="201" y="277"/>
      <point x="233" y="283" type="curve" smooth="yes"/>
      <point x="250" y="286" type="line"/>
      <point x="246" y="330" type="line"/>
    </contour>
    <contour>
      <point x="174" y="219" type="line" smooth="yes"/>
      <point x="138" y="215"/>
      <point x="145" y="146"/>
      <point x="187" y="155" type="curve" smooth="yes"/>
      <point x="276" y="180" type="line" smooth="yes"/>
      <point x="309" y="186"/>
      <point x="304" y="242"/>
      <point x="269" y="238" type="curve" smooth="yes"/>
    </contour>
    <contour>
      <point x="138" y="714" type="line"/>
      <point x="182" y="710" type="line"/>
      <point x="181" y="667" type="line" smooth="yes"/>
      <point x="180" y="652"/>
      <point x="133" y="651"/>
      <point x="134" y="669" type="curve" smooth="yes"/>
    </contour>
    <contour>
      <point x="216" y="708" type="line"/>
      <point x="269" y="704" type="line"/>
      <point x="271" y="675" type="line" smooth="yes"/>
      <point x="272" y="653"/>
      <point x="219" y="652"/>
      <point x="218" y="674" type="curve" smooth="yes"/>
    </contour>
    <contour>
      <point x="293" y="702" type="line"/>
      <point x="328" y="700" type="line"/>
      <point x="328" y="700" type="line"/>
      <point x="328" y="700"/>
      <point x="293" y="702"/>
      <point x="293" y="702" type="curve"/>
    </contour>
    <contour>
      <point x="225" y="-14" type="line"/>
      <point x="225" y="-14" type="line"/>
      <point x="225" y="-14"/>
      <point x="265" y="-14"/>
      <point x="265" y="-14" type="curve"/>
      <point x="265" y="-14" type="line"/>
    </contour>
    <contour>
      <point x="291" y="-14" type="line"/>
      <point x="291" y="-14" type="line"/>
      <point x="291" y="-14"/>
      <point x="332" y="-14"/>
      <point x="332" y="-14" type="curve"/>
      <point x="332" y="-14" type="line"/>
    </contour>
  </outline>
</glyph>
<glyph name="J" format="2">
  <advance width="514"/>
  <unicode hex="004A"/>
  <anchor x="259" y="0" name="bottom"/>
  <anchor x="267" y="709" name="top"/>
  <outline>
    <contour>
      <point x="231" y="-18" type="curve" smooth="yes"/>
      <point x="361" y="-18"/>
      <point x="460" y="48"/>
      <point x="448" y="239" type="curve" smooth="yes"/>
      <point x="430" y="610" type="line" smooth="yes"/>
      <point x="427" y="668"/>
      <point x="416" y="702"/>
      <point x="358" y="704" type="curve" smooth="yes"/>
      <point x="145" y="712" type="line" smooth="yes"/>
      <point x="54" y="714"/>
      <point x="56" y="571"/>
      <point x="143" y="572" type="curve" smooth="yes"/>
      <point x="326" y="576" type="line" smooth="yes"/>
      <point x="356" y="577"/>
      <point x="365" y="564"/>
      <point x="367" y="528" type="curve" smooth="yes"/>
      <point x="381" y="274" type="line" smooth="yes"/>
      <point x="384" y="182"/>
      <point x="338" y="138"/>
      <point x="268" y="138" type="curve" smooth="yes"/>
      <point x="210" y="138"/>
      <point x="191" y="164"/>
      <point x="173" y="224" type="curve" smooth="yes"/>
      <point x="131" y="305"/>
      <point x="14" y="242"/>
      <point x="38" y="128" type="curve" smooth="yes"/>
      <point x="57" y="26"/>
      <point x="133" y="-18"/>
    </contour>
    <contour>
      <point x="400" y="547" type="line" smooth="yes"/>
      <point x="429" y="552"/>
      <point x="423" y="603"/>
      <point x="395" y="600" type="curve" smooth="yes"/>
      <point x="201" y="574" type="line" smooth="yes"/>
      <point x="158" y="570"/>
      <point x="169" y="498"/>
      <point x="208" y="506" type="curve" smooth="yes"/>
    </contour>
    <contour>
      <point x="413" y="537" type="line"/>
      <point x="410" y="574" type="line"/>
      <point x="390" y="572" type="line" smooth="yes"/>
      <point x="363" y="568"/>
      <point x="365" y="531"/>
      <point x="390" y="534" type="curve" smooth="yes"/>
    </contour>
    <contour>
      <point x="414" y="484" type="line" smooth="yes"/>
      <point x="434" y="488"/>
      <point x="429" y="527"/>
      <point x="409" y="523" type="curve" smooth="yes"/>
      <point x="389" y="520" type="line" smooth="yes"/>
      <point x="367" y="516"/>
      <point x="374" y="475"/>
      <point x="393" y="479" type="curve" smooth="yes"/>
    </contour>
    <contour>
      <point x="411" y="501" type="line"/>
      <point x="411" y="443" type="line"/>
      <point x="453" y="440" type="line" smooth="yes"/>
      <point x="488" y="439"/>
      <point x="489" y="507"/>
      <point x="453" y="504" type="curve" smooth="yes"/>
    </contour>
    <contour>
      <point x="170" y="254" type="curve" smooth="yes"/>
      <point x="192" y="254"/>
      <point x="211" y="273"/>
      <point x="211" y="296" type="curve" smooth="yes"/>
      <point x="211" y="319"/>
      <point x="192" y="338"/>
      <point x="170" y="338" type="curve" smooth="yes"/>
      <point x="146" y="338"/>
      <point x="127" y="319"/>
      <point x="127" y="296" type="curve" smooth="yes"/>
      <point x="127" y="273"/>
      <point x="146" y="254"/>
    </contour>
    <contour>
      <point x="177" y="303" type="curve" smooth="yes"/>
      <point x="177" y="303"/>
      <point x="177" y="303"/>
      <point x="177" y="303" type="curve" smooth="yes"/>
      <point x="177" y="303"/>
      <point x="177" y="303"/>
      <point x="177" y="303" type="curve" smooth="yes"/>
      <point x="177" y="303"/>
      <point x="177" y="303"/>
      <point x="177" y="303" type="curve" smooth="yes"/>
      <point x="177" y="303"/>
      <point x="177" y="303"/>
    </contour>
    <contour>
      <point x="162" y="122" type="curve" smooth="yes"/>
      <point x="154" y="122"/>
      <point x="147" y="129"/>
      <point x="147" y="138" type="curve" smooth="yes"/>
      <point x="147" y="147"/>
      <point x="154" y="153"/>
      <point x="162" y="153" type="curve" smooth="yes"/>
      <point x="171" y="153"/>
      <point x="178" y="147"/>
      <point x="178" y="138" type="curve" smooth="yes"/>
      <point x="178" y="129"/>
      <point x="171" y="122"/>
    </contour>
    <contour>
      <point x="162" y="72" type="curve" smooth="yes"/>
      <point x="151" y="72"/>
      <point x="142" y="81"/>
      <point x="142" y="91" type="curve" smooth="yes"/>
      <point x="142" y="102"/>
      <point x="151" y="110"/>
      <point x="162" y="110" type="curve" smooth="yes"/>
      <point x="173" y="110"/>
      <point x="181" y="102"/>
      <point x="181" y="91" type="curve" smooth="yes"/>
      <point x="181" y="81"/>
      <point x="173" y="72"/>
    </contour>
    <contour>
      <point x="266" y="73" type="curve" smooth="yes"/>
      <point x="257" y="73"/>
      <point x="249" y="81"/>
      <point x="249" y="90" type="curve" smooth="yes"/>
      <point x="249" y="100"/>
      <point x="257" y="107"/>
      <point x="266" y="107" type="curve" smooth="yes"/>
      <point x="276" y="107"/>
      <point x="283" y="100"/>
      <point x="283" y="90" type="curve" smooth="yes"/>
      <point x="283" y="81"/>
      <point x="276" y="73"/>
    </contour>
  </outline>
</glyph>
<glyph name="K" format="2">
  <advance width="588"/>
  <unicode hex="004B"/>
  <anchor x="271" y="-8" name="bottom"/>
  <anchor x="285" y="685" name="top"/>
  <outline>
    <contour>
      <point x="67" y="16" type="line" smooth="yes"/>
      <point x="69" y="-27"/>
      <point x="138" y="-24"/>
      <point x="137.992" y="18.004" type="curve" smooth="yes"/>
      <point x="135" y="206" type="line" smooth="yes"/>
      <point x="134" y="232"/>
      <point x="150" y="234"/>
      <point x="169" y="216" type="curve" smooth="yes"/>
      <point x="381" y="13" type="line" smooth="yes"/>
      <point x="464" y="-67"/>
      <point x="569" y="1"/>
      <point x="569" y="91" type="curve" smooth="yes"/>
      <point x="569" y="149"/>
      <point x="554" y="184"/>
      <point x="510" y="202" type="curve" smooth="yes"/>
      <point x="496" y="209" type="line"/>
      <point x="492" y="145" type="line" smooth="yes"/>
      <point x="492" y="123"/>
      <point x="439" y="146"/>
      <point x="442" y="165" type="curve" smooth="yes"/>
      <point x="449" y="231" type="line"/>
      <point x="408.005" y="249.991" type="line"/>
      <point x="400" y="219" type="line" smooth="yes"/>
      <point x="395" y="200"/>
      <point x="340" y="229"/>
      <point x="349" y="247" type="curve" smooth="yes"/>
      <point x="360" y="272" type="line"/>
      <point x="253" y="320" type="line" smooth="yes"/>
      <point x="235" y="329"/>
      <point x="229" y="347"/>
      <point x="248" y="367" type="curve" smooth="yes"/>
      <point x="518" y="644" type="line" smooth="yes"/>
      <point x="554" y="681"/>
      <point x="494" y="739"/>
      <point x="460" y="701" type="curve" smooth="yes"/>
      <point x="165" y="368" type="line" smooth="yes"/>
      <point x="148" y="348"/>
      <point x="131" y="351"/>
      <point x="131" y="373" type="curve" smooth="yes"/>
      <point x="124" y="664" type="line" smooth="yes"/>
      <point x="122.008" y="713.007"/>
      <point x="45" y="712"/>
      <point x="47" y="662" type="curve" smooth="yes"/>
    </contour>
    <contour>
      <point x="324" y="314" type="curve" smooth="yes"/>
      <point x="346" y="314"/>
      <point x="365" y="333"/>
      <point x="365" y="356" type="curve" smooth="yes"/>
      <point x="365" y="379"/>
      <point x="346" y="397"/>
      <point x="324" y="397" type="curve" smooth="yes"/>
      <point x="300" y="397"/>
      <point x="282" y="379"/>
      <point x="282" y="356" type="curve" smooth="yes"/>
      <point x="282" y="333"/>
      <point x="300" y="314"/>
    </contour>
    <contour>
      <point x="386" y="633" type="line" smooth="yes"/>
      <point x="357" y="653"/>
      <point x="324" y="603"/>
      <point x="352" y="582" type="curve" smooth="yes"/>
      <point x="423" y="522" type="line" smooth="yes"/>
      <point x="450" y="501"/>
      <point x="496" y="556"/>
      <point x="458" y="582" type="curve" smooth="yes"/>
    </contour>
    <contour>
      <point x="302" y="567" type="line" smooth="yes"/>
      <point x="271" y="591"/>
      <point x="228" y="532"/>
      <point x="265" y="508" type="curve" smooth="yes"/>
      <point x="323" y="472" type="line" smooth="yes"/>
      <point x="343" y="459"/>
      <point x="379" y="505"/>
      <point x="351" y="526" type="curve" smooth="yes"/>
    </contour>
    <contour>
      <point x="82" y="185" type="line" smooth="yes"/>
      <point x="63" y="184"/>
      <point x="67" y="144"/>
      <point x="86" y="146" type="curve" smooth="yes"/>
      <point x="118" y="149" type="line" smooth="yes"/>
      <point x="136" y="151"/>
      <point x="134" y="187"/>
      <point x="112" y="186" type="curve" smooth="yes"/>
    </contour>
    <contour>
      <point x="87.996" y="84.997" type="line" smooth="yes"/>
      <point x="67.999" y="84.997"/>
      <point x="65.999" y="47.997"/>
      <point x="87.996" y="47.997" type="curve" smooth="yes"/>
      <point x="112.993" y="47.997" type="line" smooth="yes"/>
      <point x="137" y="48"/>
      <point x="138" y="85"/>
      <point x="115.993" y="84.997" type="curve" smooth="yes"/>
    </contour>
    <contour>
      <point x="94" y="434" type="curve" smooth="yes"/>
      <point x="105" y="434"/>
      <point x="115" y="444"/>
      <point x="115" y="456" type="curve" smooth="yes"/>
      <point x="115" y="467"/>
      <point x="105" y="477"/>
      <point x="94" y="477" type="curve" smooth="yes"/>
      <point x="82" y="477"/>
      <point x="72" y="467"/>
      <point x="72" y="456" type="curve" smooth="yes"/>
      <point x="72" y="444"/>
      <point x="82" y="434"/>
    </contour>
    <contour>
      <point x="89" y="558" type="curve" smooth="yes"/>
      <point x="99.008" y="557.998"/>
      <point x="109" y="567"/>
      <point x="109" y="579" type="curve" smooth="yes"/>
      <point x="109" y="590"/>
      <point x="99" y="599"/>
      <point x="89" y="599" type="curve" smooth="yes"/>
      <point x="77" y="599"/>
      <point x="67" y="590"/>
      <point x="67" y="579" type="curve" smooth="yes"/>
      <point x="67" y="567"/>
      <point x="77" y="558"/>
    </contour>
  </outline>
</glyph>
<glyph name="L" format="2">
  <advance width="489"/>
  <unicode hex="004C"/>
  <anchor x="250" y="0" name="bottom"/>
  <anchor x="145" y="710" name="top"/>
  <outline>
    <contour>
      <point x="66" y="103" type="line" smooth="yes"/>
      <point x="61" y="26"/>
      <point x="100" y="-13"/>
      <point x="163" y="-11" type="curve" smooth="yes"/>
      <point x="372" y="-2" type="line" smooth="yes"/>
      <point x="527" y="5"/>
      <point x="488" y="298"/>
      <point x="346" y="229" type="curve" smooth="yes"/>
      <point x="176" y="165" type="line" smooth="yes"/>
      <point x="154" y="157"/>
      <point x="134" y="168"/>
      <point x="137" y="200" type="curve" smooth="yes"/>
      <point x="179" y="681" type="line" smooth="yes"/>
      <point x="183" y="728"/>
      <point x="104" y="734"/>
      <point x="101" y="686" type="curve" smooth="yes"/>
    </contour>
    <contour>
      <point x="137" y="372" type="line"/>
      <point x="146" y="441" type="line"/>
      <point x="81" y="447" type="line" smooth="yes"/>
      <point x="44" y="451"/>
      <point x="33" y="384"/>
      <point x="80" y="379" type="curve" smooth="yes"/>
    </contour>
    <contour>
      <point x="116" y="566" type="line" smooth="yes"/>
      <point x="88" y="561"/>
      <point x="96" y="514"/>
      <point x="122" y="520" type="curve" smooth="yes"/>
      <point x="149" y="527" type="line" smooth="yes"/>
      <point x="167" y="532"/>
      <point x="163" y="574"/>
      <point x="138" y="569" type="curve" smooth="yes"/>
    </contour>
    <contour>
      <point x="131" y="480" type="line"/>
      <point x="127" y="418" type="line"/>
      <point x="188" y="411" type="line" smooth="yes"/>
      <point x="225" y="407"/>
      <point x="235" y="477"/>
      <point x="188" y="479" type="curve" smooth="yes"/>
    </contour>
    <contour>
      <point x="95" y="297" type="line"/>
      <point x="125" y="302" type="line" smooth="yes"/>
      <point x="150" y="307"/>
      <point x="145" y="351"/>
      <point x="121" y="348" type="curve" smooth="yes"/>
      <point x="90" y="345" type="line"/>
    </contour>
    <contour>
      <point x="208" y="173" type="line"/>
      <point x="208" y="173" type="line"/>
      <point x="208" y="173"/>
      <point x="179" y="166"/>
      <point x="179" y="166" type="curve"/>
      <point x="179" y="166" type="line"/>
    </contour>
    <contour>
      <point x="260" y="195" type="line"/>
      <point x="270" y="170" type="line" smooth="yes"/>
      <point x="277" y="153"/>
      <point x="236" y="144"/>
      <point x="228" y="160" type="curve" smooth="yes"/>
      <point x="220" y="178" type="line"/>
    </contour>
    <contour>
      <point x="329" y="224" type="line"/>
      <point x="356" y="195" type="line" smooth="yes"/>
      <point x="370" y="179"/>
      <point x="326" y="158"/>
      <point x="313" y="176" type="curve" smooth="yes"/>
      <point x="290" y="208" type="line"/>
    </contour>
  </outline>
</glyph>
<glyph name="M" format="2">
  <advance width="770"/>
  <unicode hex="004D"/>
  <anchor x="365.993" y="0" name="bottom"/>
  <anchor x="389" y="700" name="top"/>
  <outline>
    <contour>
      <point x="20" y="45" type="line" smooth="yes"/>
      <point x="14" y="-11"/>
      <point x="91" y="-9"/>
      <point x="95" y="36" type="curve" smooth="yes"/>
      <point x="122" y="304" type="line" smooth="yes"/>
      <point x="127" y="346"/>
      <point x="155" y="351"/>
      <point x="180" y="316" type="curve" smooth="yes"/>
      <point x="310" y="126" type="line" smooth="yes"/>
      <point x="343" y="80"/>
      <point x="407" y="76"/>
      <point x="432" y="127" type="curve" smooth="yes"/>
      <point x="525" y="312" type="line" smooth="yes"/>
      <point x="545" y="348"/>
      <point x="586" y="338"/>
      <point x="591" y="295" type="curve" smooth="yes"/>
      <point x="620" y="42" type="line" smooth="yes"/>
      <point x="631" y="-41"/>
      <point x="762" y="-23"/>
      <point x="749" y="59" type="curve" smooth="yes"/>
      <point x="664" y="643" type="line" smooth="yes"/>
      <point x="653" y="720"/>
      <point x="543" y="722"/>
      <point x="524" y="655" type="curve" smooth="yes"/>
      <point x="416" y="284" type="line" smooth="yes"/>
      <point x="404" y="244"/>
      <point x="374.007" y="242.998"/>
      <point x="361.006" y="282.995" type="curve" smooth="yes"/>
      <point x="230" y="672" type="line" smooth="yes"/>
      <point x="205" y="750"/>
      <point x="98" y="738"/>
      <point x="90" y="664" type="curve" smooth="yes"/>
    </contour>
    <contour>
      <point x="244" y="630" type="line"/>
      <point x="263" y="572" type="line"/>
      <point x="221" y="561" type="line" smooth="yes"/>
      <point x="201" y="566"/>
      <point x="190" y="601"/>
      <point x="203" y="616" type="curve" smooth="yes"/>
    </contour>
    <contour>
      <point x="277" y="529" type="line"/>
      <point x="294" y="480" type="line"/>
      <point x="242" y="466" type="line" smooth="yes"/>
      <point x="214" y="468"/>
      <point x="200" y="513"/>
      <point x="224" y="524" type="curve" smooth="yes"/>
    </contour>
    <contour>
      <point x="515" y="386" type="curve" smooth="yes"/>
      <point x="502" y="386"/>
      <point x="492" y="396"/>
      <point x="492" y="409" type="curve" smooth="yes"/>
      <point x="492" y="422"/>
      <point x="502" y="432"/>
      <point x="515" y="432" type="curve" smooth="yes"/>
      <point x="528" y="432"/>
      <point x="538" y="422"/>
      <point x="538" y="409" type="curve" smooth="yes"/>
      <point x="538" y="396"/>
      <point x="528" y="386"/>
    </contour>
    <contour>
      <point x="372" y="124" type="curve" smooth="yes"/>
      <point x="387" y="124"/>
      <point x="401" y="137"/>
      <point x="401" y="154" type="curve" smooth="yes"/>
      <point x="401" y="171"/>
      <point x="387" y="185"/>
      <point x="372" y="185" type="curve" smooth="yes"/>
      <point x="353" y="185"/>
      <point x="340" y="171"/>
      <point x="340" y="154" type="curve" smooth="yes"/>
      <point x="340" y="137"/>
      <point x="353" y="124"/>
    </contour>
    <contour>
      <point x="694.002" y="81.007" type="line" smooth="yes"/>
      <point x="724" y="82"/>
      <point x="718.003" y="124.008"/>
      <point x="693" y="121" type="curve" smooth="yes"/>
      <point x="657" y="116" type="line" smooth="yes"/>
      <point x="632" y="113"/>
      <point x="634" y="81"/>
      <point x="658" y="81" type="curve" smooth="yes"/>
    </contour>
    <contour>
      <point x="642" y="189" type="curve" smooth="yes"/>
      <point x="687" y="192" type="line" smooth="yes"/>
      <point x="709.998" y="193.996"/>
      <point x="711.998" y="223.995"/>
      <point x="687.996" y="224.995" type="curve" smooth="yes"/>
      <point x="642" y="226" type="line" smooth="yes"/>
      <point x="619" y="227"/>
      <point x="614" y="187"/>
    </contour>
    <contour>
      <point x="71" y="117" type="line" smooth="yes"/>
      <point x="102" y="116"/>
      <point x="96" y="155"/>
      <point x="71" y="154" type="curve" smooth="yes"/>
      <point x="54" y="153" type="line" smooth="yes"/>
      <point x="29" y="152"/>
      <point x="31" y="118"/>
      <point x="55" y="117" type="curve" smooth="yes"/>
    </contour>
    <contour>
      <point x="72" y="214" type="curve" smooth="yes"/>
      <point x="88" y="214" type="line" smooth="yes"/>
      <point x="111" y="215"/>
      <point x="113" y="246"/>
      <point x="89" y="245" type="curve" smooth="yes"/>
      <point x="67" y="245" type="line" smooth="yes"/>
      <point x="47" y="244"/>
      <point x="47" y="213"/>
    </contour>
    <contour>
      <point x="485" y="238" type="line"/>
      <point x="485" y="238" type="line"/>
      <point x="485" y="238"/>
      <point x="513" y="291"/>
      <point x="513" y="291" type="curve"/>
      <point x="513" y="291" type="line"/>
    </contour>
  </outline>
</glyph>
<glyph name="N" format="2">
  <advance width="646"/>
  <unicode hex="004E"/>
  <anchor x="366" y="35" name="bottom"/>
  <anchor x="349.993" y="700" name="top"/>
  <outline>
    <contour>
      <point x="50" y="75" type="line" smooth="yes"/>
      <point x="47" y="-59"/>
      <point x="281" y="-48"/>
      <point x="263" y="90" type="curve" smooth="yes"/>
      <point x="223" y="420" type="line" smooth="yes"/>
      <point x="215" y="483"/>
      <point x="279" y="492"/>
      <point x="297" y="448" type="curve" smooth="yes"/>
      <point x="434" y="107" type="line" smooth="yes"/>
      <point x="465" y="30"/>
      <point x="564" y="46"/>
      <point x="567" y="131" type="curve" smooth="yes"/>
      <point x="581" y="698" type="line" smooth="yes"/>
      <point x="583" y="743"/>
      <point x="511" y="746"/>
      <point x="511" y="699" type="curve" smooth="yes"/>
      <point x="504" y="272" type="line" smooth="yes"/>
      <point x="503" y="230"/>
      <point x="458.997" y="224.007"/>
      <point x="443.998" y="265.004" type="curve" smooth="yes"/>
      <point x="314.001" y="623.994" type="line" smooth="yes"/>
      <point x="260.999" y="769.999"/>
      <point x="63.996" y="729.997"/>
      <point x="60" y="591" type="curve" smooth="yes"/>
    </contour>
    <contour>
      <point x="485" y="645" type="line" smooth="yes"/>
      <point x="443" y="647"/>
      <point x="443" y="574"/>
      <point x="485" y="574" type="curve" smooth="yes"/>
      <point x="585" y="575" type="line" smooth="yes"/>
      <point x="620" y="575"/>
      <point x="620" y="634"/>
      <point x="585" y="636" type="curve" smooth="yes"/>
    </contour>
    <contour>
      <point x="487" y="508" type="line" smooth="yes"/>
      <point x="456" y="506"/>
      <point x="456" y="449"/>
      <point x="487" y="449" type="curve" smooth="yes"/>
      <point x="584" y="449" type="line" smooth="yes"/>
      <point x="619" y="449"/>
      <point x="620" y="517"/>
      <point x="583" y="515" type="curve" smooth="yes"/>
    </contour>
    <contour>
      <point x="526.992" y="398.993" type="line" smooth="yes"/>
      <point x="505" y="399"/>
      <point x="505" y="359"/>
      <point x="526" y="358" type="curve" smooth="yes"/>
      <point x="549" y="357" type="line" smooth="yes"/>
      <point x="573" y="356"/>
      <point x="574" y="397"/>
      <point x="548" y="398" type="curve" smooth="yes"/>
    </contour>
    <contour>
      <point x="56" y="324" type="line"/>
      <point x="98" y="335" type="line" smooth="yes"/>
      <point x="115" y="340"/>
      <point x="123" y="277"/>
      <point x="98" y="272" type="curve" smooth="yes"/>
      <point x="54.006" y="263.997" type="line"/>
    </contour>
    <contour>
      <point x="54.006" y="253.995" type="line"/>
      <point x="54.006" y="253.995" type="line"/>
      <point x="54.006" y="253.995"/>
      <point x="53" y="216"/>
      <point x="53" y="216" type="curve"/>
      <point x="53" y="216" type="line"/>
    </contour>
    <contour>
      <point x="53" y="206" type="line"/>
      <point x="94" y="208" type="line" smooth="yes"/>
      <point x="121" y="209"/>
      <point x="123" y="129"/>
      <point x="96" y="131" type="curve" smooth="yes"/>
      <point x="52" y="136" type="line"/>
    </contour>
    <contour>
      <point x="498" y="149" type="curve" smooth="yes"/>
      <point x="508" y="149"/>
      <point x="517" y="158"/>
      <point x="517" y="169" type="curve" smooth="yes"/>
      <point x="517" y="180"/>
      <point x="508" y="189"/>
      <point x="498" y="189" type="curve" smooth="yes"/>
      <point x="486" y="189"/>
      <point x="477" y="180"/>
      <point x="477" y="169" type="curve" smooth="yes"/>
      <point x="477" y="158"/>
      <point x="486" y="149"/>
    </contour>
    <contour>
      <point x="222" y="555" type="curve" smooth="yes"/>
      <point x="232" y="555"/>
      <point x="241" y="564"/>
      <point x="241" y="575" type="curve" smooth="yes"/>
      <point x="241" y="585"/>
      <point x="232" y="593"/>
      <point x="222" y="593" type="curve" smooth="yes"/>
      <point x="211" y="593"/>
      <point x="203" y="585"/>
      <point x="203" y="575" type="curve" smooth="yes"/>
      <point x="203" y="564"/>
      <point x="211" y="555"/>
    </contour>
    <contour>
      <point x="348" y="406" type="line" smooth="yes"/>
      <point x="331" y="396"/>
      <point x="349" y="363"/>
      <point x="365" y="371" type="curve" smooth="yes"/>
      <point x="385" y="381" type="line"/>
      <point x="367" y="418" type="line"/>
    </contour>
    <contour>
      <point x="368" y="334" type="line" smooth="yes"/>
      <point x="350" y="323"/>
      <point x="375" y="279"/>
      <point x="392" y="290" type="curve" smooth="yes"/>
      <point x="411" y="303" type="line" smooth="yes"/>
      <point x="425" y="312"/>
      <point x="402" y="356"/>
      <point x="384" y="345" type="curve" smooth="yes"/>
    </contour>
  </outline>
</glyph>
<glyph name="O" format="2">
  <advance width="616"/>
  <unicode hex="004F"/>
  <anchor x="312" y="0" name="bottom"/>
  <anchor x="316.997" y="700" name="top"/>
  <outline>
    <contour>
      <point x="307" y="-13" type="curve" smooth="yes"/>
      <point x="482.991" y="-13.001"/>
      <point x="586" y="126"/>
      <point x="586" y="363" type="curve" smooth="yes"/>
      <point x="587" y="590"/>
      <point x="482" y="716"/>
      <point x="314.999" y="715.998" type="curve" smooth="yes"/>
      <point x="135.999" y="715.998"/>
      <point x="30" y="567"/>
      <point x="30" y="340" type="curve" smooth="yes"/>
      <point x="30" y="121"/>
      <point x="128.007" y="-13.001"/>
    </contour>
    <contour>
      <point x="321" y="143" type="curve" smooth="yes"/>
      <point x="227" y="143"/>
      <point x="178" y="228"/>
      <point x="178" y="379" type="curve" smooth="yes"/>
      <point x="178" y="533"/>
      <point x="241" y="646"/>
      <point x="345" y="646" type="curve" smooth="yes"/>
      <point x="437" y="646"/>
      <point x="508" y="564"/>
      <point x="508" y="409" type="curve" smooth="yes"/>
      <point x="508" y="246"/>
      <point x="412" y="143"/>
    </contour>
    <contour>
      <point x="446" y="131" type="curve" smooth="yes"/>
      <point x="456" y="131"/>
      <point x="464" y="123"/>
      <point x="464" y="113" type="curve" smooth="yes"/>
      <point x="464" y="103"/>
      <point x="456" y="95"/>
      <point x="446" y="95" type="curve" smooth="yes"/>
      <point x="436" y="95"/>
      <point x="429" y="103"/>
      <point x="429" y="113" type="curve" smooth="yes"/>
      <point x="429" y="123"/>
      <point x="436" y="131"/>
    </contour>
    <contour>
      <point x="381" y="103" type="curve" smooth="yes"/>
      <point x="393" y="103"/>
      <point x="403" y="93"/>
      <point x="403" y="80" type="curve" smooth="yes"/>
      <point x="403" y="68"/>
      <point x="393" y="59"/>
      <point x="381" y="59" type="curve" smooth="yes"/>
      <point x="368" y="59"/>
      <point x="359" y="68"/>
      <point x="359" y="80" type="curve" smooth="yes"/>
      <point x="359" y="93"/>
      <point x="368" y="103"/>
    </contour>
    <contour>
      <point x="289" y="80" type="curve" smooth="yes"/>
      <point x="300" y="80"/>
      <point x="307" y="73"/>
      <point x="307" y="62" type="curve" smooth="yes"/>
      <point x="307" y="52"/>
      <point x="300" y="45"/>
      <point x="289" y="45" type="curve" smooth="yes"/>
      <point x="279" y="45"/>
      <point x="272" y="52"/>
      <point x="272" y="62" type="curve" smooth="yes"/>
      <point x="272" y="73"/>
      <point x="279" y="80"/>
    </contour>
    <contour>
      <point x="353" y="366" type="line" smooth="yes"/>
      <point x="360" y="394"/>
      <point x="314" y="407"/>
      <point x="306" y="377" type="curve" smooth="yes"/>
      <point x="294" y="336" type="line" smooth="yes"/>
      <point x="284" y="300"/>
      <point x="333" y="287"/>
      <point x="341" y="321" type="curve" smooth="yes"/>
    </contour>
    <contour>
      <point x="375" y="415" type="line" smooth="yes"/>
      <point x="347" y="441"/>
      <point x="314" y="395"/>
      <point x="335" y="375" type="curve" smooth="yes"/>
      <point x="374" y="336" type="line" smooth="yes"/>
      <point x="399" y="313"/>
      <point x="437" y="357"/>
      <point x="411" y="382" type="curve" smooth="yes"/>
    </contour>
    <contour>
      <point x="328" y="465" type="line" smooth="yes"/>
      <point x="296" y="471"/>
      <point x="284" y="417"/>
      <point x="316" y="412" type="curve" smooth="yes"/>
      <point x="392" y="399" type="line" smooth="yes"/>
      <point x="419" y="394"/>
      <point x="431" y="442"/>
      <point x="401" y="448" type="curve" smooth="yes"/>
    </contour>
    <contour>
      <point x="311" y="419" type="line" smooth="yes"/>
      <point x="282" y="405"/>
      <point x="297" y="358"/>
      <point x="327" y="371" type="curve" smooth="yes"/>
      <point x="364" y="388" type="line" smooth="yes"/>
      <point x="394" y="402"/>
      <point x="377" y="454"/>
      <point x="345" y="438" type="curve" smooth="yes"/>
    </contour>
    <contour>
      <point x="265" y="119" type="line" smooth="yes"/>
      <point x="256" y="96"/>
      <point x="301" y="86"/>
      <point x="306" y="107" type="curve" smooth="yes"/>
      <point x="309" y="119" type="line" smooth="yes"/>
      <point x="314" y="139"/>
      <point x="279" y="155"/>
      <point x="270" y="132" type="curve" smooth="yes"/>
    </contour>
    <contour>
      <point x="455" y="179" type="line" smooth="yes"/>
      <point x="438" y="198"/>
      <point x="406" y="173"/>
      <point x="420" y="154" type="curve" smooth="yes"/>
      <point x="425" y="147" type="line" smooth="yes"/>
      <point x="441" y="125"/>
      <point x="479" y="152"/>
      <point x="462" y="171" type="curve" smooth="yes"/>
    </contour>
    <contour>
      <point x="517" y="331" type="line" smooth="yes"/>
      <point x="493" y="339"/>
      <point x="482" y="303"/>
      <point x="504" y="293" type="curve" smooth="yes"/>
      <point x="526" y="283" type="line" smooth="yes"/>
      <point x="553" y="271"/>
      <point x="566" y="315"/>
      <point x="539" y="324" type="curve" smooth="yes"/>
    </contour>
    <contour>
      <point x="498" y="574" type="line" smooth="yes"/>
      <point x="472" y="564"/>
      <point x="482" y="529"/>
      <point x="505" y="535" type="curve" smooth="yes"/>
      <point x="525" y="540" type="line" smooth="yes"/>
      <point x="543" y="544"/>
      <point x="534" y="588"/>
      <point x="511" y="579" type="curve" smooth="yes"/>
    </contour>
    <contour>
      <point x="506" y="270" type="curve" smooth="yes"/>
      <point x="492" y="270"/>
      <point x="481" y="258"/>
      <point x="481" y="244" type="curve" smooth="yes"/>
      <point x="481" y="230"/>
      <point x="492" y="220"/>
      <point x="506" y="220" type="curve" smooth="yes"/>
      <point x="520" y="220"/>
      <point x="531" y="230"/>
      <point x="531" y="244" type="curve" smooth="yes"/>
      <point x="531" y="258"/>
      <point x="520" y="270"/>
    </contour>
  </outline>
</glyph>
<glyph name="P" format="2">
  <advance width="529"/>
  <unicode hex="0050"/>
  <anchor x="112" y="0" name="bottom"/>
  <anchor x="264" y="700" name="top"/>
  <outline>
    <contour>
      <point x="206" y="593"/>
      <point x="227" y="613"/>
      <point x="264" y="616" type="curve" smooth="yes"/>
      <point x="322" y="624" type="line" smooth="yes"/>
      <point x="392" y="630"/>
      <point x="430" y="564"/>
      <point x="430" y="472" type="curve" smooth="yes"/>
      <point x="431" y="371"/>
      <point x="368" y="320"/>
      <point x="293" y="320" type="curve" smooth="yes"/>
      <point x="240" y="320" type="line" smooth="yes"/>
      <point x="210" y="320"/>
      <point x="193" y="340"/>
      <point x="195" y="375" type="curve" smooth="yes"/>
      <point x="203" y="545" type="line" smooth="yes"/>
    </contour>
    <contour>
      <point x="54" y="40" type="line" smooth="yes"/>
      <point x="52" y="-38"/>
      <point x="167" y="-37"/>
      <point x="176" y="29" type="curve" smooth="yes"/>
      <point x="195" y="222" type="line" smooth="yes"/>
      <point x="198" y="247"/>
      <point x="209" y="260"/>
      <point x="231" y="260" type="curve" smooth="yes"/>
      <point x="313" y="260" type="line" smooth="yes"/>
      <point x="415" y="260"/>
      <point x="499" y="323"/>
      <point x="499" y="473" type="curve" smooth="yes"/>
      <point x="499" y="634"/>
      <point x="413" y="695"/>
      <point x="300" y="700" type="curve" smooth="yes"/>
      <point x="154" y="707" type="line" smooth="yes"/>
      <point x="105" y="710"/>
      <point x="68.992" y="678.997"/>
      <point x="67.993" y="625.997" type="curve" smooth="yes"/>
    </contour>
    <contour>
      <point x="313" y="421" type="curve" smooth="yes"/>
      <point x="229" y="500" type="line" smooth="yes"/>
      <point x="204" y="525"/>
      <point x="171" y="488"/>
      <point x="194" y="464" type="curve" smooth="yes"/>
      <point x="273" y="379" type="line" smooth="yes"/>
      <point x="300" y="350"/>
      <point x="341" y="393"/>
    </contour>
    <contour>
      <point x="342" y="471" type="curve" smooth="yes"/>
      <point x="264" y="480" type="line" smooth="yes"/>
      <point x="231" y="485"/>
      <point x="221" y="426"/>
      <point x="258" y="423" type="curve" smooth="yes"/>
      <point x="338" y="420" type="line" smooth="yes"/>
      <point x="373" y="416"/>
      <point x="376" y="466"/>
    </contour>
    <contour>
      <point x="134" y="201" type="curve" smooth="yes"/>
      <point x="134" y="201"/>
      <point x="134" y="201"/>
      <point x="134" y="201" type="curve" smooth="yes"/>
      <point x="134" y="201"/>
      <point x="134" y="201"/>
      <point x="134" y="201" type="curve" smooth="yes"/>
      <point x="134" y="201"/>
      <point x="134" y="201"/>
      <point x="134" y="201" type="curve" smooth="yes"/>
      <point x="134" y="201"/>
      <point x="134" y="201"/>
    </contour>
    <contour>
      <point x="121" y="142" type="curve" smooth="yes"/>
      <point x="108" y="142"/>
      <point x="98" y="152"/>
      <point x="98" y="165" type="curve" smooth="yes"/>
      <point x="98" y="178"/>
      <point x="108" y="188"/>
      <point x="121" y="188" type="curve" smooth="yes"/>
      <point x="133" y="188"/>
      <point x="144" y="178"/>
      <point x="144" y="165" type="curve" smooth="yes"/>
      <point x="144" y="152"/>
      <point x="133" y="142"/>
    </contour>
    <contour>
      <point x="134" y="560" type="curve" smooth="yes"/>
      <point x="92.996" y="561.995" type="line" smooth="yes"/>
      <point x="70" y="562"/>
      <point x="69" y="514"/>
      <point x="92" y="517" type="curve" smooth="yes"/>
      <point x="132.007" y="519.991" type="line" smooth="yes"/>
      <point x="155" y="522"/>
      <point x="162.009" y="559.991"/>
    </contour>
    <contour>
      <point x="124" y="452" type="curve" smooth="yes"/>
      <point x="100" y="448" type="line" smooth="yes"/>
      <point x="77" y="444"/>
      <point x="85" y="390"/>
      <point x="107" y="397" type="curve" smooth="yes"/>
      <point x="133" y="404" type="line" smooth="yes"/>
      <point x="155" y="410"/>
      <point x="149" y="456"/>
    </contour>
    <contour>
      <point x="415" y="638" type="curve" smooth="yes"/>
      <point x="399" y="628.004" type="line" smooth="yes"/>
      <point x="380" y="616"/>
      <point x="407.998" y="579.007"/>
      <point x="428" y="588" type="curve" smooth="yes"/>
      <point x="445" y="595" type="line" smooth="yes"/>
      <point x="466" y="605"/>
      <point x="434" y="650"/>
    </contour>
  </outline>
</glyph>
<glyph name="Q" format="2">
  <advance width="619"/>
  <unicode hex="0051"/>
  <anchor x="273" y="0" name="bottom"/>
  <anchor x="313" y="700" name="top"/>
  <outline>
    <contour>
      <point x="202" y="-1" type="curve" smooth="yes"/>
      <point x="481" y="-186" type="line" smooth="yes"/>
      <point x="543" y="-230"/>
      <point x="602" y="-134"/>
      <point x="529" y="-103" type="curve" smooth="yes"/>
      <point x="342" y="-18" type="line" smooth="yes"/>
      <point x="317" y="-7"/>
      <point x="322" y="16"/>
      <point x="342" y="21" type="curve" smooth="yes"/>
      <point x="522" y="59"/>
      <point x="589" y="146"/>
      <point x="589" y="354" type="curve" smooth="yes"/>
      <point x="589" y="596"/>
      <point x="487" y="715"/>
      <point x="318" y="715" type="curve" smooth="yes"/>
      <point x="144" y="715"/>
      <point x="30" y="597"/>
      <point x="30" y="332" type="curve" smooth="yes"/>
      <point x="30" y="127"/>
      <point x="105" y="65"/>
    </contour>
    <contour>
      <point x="258" y="69" type="curve" smooth="yes"/>
      <point x="177" y="69"/>
      <point x="104" y="143"/>
      <point x="104" y="286" type="curve" smooth="yes"/>
      <point x="105" y="456"/>
      <point x="225" y="555"/>
      <point x="329" y="555" type="curve" smooth="yes"/>
      <point x="407" y="555"/>
      <point x="444" y="468"/>
      <point x="444" y="302" type="curve" smooth="yes"/>
      <point x="444" y="158"/>
      <point x="368" y="69"/>
    </contour>
    <contour>
      <point x="130" y="500" type="curve" smooth="yes"/>
      <point x="120" y="500"/>
      <point x="112" y="509"/>
      <point x="112" y="519" type="curve" smooth="yes"/>
      <point x="112" y="529"/>
      <point x="120" y="537"/>
      <point x="130" y="537" type="curve" smooth="yes"/>
      <point x="140" y="537"/>
      <point x="148" y="529"/>
      <point x="148" y="519" type="curve" smooth="yes"/>
      <point x="148" y="509"/>
      <point x="140" y="500"/>
    </contour>
    <contour>
      <point x="316" y="590" type="curve" smooth="yes"/>
      <point x="303" y="590"/>
      <point x="292" y="600"/>
      <point x="292" y="613" type="curve" smooth="yes"/>
      <point x="292" y="626"/>
      <point x="303" y="637"/>
      <point x="316" y="637" type="curve" smooth="yes"/>
      <point x="329" y="637"/>
      <point x="339" y="626"/>
      <point x="339" y="613" type="curve" smooth="yes"/>
      <point x="339" y="600"/>
      <point x="329" y="590"/>
    </contour>
    <contour>
      <point x="440" y="526" type="curve" smooth="yes"/>
      <point x="429" y="526"/>
      <point x="421" y="534"/>
      <point x="421" y="545" type="curve" smooth="yes"/>
      <point x="421" y="556"/>
      <point x="429" y="564"/>
      <point x="440" y="564" type="curve" smooth="yes"/>
      <point x="451" y="564"/>
      <point x="459" y="556"/>
      <point x="459" y="545" type="curve" smooth="yes"/>
      <point x="459" y="534"/>
      <point x="451" y="526"/>
    </contour>
    <contour>
      <point x="296" y="367" type="curve" smooth="yes"/>
      <point x="274" y="419" type="line" smooth="yes"/>
      <point x="259" y="454"/>
      <point x="212" y="428"/>
      <point x="225" y="397" type="curve" smooth="yes"/>
      <point x="246" y="344" type="line" smooth="yes"/>
      <point x="258" y="314"/>
      <point x="309" y="338"/>
    </contour>
    <contour>
      <point x="323" y="352" type="curve" smooth="yes"/>
      <point x="255" y="409" type="line" smooth="yes"/>
      <point x="222" y="435"/>
      <point x="192" y="388"/>
      <point x="222" y="364" type="curve" smooth="yes"/>
      <point x="289" y="305" type="line" smooth="yes"/>
      <point x="317" y="282"/>
      <point x="350" y="330"/>
    </contour>
    <contour>
      <point x="504" y="530" type="curve" smooth="yes"/>
      <point x="450" y="504" type="line" smooth="yes"/>
      <point x="418" y="488"/>
      <point x="447" y="444"/>
      <point x="473" y="459" type="curve" smooth="yes"/>
      <point x="525" y="488" type="line" smooth="yes"/>
      <point x="552" y="504"/>
      <point x="534" y="544"/>
    </contour>
    <contour>
      <point x="551" y="369" type="curve" smooth="yes"/>
      <point x="494" y="375" type="line" smooth="yes"/>
      <point x="462" y="377"/>
      <point x="463" y="332"/>
      <point x="494" y="331" type="curve" smooth="yes"/>
      <point x="551" y="326" type="line" smooth="yes"/>
      <point x="575" y="324"/>
      <point x="577" y="367"/>
    </contour>
    <contour>
      <point x="388" y="-95" type="curve" smooth="yes"/>
      <point x="396" y="-80" type="line" smooth="yes"/>
      <point x="405" y="-63"/>
      <point x="371" y="-43"/>
      <point x="359" y="-57" type="curve" smooth="yes"/>
      <point x="347" y="-71" type="line" smooth="yes"/>
      <point x="330" y="-91"/>
      <point x="377" y="-116"/>
    </contour>
    <contour>
      <point x="492.009" y="-140.994" type="curve" smooth="yes"/>
      <point x="505" y="-119" type="line" smooth="yes"/>
      <point x="515" y="-101"/>
      <point x="474" y="-83"/>
      <point x="466" y="-102" type="curve" smooth="yes"/>
      <point x="457" y="-125" type="line" smooth="yes"/>
      <point x="449" y="-145"/>
      <point x="482" y="-159"/>
    </contour>
  </outline>
</glyph>
<glyph name="R" format="2">
  <advance width="566"/>
  <unicode hex="0052"/>
  <anchor x="249" y="0" name="bottom"/>
  <anchor x="285" y="700" name="top"/>
  <outline>
    <contour>
      <point x="63" y="29" type="line" smooth="yes"/>
      <point x="64" y="-24"/>
      <point x="157" y="-18"/>
      <point x="154" y="28" type="curve" smooth="yes"/>
      <point x="146" y="192" type="line" smooth="yes"/>
      <point x="146" y="206"/>
      <point x="152" y="216"/>
      <point x="169" y="216" type="curve" smooth="yes"/>
      <point x="172" y="216" type="line" smooth="yes"/>
      <point x="189" y="216"/>
      <point x="201" y="208"/>
      <point x="214" y="191" type="curve" smooth="yes"/>
      <point x="361" y="-6" type="line" smooth="yes"/>
      <point x="426" y="-89"/>
      <point x="539" y="-23"/>
      <point x="539" y="62" type="curve" smooth="yes"/>
      <point x="539" y="99"/>
      <point x="526" y="138"/>
      <point x="491" y="153" type="curve" smooth="yes"/>
      <point x="286" y="260" type="line" smooth="yes"/>
      <point x="262" y="270"/>
      <point x="265" y="305"/>
      <point x="283" y="305" type="curve" smooth="yes"/>
      <point x="308" y="303"/>
      <point x="336" y="304"/>
      <point x="369" y="307" type="curve" smooth="yes"/>
      <point x="457.007" y="320.001"/>
      <point x="516" y="364"/>
      <point x="517" y="484" type="curve" smooth="yes"/>
      <point x="518" y="617"/>
      <point x="444" y="707"/>
      <point x="301" y="707" type="curve" smooth="yes"/>
      <point x="218" y="707" type="line" smooth="yes"/>
      <point x="133" y="707"/>
      <point x="49" y="663"/>
      <point x="54" y="548" type="curve" smooth="yes"/>
    </contour>
    <contour>
      <point x="124" y="427" type="curve" smooth="yes"/>
      <point x="124" y="472" type="line" smooth="yes"/>
      <point x="124" y="534"/>
      <point x="167" y="572"/>
      <point x="226" y="572" type="curve" smooth="yes"/>
      <point x="304" y="572" type="line" smooth="yes"/>
      <point x="396" y="572"/>
      <point x="443" y="527"/>
      <point x="443" y="457" type="curve" smooth="yes"/>
      <point x="443" y="395"/>
      <point x="376" y="354"/>
      <point x="316" y="354" type="curve" smooth="yes"/>
      <point x="241" y="354" type="line" smooth="yes"/>
      <point x="165" y="355"/>
      <point x="124" y="371"/>
    </contour>
    <contour>
      <point x="466" y="167" type="line"/>
      <point x="460" y="118" type="line" smooth="yes"/>
      <point x="459" y="103"/>
      <point x="427" y="112"/>
      <point x="428" y="132" type="curve" smooth="yes"/>
      <point x="432" y="185" type="line"/>
    </contour>
    <contour>
      <point x="400" y="201" type="line"/>
      <point x="397" y="178" type="line" smooth="yes"/>
      <point x="394" y="160"/>
      <point x="354" y="178"/>
      <point x="360" y="197" type="curve" smooth="yes"/>
      <point x="366" y="218" type="line"/>
    </contour>
    <contour>
      <point x="484" y="47" type="curve" smooth="yes"/>
      <point x="500" y="47"/>
      <point x="513" y="60"/>
      <point x="513" y="76" type="curve" smooth="yes"/>
      <point x="513" y="92"/>
      <point x="500" y="105"/>
      <point x="484" y="105" type="curve" smooth="yes"/>
      <point x="468" y="105"/>
      <point x="455" y="92"/>
      <point x="455" y="76" type="curve" smooth="yes"/>
      <point x="455" y="60"/>
      <point x="468" y="47"/>
    </contour>
    <contour>
      <point x="122" y="10" type="line" smooth="yes"/>
      <point x="152" y="10"/>
      <point x="147" y="60"/>
      <point x="121" y="60" type="curve" smooth="yes"/>
      <point x="94" y="59" type="line" smooth="yes"/>
      <point x="66" y="59"/>
      <point x="69" y="10"/>
      <point x="94.996" y="9.996" type="curve" smooth="yes"/>
    </contour>
    <contour>
      <point x="119" y="86" type="line" smooth="yes"/>
      <point x="148" y="87"/>
      <point x="144" y="142"/>
      <point x="118" y="142" type="curve" smooth="yes"/>
      <point x="91" y="142" type="line" smooth="yes"/>
      <point x="60" y="142"/>
      <point x="60" y="84"/>
      <point x="88" y="85" type="curve" smooth="yes"/>
    </contour>
  </outline>
</glyph>
<glyph name="S" format="2">
  <advance width="475"/>
  <unicode hex="0053"/>
  <anchor x="225" y="0" name="bottom"/>
  <anchor x="207" y="0" name="cedilla"/>
  <anchor x="254.998" y="704.995" name="top"/>
  <outline>
    <contour>
      <point x="221" y="-12" type="curve" smooth="yes"/>
      <point x="375" y="-12"/>
      <point x="451" y="63"/>
      <point x="451" y="196" type="curve" smooth="yes"/>
      <point x="451" y="301"/>
      <point x="390" y="348"/>
      <point x="292" y="380" type="curve" smooth="yes"/>
      <point x="219" y="405" type="line" smooth="yes"/>
      <point x="146" y="429"/>
      <point x="115" y="454"/>
      <point x="115" y="496" type="curve" smooth="yes"/>
      <point x="115" y="552"/>
      <point x="157" y="579"/>
      <point x="216" y="579" type="curve" smooth="yes"/>
      <point x="279" y="579"/>
      <point x="308" y="550"/>
      <point x="355" y="550" type="curve" smooth="yes"/>
      <point x="397" y="550"/>
      <point x="422" y="571"/>
      <point x="422" y="614" type="curve" smooth="yes"/>
      <point x="422" y="680"/>
      <point x="347" y="721"/>
      <point x="261" y="721" type="curve" smooth="yes"/>
      <point x="131" y="721"/>
      <point x="33" y="640"/>
      <point x="33" y="505" type="curve" smooth="yes"/>
      <point x="33" y="415"/>
      <point x="84" y="366"/>
      <point x="158" y="331" type="curve" smooth="yes"/>
      <point x="230" y="291" type="line" smooth="yes"/>
      <point x="291" y="259"/>
      <point x="315" y="227"/>
      <point x="315" y="195" type="curve" smooth="yes"/>
      <point x="315" y="149"/>
      <point x="283" y="130"/>
      <point x="228" y="130" type="curve" smooth="yes"/>
      <point x="154" y="130"/>
      <point x="124" y="166"/>
      <point x="79" y="166" type="curve" smooth="yes"/>
      <point x="43" y="165"/>
      <point x="21" y="128"/>
      <point x="31" y="88" type="curve" smooth="yes"/>
      <point x="43" y="31"/>
      <point x="129" y="-12"/>
    </contour>
    <contour>
      <point x="326.993" y="100.003" type="curve" smooth="yes"/>
      <point x="318.002" y="100.003"/>
      <point x="312" y="106"/>
      <point x="312" y="115" type="curve" smooth="yes"/>
      <point x="312" y="124"/>
      <point x="318" y="130"/>
      <point x="327" y="130" type="curve" smooth="yes"/>
      <point x="335" y="130"/>
      <point x="342" y="124"/>
      <point x="342" y="115" type="curve" smooth="yes"/>
      <point x="342" y="106"/>
      <point x="335" y="100"/>
    </contour>
    <contour>
      <point x="352" y="121" type="curve" smooth="yes"/>
      <point x="341" y="121"/>
      <point x="333" y="129"/>
      <point x="333" y="140" type="curve" smooth="yes"/>
      <point x="333" y="150"/>
      <point x="341" y="158"/>
      <point x="352" y="158" type="curve" smooth="yes"/>
      <point x="363" y="158"/>
      <point x="371" y="150"/>
      <point x="371" y="140" type="curve" smooth="yes"/>
      <point x="371" y="129"/>
      <point x="363" y="121"/>
    </contour>
    <contour>
      <point x="344" y="207" type="curve" smooth="yes"/>
      <point x="335" y="207"/>
      <point x="329" y="213"/>
      <point x="329" y="222" type="curve" smooth="yes"/>
      <point x="329" y="230"/>
      <point x="335" y="236"/>
      <point x="344" y="236" type="curve" smooth="yes"/>
      <point x="352" y="236"/>
      <point x="358" y="230"/>
      <point x="358" y="222" type="curve" smooth="yes"/>
      <point x="358" y="213"/>
      <point x="352" y="207"/>
    </contour>
    <contour>
      <point x="301" y="521" type="curve" smooth="yes"/>
      <point x="314" y="521"/>
      <point x="325" y="532"/>
      <point x="325" y="545" type="curve" smooth="yes"/>
      <point x="325" y="559"/>
      <point x="314" y="569"/>
      <point x="301" y="569" type="curve" smooth="yes"/>
      <point x="287" y="569"/>
      <point x="276" y="559"/>
      <point x="276" y="545" type="curve" smooth="yes"/>
      <point x="276" y="532"/>
      <point x="287" y="521"/>
    </contour>
    <contour>
      <point x="145" y="43" type="curve" smooth="yes"/>
      <point x="151" y="64" type="line" smooth="yes"/>
      <point x="156" y="87"/>
      <point x="113" y="100"/>
      <point x="104" y="78" type="curve" smooth="yes"/>
      <point x="96" y="58" type="line" smooth="yes"/>
      <point x="84" y="30"/>
      <point x="138" y="16"/>
    </contour>
    <contour>
      <point x="262" y="95" type="curve" smooth="yes"/>
      <point x="255" y="112" type="line" smooth="yes"/>
      <point x="246" y="134"/>
      <point x="201" y="118"/>
      <point x="207" y="97" type="curve" smooth="yes"/>
      <point x="212" y="78" type="line" smooth="yes"/>
      <point x="219" y="49"/>
      <point x="272" y="70"/>
    </contour>
    <contour>
      <point x="219" y="348" type="curve" smooth="yes"/>
      <point x="231" y="369" type="line"/>
      <point x="188" y="396" type="line"/>
      <point x="171" y="378" type="line" smooth="yes"/>
      <point x="146" y="353"/>
      <point x="201" y="317"/>
    </contour>
    <contour>
      <point x="84" y="578" type="curve" smooth="yes"/>
      <point x="103" y="570" type="line" smooth="yes"/>
      <point x="125" y="560"/>
      <point x="143" y="602"/>
      <point x="123" y="613" type="curve" smooth="yes"/>
      <point x="104" y="623" type="line" smooth="yes"/>
      <point x="75" y="638"/>
      <point x="52" y="593"/>
    </contour>
    <contour>
      <point x="142" y="648" type="curve" smooth="yes"/>
      <point x="156" y="632" type="line"/>
      <point x="191" y="658" type="line"/>
      <point x="178" y="676" type="line" smooth="yes"/>
      <point x="162" y="696"/>
      <point x="123" y="670"/>
    </contour>
  </outline>
</glyph>
<glyph name="T" format="2">
  <advance width="461"/>
  <unicode hex="0054"/>
  <anchor x="249" y="25" name="bottom"/>
  <anchor x="231" y="20" name="cedilla"/>
  <anchor x="227.994" y="692.008" name="top"/>
  <outline>
    <contour>
      <point x="170" y="67" type="line" smooth="yes"/>
      <point x="165" y="-19"/>
      <point x="341" y="-11"/>
      <point x="322" y="80" type="curve" smooth="yes"/>
      <point x="264" y="532" type="line" smooth="yes"/>
      <point x="261" y="548"/>
      <point x="270" y="556"/>
      <point x="289" y="558" type="curve" smooth="yes"/>
      <point x="385" y="574" type="line" smooth="yes"/>
      <point x="440" y="578"/>
      <point x="456" y="611"/>
      <point x="456" y="646" type="curve" smooth="yes"/>
      <point x="456" y="684"/>
      <point x="437" y="715"/>
      <point x="381" y="713" type="curve" smooth="yes"/>
      <point x="90" y="694" type="line" smooth="yes"/>
      <point x="25" y="691"/>
      <point x="5" y="658"/>
      <point x="5" y="615" type="curve" smooth="yes"/>
      <point x="5" y="570"/>
      <point x="26" y="532"/>
      <point x="91" y="537" type="curve" smooth="yes"/>
      <point x="165" y="547" type="line" smooth="yes"/>
      <point x="182" y="549"/>
      <point x="187" y="540"/>
      <point x="187" y="522" type="curve" smooth="yes"/>
    </contour>
    <contour>
      <point x="291" y="325" type="line"/>
      <point x="291" y="325" type="line"/>
      <point x="291" y="325"/>
      <point x="282" y="387"/>
      <point x="282" y="387" type="curve"/>
      <point x="282" y="387" type="line"/>
    </contour>
    <contour>
      <point x="178" y="308" type="line"/>
      <point x="211" y="314" type="line" smooth="yes"/>
      <point x="233" y="318"/>
      <point x="241" y="237"/>
      <point x="216" y="233" type="curve" smooth="yes"/>
      <point x="175" y="227" type="line"/>
    </contour>
    <contour>
      <point x="173" y="172" type="line"/>
      <point x="216" y="169" type="line" smooth="yes"/>
      <point x="246" y="167"/>
      <point x="240" y="93"/>
      <point x="211" y="101" type="curve" smooth="yes"/>
      <point x="171" y="112" type="line"/>
    </contour>
    <contour>
      <point x="222" y="592" type="curve" smooth="yes"/>
      <point x="237" y="592"/>
      <point x="250" y="604"/>
      <point x="250" y="619" type="curve" smooth="yes"/>
      <point x="250" y="634"/>
      <point x="237" y="647"/>
      <point x="222" y="647" type="curve" smooth="yes"/>
      <point x="207" y="647"/>
      <point x="194" y="634"/>
      <point x="194" y="619" type="curve" smooth="yes"/>
      <point x="194" y="604"/>
      <point x="207" y="592"/>
    </contour>
    <contour>
      <point x="237" y="481" type="line"/>
      <point x="218" y="480" type="line" smooth="yes"/>
      <point x="188" y="478"/>
      <point x="188" y="422"/>
      <point x="218" y="424" type="curve" smooth="yes"/>
      <point x="242" y="426" type="line"/>
    </contour>
    <contour>
      <point x="236" y="397" type="line"/>
      <point x="217" y="399" type="line" smooth="yes"/>
      <point x="188" y="402"/>
      <point x="186" y="348"/>
      <point x="214" y="343" type="curve" smooth="yes"/>
      <point x="238" y="338" type="line"/>
    </contour>
  </outline>
</glyph>
<glyph name="U" format="2">
  <advance width="615"/>
  <unicode hex="0055"/>
  <anchor x="370" y="0" name="ogonek"/>
  <anchor x="291" y="701" name="top"/>
  <outline>
    <contour>
      <point x="278" y="-6" type="curve" smooth="yes"/>
      <point x="482" y="-6"/>
      <point x="563" y="100"/>
      <point x="566" y="254" type="curve" smooth="yes"/>
      <point x="571" y="612" type="line" smooth="yes"/>
      <point x="574" y="728"/>
      <point x="333" y="733"/>
      <point x="349" y="608" type="curve" smooth="yes"/>
      <point x="391" y="233" type="line" smooth="yes"/>
      <point x="400" y="120"/>
      <point x="358" y="69"/>
      <point x="285" y="69" type="curve" smooth="yes"/>
      <point x="195" y="69"/>
      <point x="146" y="125"/>
      <point x="148" y="265" type="curve" smooth="yes"/>
      <point x="156" y="688" type="line" smooth="yes"/>
      <point x="156" y="731"/>
      <point x="88" y="731"/>
      <point x="85" y="688" type="curve" smooth="yes"/>
      <point x="59" y="244" type="line" smooth="yes"/>
      <point x="50" y="83"/>
      <point x="123" y="-6"/>
    </contour>
    <contour>
      <point x="353" y="522" type="line"/>
      <point x="401" y="526" type="line" smooth="yes"/>
      <point x="416" y="518"/>
      <point x="423" y="477"/>
      <point x="401" y="466" type="curve" smooth="yes"/>
      <point x="360" y="462" type="line"/>
    </contour>
    <contour>
      <point x="364" y="436" type="line"/>
      <point x="407" y="438" type="line" smooth="yes"/>
      <point x="429" y="429"/>
      <point x="427" y="380"/>
      <point x="411" y="371" type="curve" smooth="yes"/>
      <point x="372" y="373" type="line"/>
    </contour>
    <contour>
      <point x="568" y="442" type="line"/>
      <point x="567" y="389" type="line"/>
      <point x="567" y="389" type="line"/>
      <point x="567" y="389"/>
      <point x="568" y="442"/>
      <point x="568" y="442" type="curve"/>
    </contour>
    <contour>
      <point x="202" y="148" type="curve" smooth="yes"/>
      <point x="224" y="148"/>
      <point x="241" y="166"/>
      <point x="241" y="188" type="curve" smooth="yes"/>
      <point x="241" y="210"/>
      <point x="224" y="227"/>
      <point x="202" y="227" type="curve" smooth="yes"/>
      <point x="180" y="227"/>
      <point x="162" y="210"/>
      <point x="162" y="188" type="curve" smooth="yes"/>
      <point x="162" y="166"/>
      <point x="180" y="148"/>
    </contour>
    <contour>
      <point x="372" y="602" type="curve" smooth="yes"/>
      <point x="257" y="597" type="line" smooth="yes"/>
      <point x="225" y="597"/>
      <point x="220" y="536"/>
      <point x="258" y="538" type="curve" smooth="yes"/>
      <point x="372" y="547" type="line" smooth="yes"/>
      <point x="408" y="549"/>
      <point x="405" y="602"/>
    </contour>
    <contour>
      <point x="179" y="488" type="curve" smooth="yes"/>
      <point x="106" y="490" type="line"/>
      <point x="107" y="429" type="line"/>
      <point x="177" y="424" type="line" smooth="yes"/>
      <point x="213" y="420"/>
      <point x="212" y="487"/>
    </contour>
    <contour>
      <point x="455" y="403" type="curve" smooth="yes"/>
      <point x="434" y="400" type="line" smooth="yes"/>
      <point x="401" y="397"/>
      <point x="404" y="344"/>
      <point x="439" y="347" type="curve" smooth="yes"/>
      <point x="454" y="348" type="line" smooth="yes"/>
      <point x="489" y="350"/>
      <point x="486" y="406"/>
    </contour>
    <contour>
      <point x="429" y="68" type="curve" smooth="yes"/>
      <point x="418" y="92" type="line" smooth="yes"/>
      <point x="404" y="120"/>
      <point x="356" y="94"/>
      <point x="372" y="63" type="curve" smooth="yes"/>
      <point x="381" y="45" type="line" smooth="yes"/>
      <point x="398" y="13"/>
      <point x="443" y="40"/>
    </contour>
  </outline>
</glyph>
